SplineFontDB: 3.2
FontName: poj-Phiaute-Regular
FullName: poj-Phiaute Regular
FamilyName: poj-Phiaute
Weight: Regular
Copyright: Copyright 2019 The Bebas Neue Project Authors \\(https://github.com/dharmatype/Bebas-Neue\\)
Version: 001.000
ItalicAngle: 0
UnderlinePosition: -80
UnderlineWidth: 80
Ascent: 800
Descent: 200
InvalidEm: 0
LayerCount: 2
Layer: 0 0 "Back" 1
Layer: 1 0 "Fore" 0
XUID: [1021 404 -861162680 12565]
StyleMap: 0x0040
FSType: 0
OS2Version: 3
OS2_WeightWidthSlopeOnly: 0
OS2_UseTypoMetrics: 0
CreationTime: 1567685267
ModificationTime: 1598502157
PfmFamily: 17
TTFWeight: 400
TTFWidth: 5
LineGap: 0
VLineGap: 0
Panose: 2 11 6 6 2 2 2 5 2 1
OS2TypoAscent: 900
OS2TypoAOffset: 0
OS2TypoDescent: -300
OS2TypoDOffset: 0
OS2TypoLinegap: 0
OS2WinAscent: 950
OS2WinAOffset: 0
OS2WinDescent: 350
OS2WinDOffset: 0
HheadAscent: 900
HheadAOffset: 0
HheadDescent: -300
HheadDOffset: 0
OS2SubXSize: 650
OS2SubYSize: 600
OS2SubXOff: 0
OS2SubYOff: 75
OS2SupXSize: 650
OS2SupYSize: 600
OS2SupXOff: 0
OS2SupYOff: 350
OS2StrikeYSize: 80
OS2StrikeYPos: 420
OS2CapHeight: 700
OS2XHeight: 700
OS2Vendor: 'DHRM'
OS2CodePages: 20000093.00000000
OS2UnicodeRanges: 00000007.00000001.00000000.00000000
Lookup: 4 0 0 "'ccmp' Glyph Composition POJ" { "'ccmp' Glyph Composition POJ subtable"  } ['ccmp' ('DFLT' <'dflt' > 'latn' <'dflt' > ) ]
Lookup: 4 0 1 "'liga' Standard Ligatures lookup POJ" { "'liga' Standard Ligatures lookup POJ subtable"  } ['liga' ('DFLT' <'dflt' > 'latn' <'dflt' > ) ]
Lookup: 1 0 0 "'aalt' Access All Alternates in Latin lookup 0" { "'aalt' Access All Alternates in Latin lookup 0 subtable"  } ['aalt' ('DFLT' <'dflt' > 'latn' <'AZE ' 'CAT ' 'CRT ' 'KAZ ' 'MOL ' 'NLD ' 'ROM ' 'TAT ' 'TRK ' 'dflt' > ) ]
Lookup: 3 0 0 "'aalt' Access All Alternates in Latin lookup 1" { "'aalt' Access All Alternates in Latin lookup 1 subtable"  } ['aalt' ('DFLT' <'dflt' > 'latn' <'AZE ' 'CAT ' 'CRT ' 'KAZ ' 'MOL ' 'NLD ' 'ROM ' 'TAT ' 'TRK ' 'dflt' > ) ]

StartChar: .notdef
Encoding: 65536 -1 0
Width: 738
Flags: W
HStem: 0 50<137 601> 650 50<137 601>
VStem: 54 50<87 613> 634 50<87 613>
LayerCount: 2
Fore
SplineSet
54 0 m 1
 54 700 l 1
 684 700 l 1
 684 0 l 1
 54 0 l 1
369 387 m 1
 601 650 l 1
 137 650 l 1
 369 387 l 1
104 87 m 1
 336 350 l 1
 104 613 l 1
 104 87 l 1
634 87 m 1
 634 613 l 1
 402 350 l 1
 634 87 l 1
137 50 m 1
 601 50 l 1
 369 313 l 1
 137 50 l 1
EndSplineSet
EndChar

StartChar: A
Encoding: 65 65 4
Width: 401
GlyphClass: 2
Flags: W
HStem: 0 21G<12 116.92 276.122 389> 137 95<147 246> 680 20G<122.743 278.257>
AnchorPoint: "Anchor-4" 201 700 basechar 0
AnchorPoint: "Anchor-3" 389 0 basechar 0
AnchorPoint: "Anchor-2" 201 0 basechar 0
LayerCount: 2
Fore
SplineSet
12 0 m 1
 126 700 l 1
 275 700 l 1
 389 0 l 1
 279 0 l 1
 259 139 l 1
 259 137 l 1
 134 137 l 1
 114 0 l 1
 12 0 l 1
147 232 m 1
 246 232 l 1
 197 578 l 1
 195 578 l 1
 147 232 l 1
EndSplineSet
Substitution2: "Single Substitution lookup 27 subtable" ordfeminine
Substitution2: "'aalt' Access All Alternates in Latin lookup 0 subtable" ordfeminine
EndChar

StartChar: Adieresis
Encoding: 196 196 5
Width: 401
GlyphClass: 2
Flags: W
HStem: 0 21G<12 116.92 276.122 389> 137 95<147 246> 680 20G<122.743 278.257> 747 102<75 173 229 327>
VStem: 75 98<747 849> 229 98<747 849>
AnchorPoint: "Anchor-4" 201 849 basechar 0
AnchorPoint: "Anchor-3" 389 0 basechar 0
AnchorPoint: "Anchor-2" 201 0 basechar 0
LayerCount: 2
Fore
SplineSet
75 747 m 1
 75 849 l 1
 173 849 l 1
 173 747 l 1
 75 747 l 1
229 747 m 1
 229 849 l 1
 327 849 l 1
 327 747 l 1
 229 747 l 1
12 0 m 1
 126 700 l 1
 275 700 l 1
 389 0 l 1
 279 0 l 1
 259 139 l 1
 259 137 l 1
 134 137 l 1
 114 0 l 1
 12 0 l 1
147 232 m 1
 246 232 l 1
 197 578 l 1
 195 578 l 1
 147 232 l 1
EndSplineSet
EndChar

StartChar: Aogonek
Encoding: 260 260 6
Width: 401
GlyphClass: 2
Flags: W
HStem: -147 61<292.883 388.207> 0 21G<12 116.92> 137 95<147 246> 680 20G<122.743 278.257>
VStem: 233 85<-105.5 -33.6506>
AnchorPoint: "Anchor-4" 201 700 basechar 0
AnchorPoint: "Anchor-3" 389 0 basechar 0
AnchorPoint: "Anchor-2" 201 0 basechar 0
LayerCount: 2
Fore
SplineSet
318 -58 m 0
 318 -77 335 -86 353 -86 c 0
 373 -86 378 -83 389 -80 c 1
 389 -136 l 1
 366 -145 349 -147 321 -147 c 0
 267 -147 233 -126 233 -85 c 0
 233 -53 255 -23 301 0 c 1
 279 0 l 1
 259 139 l 1
 259 137 l 1
 134 137 l 1
 114 0 l 1
 12 0 l 1
 126 700 l 1
 275 700 l 1
 389 0 l 1
 348 0 l 1
 323 -21 318 -44 318 -58 c 0
147 232 m 1
 246 232 l 1
 197 578 l 1
 195 578 l 1
 147 232 l 1
EndSplineSet
EndChar

StartChar: Atilde
Encoding: 195 195 7
Width: 401
GlyphClass: 2
Flags: W
HStem: 0 21G<12 116.92 276.122 389> 137 95<147 246> 680 20G<122.743 278.257> 750 77<197.042 277.406> 782 77<124.594 204.958>
AnchorPoint: "Anchor-4" 201 866 basechar 0
AnchorPoint: "Anchor-3" 389 0 basechar 0
AnchorPoint: "Anchor-2" 201 0 basechar 0
LayerCount: 2
Fore
SplineSet
115 743 m 1xe8
 62 775 l 1
 87 831 115 859 153 859 c 0xe8
 180 859 198 849 213 840 c 0
 225 833 235 827 247 827 c 0
 263 827 274 838 287 866 c 1
 340 834 l 1
 315 778 287 750 249 750 c 0xf0
 222 750 204 760 189 769 c 0
 177 776 167 782 155 782 c 0
 139 782 128 771 115 743 c 1xe8
12 0 m 1
 126 700 l 1
 275 700 l 1
 389 0 l 1
 279 0 l 1
 259 139 l 1
 259 137 l 1
 134 137 l 1
 114 0 l 1
 12 0 l 1
147 232 m 1
 246 232 l 1
 197 578 l 1
 195 578 l 1
 147 232 l 1
EndSplineSet
EndChar

StartChar: AE
Encoding: 198 198 8
Width: 580
GlyphClass: 2
Flags: W
HStem: 0 100<368 558> 137 95<174 258> 315 100<368 519> 600 100<368 558>
VStem: 258 110<100 137 232 315 415 565>
AnchorPoint: "Anchor-4" 288 700 basechar 0
AnchorPoint: "Anchor-2" 288 0 basechar 0
LayerCount: 2
Fore
SplineSet
10 0 m 1
 197 700 l 1
 558 700 l 1
 558 600 l 1
 368 600 l 1
 368 415 l 1
 519 415 l 1
 519 315 l 1
 368 315 l 1
 368 100 l 1
 558 100 l 1
 558 0 l 1
 258 0 l 1
 258 137 l 1
 150 137 l 1
 115 0 l 1
 10 0 l 1
174 232 m 1
 258 232 l 1
 258 565 l 1
 256 565 l 1
 174 232 l 1
EndSplineSet
EndChar

StartChar: AEacute
Encoding: 508 508 9
Width: 580
GlyphClass: 2
Flags: W
HStem: 0 100<368 558> 137 95<174 258> 315 100<368 519> 600 100<368 558>
VStem: 258 110<100 137 232 315 415 565>
AnchorPoint: "Anchor-4" 288 862 basechar 0
AnchorPoint: "Anchor-2" 288 0 basechar 0
LayerCount: 2
Fore
SplineSet
228 747 m 1
 298 862 l 1
 418 862 l 1
 311 747 l 1
 228 747 l 1
10 0 m 1
 197 700 l 1
 558 700 l 1
 558 600 l 1
 368 600 l 1
 368 415 l 1
 519 415 l 1
 519 315 l 1
 368 315 l 1
 368 100 l 1
 558 100 l 1
 558 0 l 1
 258 0 l 1
 258 137 l 1
 150 137 l 1
 115 0 l 1
 10 0 l 1
174 232 m 1
 258 232 l 1
 258 565 l 1
 256 565 l 1
 174 232 l 1
EndSplineSet
EndChar

StartChar: B
Encoding: 66 66 10
Width: 404
GlyphClass: 2
Flags: W
HStem: 0 100<151 257.251> 315 100<151 247.115> 600 100<151 246.734>
VStem: 41 110<100 315 415 600> 260 110<427.948 589.823> 271 110<110.576 299.441>
AnchorPoint: "Anchor-4" 191 700 basechar 0
AnchorPoint: "Anchor-2" 202 0 basechar 0
LayerCount: 2
Fore
SplineSet
41 0 m 1xf4
 41 700 l 1
 207 700 l 2
 321 700 370 647 370 539 c 2
 370 511 l 2xf8
 370 439 348 394 299 374 c 1
 299 372 l 1
 358 352 381 300 381 226 c 2
 381 166 l 2
 381 58 324 0 214 0 c 2
 41 0 l 1xf4
151 415 m 1
 194 415 l 2
 235 415 260 433 260 489 c 2
 260 528 l 2
 260 578 243 600 204 600 c 2
 151 600 l 1
 151 415 l 1
151 100 m 1
 214 100 l 2
 251 100 271 117 271 169 c 2
 271 230 l 2xf4
 271 295 250 315 200 315 c 2
 151 315 l 1
 151 100 l 1
EndSplineSet
EndChar

StartChar: uni1E02
Encoding: 7682 7682 11
Width: 404
GlyphClass: 2
Flags: W
HStem: 0 100<151 257.251> 315 100<151 247.115> 600 100<151 246.734> 747 102<141 241>
VStem: 41 110<100 315 415 600> 141 100<747 849> 260 110<427.948 589.823> 271 110<110.576 299.441>
AnchorPoint: "Anchor-4" 191 849 basechar 0
AnchorPoint: "Anchor-2" 202 0 basechar 0
LayerCount: 2
Fore
SplineSet
141 747 m 1xf4
 141 849 l 1
 241 849 l 1
 241 747 l 1
 141 747 l 1xf4
41 0 m 1xf9
 41 700 l 1
 207 700 l 2
 321 700 370 647 370 539 c 2
 370 511 l 2xfa
 370 439 348 394 299 374 c 1
 299 372 l 1
 358 352 381 300 381 226 c 2
 381 166 l 2
 381 58 324 0 214 0 c 2
 41 0 l 1xf9
151 415 m 1
 194 415 l 2
 235 415 260 433 260 489 c 2
 260 528 l 2
 260 578 243 600 204 600 c 2
 151 600 l 1
 151 415 l 1
151 100 m 1
 214 100 l 2
 251 100 271 117 271 169 c 2
 271 230 l 2xf9
 271 295 250 315 200 315 c 2
 151 315 l 1
 151 100 l 1
EndSplineSet
EndChar

StartChar: C
Encoding: 67 67 12
Width: 383
GlyphClass: 2
Flags: W
HStem: -10 100<154.21 242.924> 610 100<154.21 242.924>
VStem: 34 110<101.801 598.199> 254 104<101.801 261 464 598.199>
AnchorPoint: "Anchor-4" 193 700 basechar 0
AnchorPoint: "Anchor-2" 197 0 basechar 0
LayerCount: 2
Fore
SplineSet
196 -10 m 0
 90 -10 34 54 34 162 c 2
 34 538 l 2
 34 646 90 710 196 710 c 0
 302 710 358 646 358 538 c 2
 358 464 l 1
 254 464 l 1
 254 545 l 2
 254 591 232 610 199 610 c 0
 166 610 144 591 144 545 c 2
 144 154 l 2
 144 108 166 90 199 90 c 0
 232 90 254 108 254 154 c 2
 254 261 l 1
 358 261 l 1
 358 162 l 2
 358 54 302 -10 196 -10 c 0
EndSplineSet
EndChar

StartChar: Cacute
Encoding: 262 262 13
Width: 383
GlyphClass: 2
Flags: W
HStem: -10 100<154.21 242.924> 610 100<154.21 242.924>
VStem: 34 110<101.801 598.199> 254 104<101.801 261 464 598.199>
AnchorPoint: "Anchor-4" 193 862 basechar 0
AnchorPoint: "Anchor-2" 197 0 basechar 0
LayerCount: 2
Fore
SplineSet
133 747 m 1
 203 862 l 1
 323 862 l 1
 216 747 l 1
 133 747 l 1
196 -10 m 0
 90 -10 34 54 34 162 c 2
 34 538 l 2
 34 646 90 710 196 710 c 0
 302 710 358 646 358 538 c 2
 358 464 l 1
 254 464 l 1
 254 545 l 2
 254 591 232 610 199 610 c 0
 166 610 144 591 144 545 c 2
 144 154 l 2
 144 108 166 90 199 90 c 0
 232 90 254 108 254 154 c 2
 254 261 l 1
 358 261 l 1
 358 162 l 2
 358 54 302 -10 196 -10 c 0
EndSplineSet
EndChar

StartChar: Ccaron
Encoding: 268 268 14
Width: 383
GlyphClass: 2
Flags: W
HStem: -10 100<154.21 242.924> 610 100<154.21 242.924>
VStem: 34 110<101.801 598.199> 254 104<101.801 261 464 598.199>
AnchorPoint: "Anchor-4" 193 862 basechar 0
AnchorPoint: "Anchor-2" 197 0 basechar 0
LayerCount: 2
Fore
SplineSet
141 747 m 1
 59 862 l 1
 142 862 l 1
 193 807 l 1
 244 862 l 1
 327 862 l 1
 245 747 l 1
 141 747 l 1
196 -10 m 0
 90 -10 34 54 34 162 c 2
 34 538 l 2
 34 646 90 710 196 710 c 0
 302 710 358 646 358 538 c 2
 358 464 l 1
 254 464 l 1
 254 545 l 2
 254 591 232 610 199 610 c 0
 166 610 144 591 144 545 c 2
 144 154 l 2
 144 108 166 90 199 90 c 0
 232 90 254 108 254 154 c 2
 254 261 l 1
 358 261 l 1
 358 162 l 2
 358 54 302 -10 196 -10 c 0
EndSplineSet
EndChar

StartChar: Ccedilla
Encoding: 199 199 15
Width: 383
GlyphClass: 2
Flags: W
HStem: -147 40<168.042 213.983> 610 100<154.21 242.924>
VStem: 34 110<101.987 598.199> 93 74<-106.45 -79> 173 49<-39 -5.92732> 215 76<-106.487 -58.4026> 254 104<102.5 261 464 598.199>
AnchorPoint: "Anchor-4" 193 700 basechar 0
AnchorPoint: "Anchor-2" 197 -147 basechar 0
LayerCount: 2
Fore
SplineSet
358 464 m 1xea
 254 464 l 1
 254 545 l 2
 254 591 232 610 199 610 c 0
 166 610 144 591 144 545 c 2
 144 154 l 2
 144 108 166 90 199 90 c 0
 232 90 254 108 254 154 c 2
 254 261 l 1
 358 261 l 1
 358 162 l 2
 358 63 311 1 222 -9 c 1
 222 -39 l 1xea
 266 -39 291 -51 291 -86 c 0
 291 -140 249 -147 189 -147 c 0
 134 -147 93 -135 93 -89 c 2
 93 -79 l 1
 167 -79 l 1
 167 -87 l 2
 167 -102 178 -107 189 -107 c 0
 207 -107 215 -100 215 -83 c 0xd4
 215 -64 203 -57 178 -57 c 2
 173 -57 l 1
 173 -9 l 1
 82 0 34 62 34 162 c 2
 34 538 l 2
 34 646 90 710 196 710 c 0
 302 710 358 646 358 538 c 2
 358 464 l 1xea
EndSplineSet
EndChar

StartChar: Ccircumflex
Encoding: 264 264 16
Width: 383
GlyphClass: 2
Flags: W
HStem: -10 100<154.21 242.924> 610 100<154.21 242.924>
VStem: 34 110<101.801 598.199> 254 104<101.801 261 464 598.199>
AnchorPoint: "Anchor-4" 193 862 basechar 0
AnchorPoint: "Anchor-2" 197 0 basechar 0
LayerCount: 2
Fore
SplineSet
59 747 m 1
 141 862 l 1
 245 862 l 1
 327 747 l 1
 244 747 l 1
 193 802 l 1
 142 747 l 1
 59 747 l 1
196 -10 m 0
 90 -10 34 54 34 162 c 2
 34 538 l 2
 34 646 90 710 196 710 c 0
 302 710 358 646 358 538 c 2
 358 464 l 1
 254 464 l 1
 254 545 l 2
 254 591 232 610 199 610 c 0
 166 610 144 591 144 545 c 2
 144 154 l 2
 144 108 166 90 199 90 c 0
 232 90 254 108 254 154 c 2
 254 261 l 1
 358 261 l 1
 358 162 l 2
 358 54 302 -10 196 -10 c 0
EndSplineSet
EndChar

StartChar: Cdotaccent
Encoding: 266 266 17
Width: 383
GlyphClass: 2
Flags: W
HStem: -10 100<154.21 242.924> 610 100<154.21 242.924> 747 102<143 243>
VStem: 34 110<101.801 598.199> 143 100<747 849> 254 104<101.801 261 464 598.199>
AnchorPoint: "Anchor-4" 193 849 basechar 0
AnchorPoint: "Anchor-2" 197 0 basechar 0
LayerCount: 2
Fore
SplineSet
143 747 m 1xec
 143 849 l 1
 243 849 l 1
 243 747 l 1
 143 747 l 1xec
196 -10 m 0
 90 -10 34 54 34 162 c 2
 34 538 l 2
 34 646 90 710 196 710 c 0
 302 710 358 646 358 538 c 2
 358 464 l 1
 254 464 l 1
 254 545 l 2
 254 591 232 610 199 610 c 0
 166 610 144 591 144 545 c 2
 144 154 l 2xf4
 144 108 166 90 199 90 c 0
 232 90 254 108 254 154 c 2
 254 261 l 1
 358 261 l 1
 358 162 l 2
 358 54 302 -10 196 -10 c 0
EndSplineSet
EndChar

StartChar: D
Encoding: 68 68 18
Width: 406
GlyphClass: 2
Flags: W
HStem: 0 100<151 252.09> 600 100<151 252.09>
VStem: 41 110<100 600> 263 110<111.147 588.853>
AnchorPoint: "Anchor-5" 101 360 basechar 0
AnchorPoint: "Anchor-4" 195 700 basechar 0
AnchorPoint: "Anchor-2" 204 0 basechar 0
LayerCount: 2
Fore
SplineSet
41 0 m 1
 41 700 l 1
 209 700 l 2
 319 700 373 639 373 527 c 2
 373 173 l 2
 373 61 319 0 209 0 c 2
 41 0 l 1
151 100 m 1
 207 100 l 2
 242 100 263 118 263 168 c 2
 263 532 l 2
 263 582 242 600 207 600 c 2
 151 600 l 1
 151 100 l 1
EndSplineSet
EndChar

StartChar: Eth
Encoding: 208 208 19
Width: 423
GlyphClass: 2
Flags: W
HStem: 0 100<168 269.09> 318 94<10 58 168 224> 600 100<168 269.09>
VStem: 58 110<100 318 412 600> 280 110<111.147 588.853>
AnchorPoint: "Anchor-5" 118 360 basechar 0
AnchorPoint: "Anchor-4" 212 700 basechar 0
AnchorPoint: "Anchor-2" 221 0 basechar 0
LayerCount: 2
Fore
SplineSet
226 700 m 2
 336 700 390 639 390 527 c 2
 390 173 l 2
 390 61 336 0 226 0 c 2
 58 0 l 1
 58 318 l 1
 10 318 l 1
 10 412 l 1
 58 412 l 1
 58 700 l 1
 226 700 l 2
280 168 m 2
 280 532 l 2
 280 582 259 600 224 600 c 2
 168 600 l 1
 168 412 l 1
 224 412 l 1
 224 318 l 1
 168 318 l 1
 168 100 l 1
 224 100 l 2
 259 100 280 118 280 168 c 2
EndSplineSet
EndChar

StartChar: Dcaron
Encoding: 270 270 20
Width: 406
GlyphClass: 2
Flags: W
HStem: 0 100<151 252.09> 600 100<151 252.09>
VStem: 41 110<100 600> 263 110<111.147 588.853>
AnchorPoint: "Anchor-5" 101 360 basechar 0
AnchorPoint: "Anchor-4" 195 862 basechar 0
AnchorPoint: "Anchor-2" 204 0 basechar 0
LayerCount: 2
Fore
SplineSet
143 747 m 1
 61 862 l 1
 144 862 l 1
 195 807 l 1
 246 862 l 1
 329 862 l 1
 247 747 l 1
 143 747 l 1
41 0 m 1
 41 700 l 1
 209 700 l 2
 319 700 373 639 373 527 c 2
 373 173 l 2
 373 61 319 0 209 0 c 2
 41 0 l 1
151 100 m 1
 207 100 l 2
 242 100 263 118 263 168 c 2
 263 532 l 2
 263 582 242 600 207 600 c 2
 151 600 l 1
 151 100 l 1
EndSplineSet
EndChar

StartChar: Dcroat
Encoding: 272 272 21
Width: 423
GlyphClass: 2
Flags: W
HStem: 0 100<168 269.09> 318 94<10 58 168 224> 600 100<168 269.09>
VStem: 58 110<100 318 412 600> 280 110<111.147 588.853>
AnchorPoint: "Anchor-5" 118 360 basechar 0
AnchorPoint: "Anchor-4" 212 700 basechar 0
AnchorPoint: "Anchor-2" 221 0 basechar 0
LayerCount: 2
Fore
SplineSet
226 700 m 2
 336 700 390 639 390 527 c 2
 390 173 l 2
 390 61 336 0 226 0 c 2
 58 0 l 1
 58 318 l 1
 10 318 l 1
 10 412 l 1
 58 412 l 1
 58 700 l 1
 226 700 l 2
280 168 m 2
 280 532 l 2
 280 582 259 600 224 600 c 2
 168 600 l 1
 168 412 l 1
 224 412 l 1
 224 318 l 1
 168 318 l 1
 168 100 l 1
 224 100 l 2
 259 100 280 118 280 168 c 2
EndSplineSet
EndChar

StartChar: uni1E0A
Encoding: 7690 7690 22
Width: 406
GlyphClass: 2
Flags: W
HStem: 0 100<151 252.09> 600 100<151 252.09> 747 102<145 245>
VStem: 41 110<100 600> 145 100<747 849> 263 110<111.147 588.853>
AnchorPoint: "Anchor-5" 101 360 basechar 0
AnchorPoint: "Anchor-4" 195 849 basechar 0
AnchorPoint: "Anchor-2" 204 0 basechar 0
LayerCount: 2
Fore
SplineSet
145 747 m 1xec
 145 849 l 1
 245 849 l 1
 245 747 l 1
 145 747 l 1xec
41 0 m 1xf4
 41 700 l 1
 209 700 l 2
 319 700 373 639 373 527 c 2
 373 173 l 2
 373 61 319 0 209 0 c 2
 41 0 l 1xf4
151 100 m 1
 207 100 l 2
 242 100 263 118 263 168 c 2
 263 532 l 2
 263 582 242 600 207 600 c 2
 151 600 l 1
 151 100 l 1
EndSplineSet
EndChar

StartChar: E
Encoding: 69 69 23
Width: 363
GlyphClass: 2
Flags: W
HStem: 0 100<151 341> 315 100<151 302> 600 100<151 341>
VStem: 41 300<0 100 600 700> 41 110<100 315 415 600>
AnchorPoint: "Anchor-4" 191 700 basechar 0
AnchorPoint: "Anchor-3" 341 0 basechar 0
AnchorPoint: "Anchor-2" 180 0 basechar 0
LayerCount: 2
Fore
SplineSet
41 0 m 1xf0
 41 700 l 1
 341 700 l 1
 341 600 l 1xf0
 151 600 l 1
 151 415 l 1
 302 415 l 1
 302 315 l 1
 151 315 l 1
 151 100 l 1xe8
 341 100 l 1
 341 0 l 1
 41 0 l 1xf0
EndSplineSet
EndChar

StartChar: Edieresis
Encoding: 203 203 24
Width: 363
GlyphClass: 2
Flags: W
HStem: 0 100<151 341> 315 100<151 302> 600 100<151 341> 747 102<65 163 219 317>
VStem: 41 300<0 100 600 700> 41 110<100 315 415 600> 65 98<747 849> 219 98<747 849>
AnchorPoint: "Anchor-4" 191 849 basechar 0
AnchorPoint: "Anchor-3" 341 0 basechar 0
AnchorPoint: "Anchor-2" 180 0 basechar 0
LayerCount: 2
Fore
SplineSet
65 747 m 1xf2
 65 849 l 1
 163 849 l 1
 163 747 l 1
 65 747 l 1xf2
219 747 m 1xf1
 219 849 l 1
 317 849 l 1
 317 747 l 1
 219 747 l 1xf1
41 0 m 1xf8
 41 700 l 1
 341 700 l 1
 341 600 l 1xf8
 151 600 l 1
 151 415 l 1
 302 415 l 1
 302 315 l 1
 151 315 l 1
 151 100 l 1xf4
 341 100 l 1
 341 0 l 1
 41 0 l 1xf8
EndSplineSet
EndChar

StartChar: Edotaccent
Encoding: 278 278 25
Width: 363
GlyphClass: 2
Flags: W
HStem: 0 100<151 341> 315 100<151 302> 600 100<151 341> 747 102<141 241>
VStem: 41 300<0 100 600 700> 41 110<100 315 415 600> 141 100<747 849>
AnchorPoint: "Anchor-4" 191 849 basechar 0
AnchorPoint: "Anchor-3" 341 0 basechar 0
AnchorPoint: "Anchor-2" 180 0 basechar 0
LayerCount: 2
Fore
SplineSet
141 747 m 1xf2
 141 849 l 1
 241 849 l 1
 241 747 l 1
 141 747 l 1xf2
41 0 m 1xf8
 41 700 l 1
 341 700 l 1
 341 600 l 1xf8
 151 600 l 1
 151 415 l 1
 302 415 l 1
 302 315 l 1
 151 315 l 1
 151 100 l 1xf4
 341 100 l 1
 341 0 l 1
 41 0 l 1xf8
EndSplineSet
EndChar

StartChar: Eogonek
Encoding: 280 280 26
Width: 363
GlyphClass: 2
Flags: W
HStem: -147 61<244.883 340.207> 0 100<151 253 280.699 341> 315 100<151 302> 600 100<151 341>
VStem: 41 300<0 100 600 700> 41 110<100 315 415 600> 185 85<-105.5 -33.6506>
AnchorPoint: "Anchor-4" 191 700 basechar 0
AnchorPoint: "Anchor-3" 341 0 basechar 0
AnchorPoint: "Anchor-2" 180 0 basechar 0
LayerCount: 2
Fore
SplineSet
341 600 m 1xf8
 151 600 l 1
 151 415 l 1
 302 415 l 1
 302 315 l 1
 151 315 l 1
 151 100 l 1xf4
 341 100 l 1
 341 0 l 1xf8
 300 0 l 1
 275 -21 270 -44 270 -58 c 0xf2
 270 -77 287 -86 305 -86 c 0
 325 -86 330 -83 341 -80 c 1
 341 -136 l 1xf8
 318 -145 301 -147 273 -147 c 0
 219 -147 185 -126 185 -85 c 0xf2
 185 -53 207 -23 253 0 c 1
 41 0 l 1
 41 700 l 1
 341 700 l 1
 341 600 l 1xf8
EndSplineSet
EndChar

StartChar: F
Encoding: 70 70 27
Width: 344
GlyphClass: 2
Flags: W
HStem: 0 21G<41 151> 305 100<151 293> 600 100<151 332>
VStem: 41 110<0 305 405 600>
AnchorPoint: "Anchor-4" 183 700 basechar 0
AnchorPoint: "Anchor-2" 172 0 basechar 0
LayerCount: 2
Fore
SplineSet
41 0 m 1
 41 700 l 1
 332 700 l 1
 332 600 l 1
 151 600 l 1
 151 405 l 1
 293 405 l 1
 293 305 l 1
 151 305 l 1
 151 0 l 1
 41 0 l 1
EndSplineSet
EndChar

StartChar: uni1E1E
Encoding: 7710 7710 28
Width: 344
GlyphClass: 2
Flags: W
HStem: 0 21G<41 151> 305 100<151 293> 600 100<151 332> 747 102<133 233>
VStem: 41 110<0 305 405 600> 133 100<747 849>
AnchorPoint: "Anchor-4" 183 849 basechar 0
AnchorPoint: "Anchor-2" 172 0 basechar 0
LayerCount: 2
Fore
SplineSet
133 747 m 1xf4
 133 849 l 1
 233 849 l 1
 233 747 l 1
 133 747 l 1xf4
41 0 m 1xf8
 41 700 l 1
 332 700 l 1
 332 600 l 1
 151 600 l 1
 151 405 l 1
 293 405 l 1
 293 305 l 1
 151 305 l 1
 151 0 l 1
 41 0 l 1xf8
EndSplineSet
EndChar

StartChar: G
Encoding: 71 71 29
Width: 391
GlyphClass: 2
Flags: W
HStem: -10 100<153.911 245.256> 295 100<202 257> 610 100<154.302 244.865>
VStem: 33 110<99.8508 596.174> 202 159<295 395> 257 104<99.8508 295 474 596.174>
AnchorPoint: "Anchor-4" 197 700 basechar 0
AnchorPoint: "Anchor-2" 196 0 basechar 0
LayerCount: 2
Fore
SplineSet
197 -10 m 0xf4
 89 -10 33 54 33 166 c 2
 33 534 l 2
 33 646 89 710 197 710 c 0
 305 710 361 646 361 534 c 2
 361 474 l 1
 257 474 l 1
 257 541 l 2
 257 591 235 610 200 610 c 0
 165 610 143 591 143 541 c 2
 143 158 l 2
 143 108 165 90 200 90 c 0
 235 90 257 108 257 158 c 2
 257 295 l 1xf4
 202 295 l 1
 202 395 l 1
 361 395 l 1xf8
 361 166 l 2
 361 54 305 -10 197 -10 c 0xf4
EndSplineSet
EndChar

StartChar: Gbreve
Encoding: 286 286 30
Width: 391
GlyphClass: 2
Flags: W
HStem: -10 100<153.911 245.256> 295 100<202 257> 610 100<154.302 244.865> 743 71<151.987 241.073>
VStem: 33 110<99.8508 596.174> 79 65<820.691 862> 202 159<295 395> 250 65<823.539 862> 257 104<99.8508 295 474 596.174>
AnchorPoint: "Anchor-4" 197 862 basechar 0
AnchorPoint: "Anchor-2" 196 0 basechar 0
LayerCount: 2
Fore
SplineSet
196 743 m 0xf5
 121 743 82 788 79 862 c 1
 144 862 l 1
 149 824 168 814 196 814 c 0
 225 814 245 824 250 862 c 1
 315 862 l 1
 313 788 271 743 196 743 c 0xf5
197 -10 m 0
 89 -10 33 54 33 166 c 2
 33 534 l 2
 33 646 89 710 197 710 c 0
 305 710 361 646 361 534 c 2
 361 474 l 1
 257 474 l 1
 257 541 l 2
 257 591 235 610 200 610 c 0
 165 610 143 591 143 541 c 2
 143 158 l 2
 143 108 165 90 200 90 c 0
 235 90 257 108 257 158 c 2
 257 295 l 1xf880
 202 295 l 1
 202 395 l 1
 361 395 l 1xf2
 361 166 l 2xf080
 361 54 305 -10 197 -10 c 0
EndSplineSet
EndChar

StartChar: Gcircumflex
Encoding: 284 284 31
Width: 391
GlyphClass: 2
Flags: W
HStem: -10 100<153.911 245.256> 295 100<202 257> 610 100<154.302 244.865>
VStem: 33 110<99.8508 596.174> 202 159<295 395> 257 104<99.8508 295 474 596.174>
AnchorPoint: "Anchor-4" 197 862 basechar 0
AnchorPoint: "Anchor-2" 196 0 basechar 0
LayerCount: 2
Fore
SplineSet
63 747 m 1xf0
 145 862 l 1
 249 862 l 1
 331 747 l 1
 248 747 l 1
 197 802 l 1
 146 747 l 1
 63 747 l 1xf0
197 -10 m 0
 89 -10 33 54 33 166 c 2
 33 534 l 2
 33 646 89 710 197 710 c 0
 305 710 361 646 361 534 c 2
 361 474 l 1
 257 474 l 1
 257 541 l 2
 257 591 235 610 200 610 c 0
 165 610 143 591 143 541 c 2
 143 158 l 2
 143 108 165 90 200 90 c 0
 235 90 257 108 257 158 c 2
 257 295 l 1xf4
 202 295 l 1
 202 395 l 1
 361 395 l 1xf8
 361 166 l 2xf4
 361 54 305 -10 197 -10 c 0
EndSplineSet
EndChar

StartChar: uni0122
Encoding: 290 290 32
Width: 391
GlyphClass: 2
Flags: W
HStem: -135 92<150 186> -10 100<153.911 245.256> 295 100<202 257> 610 100<154.302 244.865>
VStem: 33 110<99.8508 596.174> 150 92<-125 -43> 202 159<295 395> 257 104<99.8508 295 474 596.174>
AnchorPoint: "Anchor-4" 197 700 basechar 0
AnchorPoint: "Anchor-2" 196 -189 basechar 0
LayerCount: 2
Fore
SplineSet
197 -10 m 0xf9
 89 -10 33 54 33 166 c 2
 33 534 l 2
 33 646 89 710 197 710 c 0
 305 710 361 646 361 534 c 2
 361 474 l 1
 257 474 l 1
 257 541 l 2
 257 591 235 610 200 610 c 0
 165 610 143 591 143 541 c 2
 143 158 l 2
 143 108 165 90 200 90 c 0
 235 90 257 108 257 158 c 2
 257 295 l 1xf9
 202 295 l 1
 202 395 l 1
 361 395 l 1xfa
 361 166 l 2
 361 54 305 -10 197 -10 c 0xf9
160 -189 m 1
 186 -135 l 1
 150 -135 l 1
 150 -43 l 1
 242 -43 l 1
 242 -125 l 1xfc
 199 -189 l 1
 160 -189 l 1
EndSplineSet
EndChar

StartChar: Gdotaccent
Encoding: 288 288 33
Width: 391
GlyphClass: 2
Flags: W
HStem: -10 100<153.911 245.256> 295 100<202 257> 610 100<154.302 244.865> 747 102<147 247>
VStem: 33 110<99.8508 596.174> 147 100<747 849> 202 159<295 395> 257 104<99.8508 295 474 596.174>
AnchorPoint: "Anchor-4" 197 849 basechar 0
AnchorPoint: "Anchor-2" 196 0 basechar 0
LayerCount: 2
Fore
SplineSet
147 747 m 1xfc
 147 849 l 1
 247 849 l 1
 247 747 l 1
 147 747 l 1xfc
197 -10 m 0
 89 -10 33 54 33 166 c 2
 33 534 l 2
 33 646 89 710 197 710 c 0
 305 710 361 646 361 534 c 2
 361 474 l 1
 257 474 l 1
 257 541 l 2
 257 591 235 610 200 610 c 0
 165 610 143 591 143 541 c 2
 143 158 l 2
 143 108 165 90 200 90 c 0
 235 90 257 108 257 158 c 2
 257 295 l 1xf9
 202 295 l 1
 202 395 l 1
 361 395 l 1xfa
 361 166 l 2xf9
 361 54 305 -10 197 -10 c 0
EndSplineSet
EndChar

StartChar: H
Encoding: 72 72 34
Width: 420
GlyphClass: 2
Flags: W
HStem: 0 21G<41 151 269 379> 315 100<151 269> 680 20G<41 151 269 379>
VStem: 41 110<0 315 415 700> 269 110<0 315 415 700>
AnchorPoint: "Anchor-5" 210 542 basechar 0
AnchorPoint: "Anchor-4" 210 700 basechar 0
AnchorPoint: "Anchor-2" 210 0 basechar 0
LayerCount: 2
Fore
SplineSet
41 0 m 1
 41 700 l 1
 151 700 l 1
 151 415 l 1
 269 415 l 1
 269 700 l 1
 379 700 l 1
 379 0 l 1
 269 0 l 1
 269 315 l 1
 151 315 l 1
 151 0 l 1
 41 0 l 1
EndSplineSet
EndChar

StartChar: Hbar
Encoding: 294 294 35
Width: 438
GlyphClass: 2
Flags: W
HStem: 0 21G<50 160 278 388> 315 100<160 278> 513 90<10 50 160 278 388 428> 680 20G<50 160 278 388>
VStem: 50 110<0 315 415 513 603 700> 278 110<0 315 415 513 603 700>
AnchorPoint: "Anchor-5" 219 542 basechar 0
AnchorPoint: "Anchor-4" 219 700 basechar 0
AnchorPoint: "Anchor-2" 219 0 basechar 0
LayerCount: 2
Fore
SplineSet
428 603 m 1
 428 513 l 1
 388 513 l 1
 388 0 l 1
 278 0 l 1
 278 315 l 1
 160 315 l 1
 160 0 l 1
 50 0 l 1
 50 513 l 1
 10 513 l 1
 10 603 l 1
 50 603 l 1
 50 700 l 1
 160 700 l 1
 160 603 l 1
 278 603 l 1
 278 700 l 1
 388 700 l 1
 388 603 l 1
 428 603 l 1
278 415 m 1
 278 513 l 1
 160 513 l 1
 160 415 l 1
 278 415 l 1
EndSplineSet
EndChar

StartChar: Hcircumflex
Encoding: 292 292 36
Width: 420
GlyphClass: 2
Flags: W
HStem: 0 21G<41 151 269 379> 315 100<151 269> 680 20G<41 151 269 379>
VStem: 41 110<0 315 415 700> 269 110<0 315 415 700>
AnchorPoint: "Anchor-5" 210 542 basechar 0
AnchorPoint: "Anchor-4" 210 862 basechar 0
AnchorPoint: "Anchor-2" 210 0 basechar 0
LayerCount: 2
Fore
SplineSet
76 747 m 1
 158 862 l 1
 262 862 l 1
 344 747 l 1
 261 747 l 1
 210 802 l 1
 159 747 l 1
 76 747 l 1
41 0 m 1
 41 700 l 1
 151 700 l 1
 151 415 l 1
 269 415 l 1
 269 700 l 1
 379 700 l 1
 379 0 l 1
 269 0 l 1
 269 315 l 1
 151 315 l 1
 151 0 l 1
 41 0 l 1
EndSplineSet
EndChar

StartChar: I
Encoding: 73 73 37
Width: 192
GlyphClass: 2
Flags: W
HStem: 0 21G<41 151> 680 20G<41 151>
VStem: 41 110<0 700>
AnchorPoint: "Anchor-4" 96 700 basechar 0
AnchorPoint: "Anchor-3" 173 0 basechar 0
AnchorPoint: "Anchor-2" 96 0 basechar 0
LayerCount: 2
Fore
SplineSet
41 0 m 1
 41 700 l 1
 151 700 l 1
 151 0 l 1
 41 0 l 1
EndSplineSet
EndChar

StartChar: IJ
Encoding: 306 306 38
Width: 457
GlyphClass: 2
Flags: W
HStem: -4 100<208 297.26> 680 20G<41 151 309 419>
VStem: 41 110<0 700> 309 110<107.608 700>
AnchorPoint: "Anchor-4" 349 700 basechar 0
AnchorPoint: "Anchor-3" 173 0 basechar 0
AnchorPoint: "Anchor-2" 327 0 basechar 0
LayerCount: 2
Fore
SplineSet
41 0 m 1
 41 700 l 1
 151 700 l 1
 151 0 l 1
 41 0 l 1
259 -4 m 0
 239 -4 224 -3 208 0 c 1
 208 100 l 1
 220 97 232 96 244 96 c 0
 288 96 309 117 309 163 c 2
 309 700 l 1
 419 700 l 1
 419 166 l 2
 419 51 367 -4 259 -4 c 0
EndSplineSet
EndChar

StartChar: Idieresis
Encoding: 207 207 39
Width: 192
GlyphClass: 2
Flags: W
HStem: 0 21G<41 151> 680 20G<41 151> 747 102<-30 68 124 222>
VStem: -30 98<747 849> 41 110<0 700> 124 98<747 849>
AnchorPoint: "Anchor-4" 96 849 basechar 0
AnchorPoint: "Anchor-3" 173 0 basechar 0
AnchorPoint: "Anchor-2" 96 0 basechar 0
LayerCount: 2
Fore
SplineSet
-30 747 m 1xf0
 -30 849 l 1
 68 849 l 1
 68 747 l 1
 -30 747 l 1xf0
124 747 m 1xe4
 124 849 l 1
 222 849 l 1
 222 747 l 1
 124 747 l 1xe4
41 0 m 1xe8
 41 700 l 1
 151 700 l 1
 151 0 l 1
 41 0 l 1xe8
EndSplineSet
EndChar

StartChar: Idotaccent
Encoding: 304 304 40
Width: 192
GlyphClass: 2
Flags: W
HStem: 0 21G<41 151> 680 20G<41 151> 747 102<46 146>
VStem: 41 110<0 700 747 849>
AnchorPoint: "Anchor-4" 96 849 basechar 0
AnchorPoint: "Anchor-3" 173 0 basechar 0
AnchorPoint: "Anchor-2" 96 0 basechar 0
LayerCount: 2
Fore
SplineSet
46 747 m 1
 46 849 l 1
 146 849 l 1
 146 747 l 1
 46 747 l 1
41 0 m 1
 41 700 l 1
 151 700 l 1
 151 0 l 1
 41 0 l 1
EndSplineSet
EndChar

StartChar: Iogonek
Encoding: 302 302 41
Width: 192
GlyphClass: 2
Flags: W
HStem: -147 61<76.8828 172.207> 680 20G<41 151>
VStem: 17 85<-105.5 -33.6506> 41 110<0 700>
AnchorPoint: "Anchor-4" 96 700 basechar 0
AnchorPoint: "Anchor-3" 173 0 basechar 0
AnchorPoint: "Anchor-2" 96 0 basechar 0
LayerCount: 2
Fore
SplineSet
137 -86 m 0xe0
 157 -86 162 -83 173 -80 c 1
 173 -136 l 1
 150 -145 133 -147 105 -147 c 0
 51 -147 17 -126 17 -85 c 0xe0
 17 -53 39 -23 85 0 c 1
 41 0 l 1
 41 700 l 1
 151 700 l 1
 151 0 l 1xd0
 132 0 l 1
 107 -21 102 -44 102 -58 c 0
 102 -77 119 -86 137 -86 c 0xe0
EndSplineSet
EndChar

StartChar: Itilde
Encoding: 296 296 42
Width: 192
GlyphClass: 2
Flags: W
HStem: 0 21G<41 151> 680 20G<41 151> 750 77<92.0421 172.406> 782 77<19.5943 99.9579>
VStem: 41 110<0 700>
AnchorPoint: "Anchor-4" 96 866 basechar 0
AnchorPoint: "Anchor-3" 173 0 basechar 0
AnchorPoint: "Anchor-2" 96 0 basechar 0
LayerCount: 2
Fore
SplineSet
10 743 m 1xd8
 -43 775 l 1
 -18 831 10 859 48 859 c 0xd8
 75 859 93 849 108 840 c 0
 120 833 130 827 142 827 c 0
 158 827 169 838 182 866 c 1
 235 834 l 1
 210 778 182 750 144 750 c 0xe8
 117 750 99 760 84 769 c 0
 72 776 62 782 50 782 c 0
 34 782 23 771 10 743 c 1xd8
41 0 m 1
 41 700 l 1
 151 700 l 1
 151 0 l 1
 41 0 l 1
EndSplineSet
EndChar

StartChar: J
Encoding: 74 74 43
Width: 265
GlyphClass: 2
Flags: W
HStem: -4 100<16 105.26> 680 20G<117 227>
VStem: 117 110<107.608 700>
AnchorPoint: "Anchor-4" 157 700 basechar 0
AnchorPoint: "Anchor-2" 135 0 basechar 0
LayerCount: 2
Fore
SplineSet
67 -4 m 0
 47 -4 32 -3 16 0 c 1
 16 100 l 1
 28 97 40 96 52 96 c 0
 96 96 117 117 117 163 c 2
 117 700 l 1
 227 700 l 1
 227 166 l 2
 227 51 175 -4 67 -4 c 0
EndSplineSet
Substitution2: "Single Substitution lookup 24 subtable" uni00A40301
Substitution2: "'aalt' Access All Alternates in Latin lookup 0 subtable" uni00A40301
EndChar

StartChar: uni00A40301
Encoding: 65538 -1 44
Width: 265
GlyphClass: 2
Flags: W
HStem: -4 100<16 105.26> 680 20G<117 227>
VStem: 117 110<107.608 700>
AnchorPoint: "Anchor-4" 157 862 basechar 0
AnchorPoint: "Anchor-2" 135 0 basechar 0
LayerCount: 2
Fore
SplineSet
97 747 m 1
 167 862 l 1
 287 862 l 1
 180 747 l 1
 97 747 l 1
67 -4 m 0
 47 -4 32 -3 16 0 c 1
 16 100 l 1
 28 97 40 96 52 96 c 0
 96 96 117 117 117 163 c 2
 117 700 l 1
 227 700 l 1
 227 166 l 2
 227 51 175 -4 67 -4 c 0
EndSplineSet
EndChar

StartChar: Jcircumflex
Encoding: 308 308 45
Width: 265
GlyphClass: 2
Flags: W
HStem: -4 100<16 105.26> 680 20G<117 227>
VStem: 117 110<107.608 700>
AnchorPoint: "Anchor-4" 157 862 basechar 0
AnchorPoint: "Anchor-2" 135 0 basechar 0
LayerCount: 2
Fore
SplineSet
23 747 m 1
 105 862 l 1
 209 862 l 1
 291 747 l 1
 208 747 l 1
 157 802 l 1
 106 747 l 1
 23 747 l 1
67 -4 m 0
 47 -4 32 -3 16 0 c 1
 16 100 l 1
 28 97 40 96 52 96 c 0
 96 96 117 117 117 163 c 2
 117 700 l 1
 227 700 l 1
 227 166 l 2
 227 51 175 -4 67 -4 c 0
EndSplineSet
EndChar

StartChar: K
Encoding: 75 75 46
Width: 414
GlyphClass: 2
Flags: W
HStem: 0 21G<41 151 282.038 403> 680 20G<41 151 281.508 401>
VStem: 41 110<0 223 405 700>
AnchorPoint: "Anchor-4" 207 700 basechar 0
AnchorPoint: "Anchor-2" 217 0 basechar 0
LayerCount: 2
Fore
SplineSet
41 0 m 1
 41 700 l 1
 151 700 l 1
 151 405 l 1
 291 700 l 1
 401 700 l 1
 270 443 l 1
 403 0 l 1
 288 0 l 1
 195 312 l 1
 151 223 l 1
 151 0 l 1
 41 0 l 1
EndSplineSet
EndChar

StartChar: uni0136
Encoding: 310 310 47
Width: 414
GlyphClass: 2
Flags: W
HStem: -135 92<171 207> 0 21G<41 151 282.038 403> 680 20G<41 151 281.508 401>
VStem: 41 110<0 223 405 700> 171 92<-125 -43>
AnchorPoint: "Anchor-4" 207 700 basechar 0
AnchorPoint: "Anchor-2" 217 -189 basechar 0
LayerCount: 2
Fore
SplineSet
41 0 m 1
 41 700 l 1
 151 700 l 1
 151 405 l 1
 291 700 l 1
 401 700 l 1
 270 443 l 1
 403 0 l 1
 288 0 l 1
 195 312 l 1
 151 223 l 1
 151 0 l 1
 41 0 l 1
181 -189 m 1
 207 -135 l 1
 171 -135 l 1
 171 -43 l 1
 263 -43 l 1
 263 -125 l 1
 220 -189 l 1
 181 -189 l 1
EndSplineSet
EndChar

StartChar: L
Encoding: 76 76 48
Width: 344
GlyphClass: 2
Flags: W
HStem: 0 100<151 332> 680 20G<41 151>
VStem: 41 110<100 700>
AnchorPoint: "Anchor-6" 260 700 basechar 0
AnchorPoint: "Anchor-5" 172 350 basechar 0
AnchorPoint: "Anchor-4" 106 700 basechar 0
AnchorPoint: "Anchor-2" 187 0 basechar 0
LayerCount: 2
Fore
SplineSet
41 0 m 1
 41 700 l 1
 151 700 l 1
 151 100 l 1
 332 100 l 1
 332 0 l 1
 41 0 l 1
EndSplineSet
EndChar

StartChar: Lacute
Encoding: 313 313 49
Width: 344
GlyphClass: 2
Flags: W
HStem: 0 100<151 332> 680 20G<41 151>
VStem: 41 110<100 700>
AnchorPoint: "Anchor-6" 260 700 basechar 0
AnchorPoint: "Anchor-5" 172 350 basechar 0
AnchorPoint: "Anchor-4" 106 862 basechar 0
AnchorPoint: "Anchor-2" 187 0 basechar 0
LayerCount: 2
Fore
SplineSet
46 747 m 1
 116 862 l 1
 236 862 l 1
 129 747 l 1
 46 747 l 1
41 0 m 1
 41 700 l 1
 151 700 l 1
 151 100 l 1
 332 100 l 1
 332 0 l 1
 41 0 l 1
EndSplineSet
EndChar

StartChar: Lcaron
Encoding: 317 317 50
Width: 344
GlyphClass: 2
Flags: W
HStem: 0 100<151 332> 598 102<209 249>
VStem: 41 110<100 700> 209 102<609 700>
AnchorPoint: "Anchor-6" 260 700 basechar 0
AnchorPoint: "Anchor-5" 172 350 basechar 0
AnchorPoint: "Anchor-4" 106 700 basechar 0
AnchorPoint: "Anchor-2" 187 0 basechar 0
LayerCount: 2
Fore
SplineSet
41 0 m 1
 41 700 l 1
 151 700 l 1
 151 100 l 1
 332 100 l 1
 332 0 l 1
 41 0 l 1
220 494 m 1
 249 598 l 1
 209 598 l 1
 209 700 l 1
 311 700 l 1
 311 609 l 1
 265 494 l 1
 220 494 l 1
EndSplineSet
EndChar

StartChar: uni013B
Encoding: 315 315 51
Width: 344
GlyphClass: 2
Flags: W
HStem: -135 92<141 177> 0 100<151 332> 680 20G<41 151>
VStem: 41 110<100 700> 141 92<-125 -43>
AnchorPoint: "Anchor-6" 260 700 basechar 0
AnchorPoint: "Anchor-5" 172 350 basechar 0
AnchorPoint: "Anchor-4" 106 700 basechar 0
AnchorPoint: "Anchor-2" 187 -189 basechar 0
LayerCount: 2
Fore
SplineSet
41 0 m 1xf0
 41 700 l 1
 151 700 l 1
 151 100 l 1
 332 100 l 1
 332 0 l 1
 41 0 l 1xf0
151 -189 m 1
 177 -135 l 1
 141 -135 l 1
 141 -43 l 1
 233 -43 l 1
 233 -125 l 1xe8
 190 -189 l 1
 151 -189 l 1
EndSplineSet
EndChar

StartChar: Ldot
Encoding: 319 319 52
Width: 343
GlyphClass: 2
Flags: W
HStem: 0 100<151 332> 297 106<214 320> 680 20G<41 151>
VStem: 41 110<100 700> 214 106<297 403>
AnchorPoint: "Anchor-6" 260 700 basechar 0
AnchorPoint: "Anchor-5" 172 350 basechar 0
AnchorPoint: "Anchor-4" 106 700 basechar 0
AnchorPoint: "Anchor-2" 187 0 basechar 0
LayerCount: 2
Fore
SplineSet
41 0 m 1
 41 700 l 1
 151 700 l 1
 151 100 l 1
 332 100 l 1
 332 0 l 1
 41 0 l 1
214 297 m 1
 214 403 l 1
 320 403 l 1
 320 297 l 1
 214 297 l 1
EndSplineSet
Ligature2: "Ligature Substitution lookup 25 subtable" L periodcentered
EndChar

StartChar: Lslash
Encoding: 321 321 53
Width: 364
GlyphClass: 2
Flags: W
HStem: 0 100<171 352> 680 20G<61 171>
VStem: 61 110<100 160 398 700>
AnchorPoint: "Anchor-6" 280 700 basechar 0
AnchorPoint: "Anchor-5" 192 350 basechar 0
AnchorPoint: "Anchor-4" 126 700 basechar 0
AnchorPoint: "Anchor-2" 207 0 basechar 0
LayerCount: 2
Fore
SplineSet
171 100 m 1
 352 100 l 1
 352 0 l 1
 61 0 l 1
 61 160 l 1
 10 105 l 1
 10 225 l 1
 61 280 l 1
 61 700 l 1
 171 700 l 1
 171 398 l 1
 290 525 l 1
 290 405 l 1
 171 278 l 1
 171 100 l 1
EndSplineSet
EndChar

StartChar: M
Encoding: 77 77 54
Width: 538
GlyphClass: 2
Flags: W
HStem: 0 21G<41 137 215.981 314.019 393 497> 680 20G<41 200.794 337.206 497>
VStem: 41 96<0 530> 393 104<0 530>
AnchorPoint: "Anchor-4" 269 700 basechar 0
AnchorPoint: "Anchor-2" 269 0 basechar 0
LayerCount: 2
Fore
SplineSet
41 0 m 1
 41 700 l 1
 198 700 l 1
 268 199 l 1
 270 199 l 1
 340 700 l 1
 497 700 l 1
 497 0 l 1
 393 0 l 1
 393 530 l 1
 391 530 l 1
 311 0 l 1
 219 0 l 1
 139 530 l 1
 137 530 l 1
 137 0 l 1
 41 0 l 1
EndSplineSet
EndChar

StartChar: uni1E40
Encoding: 7744 7744 55
Width: 538
GlyphClass: 2
Flags: W
HStem: 0 21G<41 137 215.981 314.019 393 497> 680 20G<41 200.794 337.206 497> 747 102<219 319>
VStem: 41 96<0 530> 219 100<747 849> 393 104<0 530>
AnchorPoint: "Anchor-4" 269 849 basechar 0
AnchorPoint: "Anchor-2" 269 0 basechar 0
LayerCount: 2
Fore
SplineSet
219 747 m 1
 219 849 l 1
 319 849 l 1
 319 747 l 1
 219 747 l 1
41 0 m 1
 41 700 l 1
 198 700 l 1
 268 199 l 1
 270 199 l 1
 340 700 l 1
 497 700 l 1
 497 0 l 1
 393 0 l 1
 393 530 l 1
 391 530 l 1
 311 0 l 1
 219 0 l 1
 139 530 l 1
 137 530 l 1
 137 0 l 1
 41 0 l 1
EndSplineSet
EndChar

StartChar: N
Encoding: 78 78 56
Width: 427
GlyphClass: 2
Flags: W
HStem: 0 21G<41 139 267.834 386> 680 20G<41 184.107 288 386>
VStem: 41 98<0 511> 288 98<281 700>
AnchorPoint: "Anchor-4" 214 700 basechar 0
AnchorPoint: "Anchor-2" 214 0 basechar 0
LayerCount: 2
Fore
SplineSet
41 0 m 1
 41 700 l 1
 179 700 l 1
 286 281 l 1
 288 281 l 1
 288 700 l 1
 386 700 l 1
 386 0 l 1
 273 0 l 1
 141 511 l 1
 139 511 l 1
 139 0 l 1
 41 0 l 1
EndSplineSet
EndChar

StartChar: uni0145
Encoding: 325 325 57
Width: 427
GlyphClass: 2
Flags: W
HStem: -135 92<168 204> 0 21G<41 139 267.834 386> 680 20G<41 184.107 288 386>
VStem: 41 98<0 511> 168 92<-125 -43> 288 98<281 700>
AnchorPoint: "Anchor-4" 214 700 basechar 0
AnchorPoint: "Anchor-2" 214 -189 basechar 0
LayerCount: 2
Fore
SplineSet
41 0 m 1
 41 700 l 1
 179 700 l 1
 286 281 l 1
 288 281 l 1
 288 700 l 1
 386 700 l 1
 386 0 l 1
 273 0 l 1
 141 511 l 1
 139 511 l 1
 139 0 l 1
 41 0 l 1
178 -189 m 1
 204 -135 l 1
 168 -135 l 1
 168 -43 l 1
 260 -43 l 1
 260 -125 l 1
 217 -189 l 1
 178 -189 l 1
EndSplineSet
EndChar

StartChar: Eng
Encoding: 330 330 58
Width: 427
GlyphClass: 2
Flags: W
HStem: -170 95<189 269.522> 0 21G<41 139> 680 20G<41 184.404 288 386>
VStem: 41 98<0 523> 288 98<304 700>
AnchorPoint: "Anchor-4" 214 700 basechar 0
AnchorPoint: "Anchor-2" 214 0 basechar 0
LayerCount: 2
Fore
SplineSet
238 -170 m 0
 220 -170 205 -169 189 -166 c 1
 189 -71 l 1
 201 -74 213 -75 228 -75 c 0
 254 -75 280 -61 280 -18 c 0
 280 4 278 18 270 46 c 2
 141 523 l 1
 139 523 l 1
 139 0 l 1
 41 0 l 1
 41 700 l 1
 179 700 l 1
 286 304 l 1
 288 304 l 1
 288 700 l 1
 386 700 l 1
 386 -2 l 2
 386 -115 334 -170 238 -170 c 0
EndSplineSet
EndChar

StartChar: Ntilde
Encoding: 209 209 59
Width: 427
GlyphClass: 2
Flags: W
HStem: 0 21G<41 139 267.834 386> 680 20G<41 184.107 288 386> 750 77<210.042 290.406> 782 77<137.594 217.958>
VStem: 41 98<0 511> 288 98<281 700>
AnchorPoint: "Anchor-4" 214 866 basechar 0
AnchorPoint: "Anchor-2" 214 0 basechar 0
LayerCount: 2
Fore
SplineSet
128 743 m 1xdc
 75 775 l 1
 100 831 128 859 166 859 c 0xdc
 193 859 211 849 226 840 c 0
 238 833 248 827 260 827 c 0
 276 827 287 838 300 866 c 1
 353 834 l 1
 328 778 300 750 262 750 c 0xec
 235 750 217 760 202 769 c 0
 190 776 180 782 168 782 c 0
 152 782 141 771 128 743 c 1xdc
41 0 m 1
 41 700 l 1
 179 700 l 1
 286 281 l 1
 288 281 l 1
 288 700 l 1
 386 700 l 1
 386 0 l 1
 273 0 l 1
 141 511 l 1
 139 511 l 1
 139 0 l 1
 41 0 l 1
EndSplineSet
EndChar

StartChar: O
Encoding: 79 79 60
Width: 400
GlyphClass: 2
Flags: W
HStem: -10 100<155.722 244.278> 610 100<155.722 244.278>
VStem: 33 110<103.826 596.174> 257 110<103.826 596.174>
AnchorPoint: "Anchor-6" 379 700 basechar 0
AnchorPoint: "Anchor-5" 200 350 basechar 0
AnchorPoint: "Anchor-4" 200 700 basechar 0
AnchorPoint: "Anchor-3" 359 10 basechar 0
AnchorPoint: "Anchor-2" 200 0 basechar 0
LayerCount: 2
Fore
SplineSet
200 -10 m 0
 92 -10 33 54 33 166 c 2
 33 534 l 2
 33 646 92 710 200 710 c 0
 308 710 367 646 367 534 c 2
 367 166 l 2
 367 54 308 -10 200 -10 c 0
200 90 m 0
 235 90 257 109 257 159 c 2
 257 541 l 2
 257 591 235 610 200 610 c 0
 165 610 143 591 143 541 c 2
 143 159 l 2
 143 109 165 90 200 90 c 0
EndSplineSet
Substitution2: "Single Substitution lookup 27 subtable" ordmasculine
Substitution2: "'aalt' Access All Alternates in Latin lookup 0 subtable" ordmasculine
EndChar

StartChar: Odieresis
Encoding: 214 214 61
Width: 400
GlyphClass: 2
Flags: W
HStem: -10 100<155.722 244.278> 610 100<155.722 244.278> 747 102<74 172 228 326>
VStem: 33 110<103.826 596.174> 74 98<747 849> 228 98<747 849> 257 110<103.826 596.174>
AnchorPoint: "Anchor-6" 379 700 basechar 0
AnchorPoint: "Anchor-5" 200 350 basechar 0
AnchorPoint: "Anchor-4" 200 849 basechar 0
AnchorPoint: "Anchor-3" 359 10 basechar 0
AnchorPoint: "Anchor-2" 200 0 basechar 0
LayerCount: 2
Fore
SplineSet
74 747 m 1xe8
 74 849 l 1
 172 849 l 1
 172 747 l 1
 74 747 l 1xe8
228 747 m 1xe4
 228 849 l 1
 326 849 l 1
 326 747 l 1
 228 747 l 1xe4
200 -10 m 0
 92 -10 33 54 33 166 c 2
 33 534 l 2
 33 646 92 710 200 710 c 0
 308 710 367 646 367 534 c 2
 367 166 l 2xf2
 367 54 308 -10 200 -10 c 0
200 90 m 0
 235 90 257 109 257 159 c 2
 257 541 l 2
 257 591 235 610 200 610 c 0
 165 610 143 591 143 541 c 2
 143 159 l 2
 143 109 165 90 200 90 c 0
EndSplineSet
EndChar

StartChar: Oslash
Encoding: 216 216 62
Width: 400
GlyphClass: 2
Flags: W
HStem: -10 100<153.974 244.278> 610 100<155.722 246.026>
VStem: 33 110<296 596.174> 257 110<103.826 404>
AnchorPoint: "Anchor-6" 379 700 basechar 0
AnchorPoint: "Anchor-5" 200 350 basechar 0
AnchorPoint: "Anchor-4" 200 700 basechar 0
AnchorPoint: "Anchor-3" 359 10 basechar 0
AnchorPoint: "Anchor-2" 200 0 basechar 0
LayerCount: 2
Fore
SplineSet
377 700 m 1
 348 629 l 1
 361 603 367 571 367 534 c 2
 367 166 l 2
 367 54 308 -10 200 -10 c 0
 160 -10 126 -1 100 16 c 1
 83 -26 l 1
 23 0 l 1
 52 71 l 1
 39 97 33 129 33 166 c 2
 33 534 l 2
 33 646 92 710 200 710 c 0
 240 710 274 701 300 684 c 1
 317 726 l 1
 377 700 l 1
143 541 m 2
 143 296 l 1
 254 570 l 1
 247 599 227 610 200 610 c 0
 165 610 143 591 143 541 c 2
257 159 m 2
 257 404 l 1
 146 130 l 1
 153 101 173 90 200 90 c 0
 235 90 257 109 257 159 c 2
EndSplineSet
EndChar

StartChar: Oslashacute
Encoding: 510 510 63
Width: 400
GlyphClass: 2
Flags: W
HStem: -10 100<153.974 244.278> 610 100<155.722 246.026>
VStem: 33 110<296 596.174> 257 110<103.826 404>
AnchorPoint: "Anchor-6" 379 700 basechar 0
AnchorPoint: "Anchor-5" 200 350 basechar 0
AnchorPoint: "Anchor-4" 200 862 basechar 0
AnchorPoint: "Anchor-3" 359 10 basechar 0
AnchorPoint: "Anchor-2" 200 0 basechar 0
LayerCount: 2
Fore
SplineSet
330 862 m 1
 223 747 l 1
 140 747 l 1
 210 862 l 1
 330 862 l 1
377 700 m 1
 348 629 l 1
 361 603 367 571 367 534 c 2
 367 166 l 2
 367 54 308 -10 200 -10 c 0
 160 -10 126 -1 100 16 c 1
 83 -26 l 1
 23 0 l 1
 52 71 l 1
 39 97 33 129 33 166 c 2
 33 534 l 2
 33 646 92 710 200 710 c 0
 240 710 274 701 300 684 c 1
 317 726 l 1
 377 700 l 1
143 541 m 2
 143 296 l 1
 254 570 l 1
 247 599 227 610 200 610 c 0
 165 610 143 591 143 541 c 2
257 159 m 2
 257 404 l 1
 146 130 l 1
 153 101 173 90 200 90 c 0
 235 90 257 109 257 159 c 2
EndSplineSet
EndChar

StartChar: Otilde
Encoding: 213 213 64
Width: 400
GlyphClass: 2
Flags: W
HStem: -10 100<155.722 244.278> 610 100<155.722 244.278> 750 77<196.042 276.406> 782 77<123.594 203.958>
VStem: 33 110<103.826 596.174> 257 110<103.826 596.174>
AnchorPoint: "Anchor-6" 379 700 basechar 0
AnchorPoint: "Anchor-5" 200 350 basechar 0
AnchorPoint: "Anchor-4" 200 866 basechar 0
AnchorPoint: "Anchor-3" 359 10 basechar 0
AnchorPoint: "Anchor-2" 200 0 basechar 0
LayerCount: 2
Fore
SplineSet
114 743 m 1xdc
 61 775 l 1
 86 831 114 859 152 859 c 0xdc
 179 859 197 849 212 840 c 0
 224 833 234 827 246 827 c 0
 262 827 273 838 286 866 c 1
 339 834 l 1
 314 778 286 750 248 750 c 0xec
 221 750 203 760 188 769 c 0
 176 776 166 782 154 782 c 0
 138 782 127 771 114 743 c 1xdc
200 -10 m 0
 92 -10 33 54 33 166 c 2
 33 534 l 2
 33 646 92 710 200 710 c 0
 308 710 367 646 367 534 c 2
 367 166 l 2
 367 54 308 -10 200 -10 c 0
200 90 m 0
 235 90 257 109 257 159 c 2
 257 541 l 2
 257 591 235 610 200 610 c 0
 165 610 143 591 143 541 c 2
 143 159 l 2
 143 109 165 90 200 90 c 0
EndSplineSet
EndChar

StartChar: OE
Encoding: 338 338 65
Width: 577
Flags: W
HStem: 0 100<153.91 255 365 555> 315 100<365 516> 600 100<153.91 255 365 555>
VStem: 33 110<111.147 588.853> 255 110<100 315 415 600>
LayerCount: 2
Fore
SplineSet
197 0 m 2
 87 0 33 61 33 173 c 2
 33 527 l 2
 33 639 87 700 197 700 c 2
 555 700 l 1
 555 600 l 1
 365 600 l 1
 365 415 l 1
 516 415 l 1
 516 315 l 1
 365 315 l 1
 365 100 l 1
 555 100 l 1
 555 0 l 1
 197 0 l 2
199 100 m 2
 255 100 l 1
 255 600 l 1
 199 600 l 2
 164 600 143 582 143 532 c 2
 143 168 l 2
 143 118 164 100 199 100 c 2
EndSplineSet
EndChar

StartChar: P
Encoding: 80 80 66
Width: 386
GlyphClass: 2
Flags: W
HStem: 0 21G<41 151> 285 100<151 246.09> 600 100<151 246.09>
VStem: 41 110<0 285 385 600> 257 110<396.147 588.853>
AnchorPoint: "Anchor-4" 191 700 basechar 0
AnchorPoint: "Anchor-2" 193 0 basechar 0
LayerCount: 2
Fore
SplineSet
41 0 m 1
 41 700 l 1
 203 700 l 2
 313 700 367 639 367 527 c 2
 367 458 l 2
 367 346 313 285 203 285 c 2
 151 285 l 1
 151 0 l 1
 41 0 l 1
151 385 m 1
 203 385 l 2
 238 385 257 401 257 451 c 2
 257 534 l 2
 257 584 238 600 203 600 c 2
 151 600 l 1
 151 385 l 1
EndSplineSet
EndChar

StartChar: uni1E56
Encoding: 7766 7766 67
Width: 386
GlyphClass: 2
Flags: W
HStem: 0 21G<41 151> 285 100<151 246.09> 600 100<151 246.09> 747 102<141 241>
VStem: 41 110<0 285 385 600> 141 100<747 849> 257 110<396.147 588.853>
AnchorPoint: "Anchor-4" 191 849 basechar 0
AnchorPoint: "Anchor-2" 193 0 basechar 0
LayerCount: 2
Fore
SplineSet
141 747 m 1xf6
 141 849 l 1
 241 849 l 1
 241 747 l 1
 141 747 l 1xf6
41 0 m 1xfa
 41 700 l 1
 203 700 l 2
 313 700 367 639 367 527 c 2
 367 458 l 2
 367 346 313 285 203 285 c 2
 151 285 l 1
 151 0 l 1
 41 0 l 1xfa
151 385 m 1
 203 385 l 2
 238 385 257 401 257 451 c 2
 257 534 l 2
 257 584 238 600 203 600 c 2
 151 600 l 1
 151 385 l 1
EndSplineSet
EndChar

StartChar: Thorn
Encoding: 222 222 68
Width: 386
Flags: W
HStem: 0 21G<41 151> 186 100<151 246.09> 501 100<151 246.09> 680 20G<41 151>
VStem: 41 110<0 186 286 501 601 700> 257 110<297.147 489.853>
LayerCount: 2
Fore
SplineSet
41 0 m 1
 41 700 l 1
 151 700 l 1
 151 601 l 1
 203 601 l 2
 313 601 367 540 367 428 c 2
 367 359 l 2
 367 247 313 186 203 186 c 2
 151 186 l 1
 151 0 l 1
 41 0 l 1
151 286 m 1
 203 286 l 2
 238 286 257 302 257 352 c 2
 257 435 l 2
 257 485 238 501 203 501 c 2
 151 501 l 1
 151 286 l 1
EndSplineSet
EndChar

StartChar: Q
Encoding: 81 81 69
Width: 400
Flags: W
HStem: -65 100<336.95 394> -10 100<155.722 245.745> 610 100<155.722 244.278>
VStem: 33 110<103.826 596.174> 257 110<101.375 596.174>
LayerCount: 2
Fore
SplineSet
365 -65 m 2xb8
 324 -65 286 -50 273 2 c 1
 252 -6 227 -10 200 -10 c 0x78
 92 -10 33 54 33 166 c 2
 33 534 l 2
 33 646 92 710 200 710 c 0
 308 710 367 646 367 534 c 2
 367 166 l 2
 367 118 356 80 336 51 c 1
 344 37 357 35 377 35 c 2
 394 35 l 1
 394 -65 l 1
 365 -65 l 2xb8
200 90 m 0
 235 90 257 109 257 159 c 2
 257 541 l 2
 257 591 235 610 200 610 c 0
 165 610 143 591 143 541 c 2
 143 159 l 2
 143 109 165 90 200 90 c 0
EndSplineSet
EndChar

StartChar: R
Encoding: 82 82 70
Width: 403
GlyphClass: 2
Flags: W
HStem: 0 21G<41 151 265 380> 300 100<151 244.24> 600 100<151 243.734>
VStem: 41 110<0 300 400 600> 258 110<1.21806 285.062 414.14 589.572>
AnchorPoint: "Anchor-4" 193 700 basechar 0
AnchorPoint: "Anchor-2" 203 0 basechar 0
LayerCount: 2
Fore
SplineSet
41 0 m 1
 41 700 l 1
 204 700 l 2
 318 700 367 647 367 539 c 2
 367 496 l 2
 367 424 344 378 295 358 c 1
 295 356 l 1
 350 339 368 287 368 208 c 2
 368 85 l 2
 368 51 369 26 380 0 c 1
 268 0 l 1
 262 18 258 29 258 86 c 2
 258 214 l 2
 258 279 239 300 189 300 c 2
 151 300 l 1
 151 0 l 1
 41 0 l 1
151 400 m 1
 191 400 l 2
 232 400 257 418 257 474 c 2
 257 528 l 2
 257 578 240 600 201 600 c 2
 151 600 l 1
 151 400 l 1
EndSplineSet
EndChar

StartChar: Racute
Encoding: 340 340 71
Width: 403
GlyphClass: 2
Flags: W
HStem: 0 21G<41 151 265 380> 300 100<151 244.24> 600 100<151 243.734>
VStem: 41 110<0 300 400 600> 258 110<1.21806 285.062 414.14 589.572>
AnchorPoint: "Anchor-4" 193 862 basechar 0
AnchorPoint: "Anchor-2" 203 0 basechar 0
LayerCount: 2
Fore
SplineSet
133 747 m 1
 203 862 l 1
 323 862 l 1
 216 747 l 1
 133 747 l 1
41 0 m 1
 41 700 l 1
 204 700 l 2
 318 700 367 647 367 539 c 2
 367 496 l 2
 367 424 344 378 295 358 c 1
 295 356 l 1
 350 339 368 287 368 208 c 2
 368 85 l 2
 368 51 369 26 380 0 c 1
 268 0 l 1
 262 18 258 29 258 86 c 2
 258 214 l 2
 258 279 239 300 189 300 c 2
 151 300 l 1
 151 0 l 1
 41 0 l 1
151 400 m 1
 191 400 l 2
 232 400 257 418 257 474 c 2
 257 528 l 2
 257 578 240 600 201 600 c 2
 151 600 l 1
 151 400 l 1
EndSplineSet
EndChar

StartChar: Rcaron
Encoding: 344 344 72
Width: 403
GlyphClass: 2
Flags: W
HStem: 0 21G<41 151 265 380> 300 100<151 244.24> 600 100<151 243.734>
VStem: 41 110<0 300 400 600> 258 110<1.21806 285.062 414.14 589.572>
AnchorPoint: "Anchor-4" 193 862 basechar 0
AnchorPoint: "Anchor-2" 203 0 basechar 0
LayerCount: 2
Fore
SplineSet
141 747 m 1
 59 862 l 1
 142 862 l 1
 193 807 l 1
 244 862 l 1
 327 862 l 1
 245 747 l 1
 141 747 l 1
41 0 m 1
 41 700 l 1
 204 700 l 2
 318 700 367 647 367 539 c 2
 367 496 l 2
 367 424 344 378 295 358 c 1
 295 356 l 1
 350 339 368 287 368 208 c 2
 368 85 l 2
 368 51 369 26 380 0 c 1
 268 0 l 1
 262 18 258 29 258 86 c 2
 258 214 l 2
 258 279 239 300 189 300 c 2
 151 300 l 1
 151 0 l 1
 41 0 l 1
151 400 m 1
 191 400 l 2
 232 400 257 418 257 474 c 2
 257 528 l 2
 257 578 240 600 201 600 c 2
 151 600 l 1
 151 400 l 1
EndSplineSet
EndChar

StartChar: uni0156
Encoding: 342 342 73
Width: 403
GlyphClass: 2
Flags: W
HStem: -135 92<157 193> 0 21G<41 151 265 380> 300 100<151 244.24> 600 100<151 243.734>
VStem: 41 110<0 300 400 600> 157 92<-125 -43> 258 110<1.21806 285.062 414.14 589.572>
AnchorPoint: "Anchor-4" 193 700 basechar 0
AnchorPoint: "Anchor-2" 203 -189 basechar 0
LayerCount: 2
Fore
SplineSet
41 0 m 1
 41 700 l 1
 204 700 l 2
 318 700 367 647 367 539 c 2
 367 496 l 2
 367 424 344 378 295 358 c 1
 295 356 l 1
 350 339 368 287 368 208 c 2
 368 85 l 2
 368 51 369 26 380 0 c 1
 268 0 l 1
 262 18 258 29 258 86 c 2
 258 214 l 2
 258 279 239 300 189 300 c 2
 151 300 l 1
 151 0 l 1
 41 0 l 1
151 400 m 1
 191 400 l 2
 232 400 257 418 257 474 c 2
 257 528 l 2
 257 578 240 600 201 600 c 2
 151 600 l 1
 151 400 l 1
167 -189 m 1
 193 -135 l 1
 157 -135 l 1
 157 -43 l 1
 249 -43 l 1
 249 -125 l 1
 206 -189 l 1
 167 -189 l 1
EndSplineSet
EndChar

StartChar: S
Encoding: 83 83 74
Width: 372
GlyphClass: 2
Flags: W
HStem: -10 100<136.81 227.752> 610 100<145.074 231.818>
VStem: 22 104<99.8508 206> 24 110<471.352 598.946> 240 110<100.248 239.083 505 600.442>
AnchorPoint: "Anchor-4" 186 700 basechar 0
AnchorPoint: "Anchor-2" 186 0 basechar 0
LayerCount: 2
Fore
SplineSet
184 -10 m 0xd8
 76 -10 22 54 22 166 c 2
 22 206 l 1
 126 206 l 1
 126 158 l 2xe8
 126 108 148 90 183 90 c 0
 218 90 240 108 240 160 c 0
 240 218 218 255 146 318 c 0
 54 399 24 456 24 536 c 0
 24 646 81 710 188 710 c 0
 295 710 348 646 348 534 c 2
 348 505 l 1
 244 505 l 1
 244 541 l 2
 244 591 224 610 189 610 c 0
 154 610 134 591 134 543 c 0
 134 492 157 455 229 392 c 0
 321 311 350 255 350 168 c 0
 350 54 292 -10 184 -10 c 0xd8
EndSplineSet
EndChar

StartChar: Sacute
Encoding: 346 346 75
Width: 372
GlyphClass: 2
Flags: W
HStem: -10 100<136.81 227.752> 610 100<145.074 231.818>
VStem: 22 104<99.8508 206> 24 110<471.352 598.946> 240 110<100.248 239.083 505 600.442>
AnchorPoint: "Anchor-4" 186 862 basechar 0
AnchorPoint: "Anchor-2" 186 0 basechar 0
LayerCount: 2
Fore
SplineSet
126 747 m 1xe8
 196 862 l 1
 316 862 l 1
 209 747 l 1
 126 747 l 1xe8
184 -10 m 0
 76 -10 22 54 22 166 c 2
 22 206 l 1
 126 206 l 1
 126 158 l 2xe8
 126 108 148 90 183 90 c 0
 218 90 240 108 240 160 c 0
 240 218 218 255 146 318 c 0
 54 399 24 456 24 536 c 0
 24 646 81 710 188 710 c 0
 295 710 348 646 348 534 c 2
 348 505 l 1
 244 505 l 1
 244 541 l 2
 244 591 224 610 189 610 c 0
 154 610 134 591 134 543 c 0xd8
 134 492 157 455 229 392 c 0
 321 311 350 255 350 168 c 0
 350 54 292 -10 184 -10 c 0
EndSplineSet
EndChar

StartChar: Scaron
Encoding: 352 352 76
Width: 372
GlyphClass: 2
Flags: W
HStem: -10 100<136.81 227.752> 610 100<145.074 231.818>
VStem: 22 104<99.8508 206> 24 110<471.352 598.946> 240 110<100.248 239.083 505 600.442>
AnchorPoint: "Anchor-4" 186 862 basechar 0
AnchorPoint: "Anchor-2" 186 0 basechar 0
LayerCount: 2
Fore
SplineSet
134 747 m 1xd8
 52 862 l 1
 135 862 l 1
 186 807 l 1
 237 862 l 1
 320 862 l 1
 238 747 l 1
 134 747 l 1xd8
184 -10 m 0
 76 -10 22 54 22 166 c 2
 22 206 l 1
 126 206 l 1
 126 158 l 2xe8
 126 108 148 90 183 90 c 0
 218 90 240 108 240 160 c 0
 240 218 218 255 146 318 c 0
 54 399 24 456 24 536 c 0
 24 646 81 710 188 710 c 0
 295 710 348 646 348 534 c 2
 348 505 l 1
 244 505 l 1
 244 541 l 2
 244 591 224 610 189 610 c 0
 154 610 134 591 134 543 c 0
 134 492 157 455 229 392 c 0
 321 311 350 255 350 168 c 0
 350 54 292 -10 184 -10 c 0
EndSplineSet
EndChar

StartChar: Scedilla
Encoding: 350 350 77
Width: 372
GlyphClass: 2
Flags: W
HStem: -147 40<157.042 202.983> -9 99<137.057 162 211 227.557> 610 100<145.074 231.818>
VStem: 22 104<99.8508 206> 24 110<471.352 598.946> 82 74<-106.45 -79> 162 49<-39 -6.50684> 204 76<-106.487 -58.4026> 240 110<100.885 239.083 505 600.442>
AnchorPoint: "Anchor-4" 186 700 basechar 0
AnchorPoint: "Anchor-2" 186 -147 basechar 0
LayerCount: 2
Fore
SplineSet
350 168 m 0xe880
 350 64 302 1 211 -9 c 1
 211 -39 l 1xea80
 255 -39 280 -51 280 -86 c 0
 280 -140 238 -147 178 -147 c 0
 123 -147 82 -135 82 -89 c 2
 82 -79 l 1
 156 -79 l 1
 156 -87 l 2
 156 -102 167 -107 178 -107 c 0
 196 -107 204 -100 204 -83 c 0xe5
 204 -64 192 -57 167 -57 c 2
 162 -57 l 1
 162 -9 l 1
 69 -1 22 62 22 166 c 2
 22 206 l 1
 126 206 l 1
 126 158 l 2xf2
 126 108 148 90 183 90 c 0
 218 90 240 108 240 160 c 0
 240 218 218 255 146 318 c 0
 54 399 24 456 24 536 c 0
 24 646 81 710 188 710 c 0
 295 710 348 646 348 534 c 2
 348 505 l 1
 244 505 l 1
 244 541 l 2
 244 591 224 610 189 610 c 0
 154 610 134 591 134 543 c 0
 134 492 157 455 229 392 c 0
 321 311 350 255 350 168 c 0xe880
EndSplineSet
Substitution2: "'locl' Localized Forms in Latin lookup 6 subtable" uni0218
Substitution2: "'locl' Localized Forms in Latin lookup 5 subtable" uni0218
Substitution2: "'aalt' Access All Alternates in Latin lookup 0 subtable" uni0218
EndChar

StartChar: Scircumflex
Encoding: 348 348 78
Width: 372
GlyphClass: 2
Flags: W
HStem: -10 100<136.81 227.752> 610 100<145.074 231.818>
VStem: 22 104<99.8508 206> 24 110<471.352 598.946> 240 110<100.248 239.083 505 600.442>
AnchorPoint: "Anchor-4" 186 862 basechar 0
AnchorPoint: "Anchor-2" 186 0 basechar 0
LayerCount: 2
Fore
SplineSet
52 747 m 1xd8
 134 862 l 1
 238 862 l 1
 320 747 l 1
 237 747 l 1
 186 802 l 1
 135 747 l 1
 52 747 l 1xd8
184 -10 m 0
 76 -10 22 54 22 166 c 2
 22 206 l 1
 126 206 l 1
 126 158 l 2xe8
 126 108 148 90 183 90 c 0
 218 90 240 108 240 160 c 0
 240 218 218 255 146 318 c 0
 54 399 24 456 24 536 c 0
 24 646 81 710 188 710 c 0
 295 710 348 646 348 534 c 2
 348 505 l 1
 244 505 l 1
 244 541 l 2
 244 591 224 610 189 610 c 0
 154 610 134 591 134 543 c 0
 134 492 157 455 229 392 c 0
 321 311 350 255 350 168 c 0
 350 54 292 -10 184 -10 c 0
EndSplineSet
EndChar

StartChar: uni0218
Encoding: 536 536 79
Width: 372
GlyphClass: 2
Flags: W
HStem: -135 92<140 176> -10 100<136.81 227.752> 610 100<145.074 231.818>
VStem: 22 104<99.8508 206> 24 110<471.352 598.946> 140 92<-125 -43> 240 110<100.248 239.083 505 600.442>
AnchorPoint: "Anchor-4" 186 700 basechar 0
AnchorPoint: "Anchor-2" 186 -189 basechar 0
LayerCount: 2
Fore
SplineSet
184 -10 m 0xee
 76 -10 22 54 22 166 c 2
 22 206 l 1
 126 206 l 1
 126 158 l 2xf6
 126 108 148 90 183 90 c 0
 218 90 240 108 240 160 c 0
 240 218 218 255 146 318 c 0
 54 399 24 456 24 536 c 0
 24 646 81 710 188 710 c 0
 295 710 348 646 348 534 c 2
 348 505 l 1
 244 505 l 1
 244 541 l 2
 244 591 224 610 189 610 c 0
 154 610 134 591 134 543 c 0
 134 492 157 455 229 392 c 0
 321 311 350 255 350 168 c 0
 350 54 292 -10 184 -10 c 0xee
150 -189 m 1
 176 -135 l 1
 140 -135 l 1
 140 -43 l 1
 232 -43 l 1
 232 -125 l 1
 189 -189 l 1
 150 -189 l 1
EndSplineSet
EndChar

StartChar: uni1E60
Encoding: 7776 7776 80
Width: 372
GlyphClass: 2
Flags: W
HStem: -10 100<136.81 227.752> 610 100<145.074 231.818> 747 102<136 236>
VStem: 22 104<99.8508 206> 24 110<471.352 598.946> 136 100<747 849> 240 110<100.248 239.083 505 600.442>
AnchorPoint: "Anchor-4" 186 849 basechar 0
AnchorPoint: "Anchor-2" 186 0 basechar 0
LayerCount: 2
Fore
SplineSet
136 747 m 1xe6
 136 849 l 1
 236 849 l 1
 236 747 l 1
 136 747 l 1xe6
184 -10 m 0
 76 -10 22 54 22 166 c 2
 22 206 l 1
 126 206 l 1
 126 158 l 2xf6
 126 108 148 90 183 90 c 0
 218 90 240 108 240 160 c 0
 240 218 218 255 146 318 c 0
 54 399 24 456 24 536 c 0
 24 646 81 710 188 710 c 0
 295 710 348 646 348 534 c 2
 348 505 l 1
 244 505 l 1
 244 541 l 2
 244 591 224 610 189 610 c 0
 154 610 134 591 134 543 c 0xee
 134 492 157 455 229 392 c 0
 321 311 350 255 350 168 c 0
 350 54 292 -10 184 -10 c 0
EndSplineSet
EndChar

StartChar: uni1E9E
Encoding: 7838 7838 81
Width: 407
Flags: W
HStem: 0 100<194 264.09> 600 100<151 267>
VStem: 41 110<0 600> 275 110<111.147 317.288>
LayerCount: 2
Fore
SplineSet
41 0 m 1
 41 700 l 1
 375 700 l 1
 375 602 l 1
 298 413 l 1
 359 394 385 338 385 252 c 2
 385 173 l 2
 385 61 331 0 221 0 c 2
 194 0 l 1
 194 100 l 1
 221 100 l 2
 256 100 275 116 275 166 c 2
 275 259 l 2
 275 309 256 325 221 325 c 2
 194 325 l 1
 194 418 l 1
 267 600 l 1
 151 600 l 1
 151 0 l 1
 41 0 l 1
EndSplineSet
EndChar

StartChar: T
Encoding: 84 84 82
Width: 364
GlyphClass: 2
Flags: W
HStem: 0 21G<127 237> 600 100<12 127 237 352>
VStem: 127 110<0 600>
AnchorPoint: "Anchor-5" 182 350 basechar 0
AnchorPoint: "Anchor-4" 182 700 basechar 0
AnchorPoint: "Anchor-2" 182 0 basechar 0
LayerCount: 2
Fore
SplineSet
127 0 m 1
 127 600 l 1
 12 600 l 1
 12 700 l 1
 352 700 l 1
 352 600 l 1
 237 600 l 1
 237 0 l 1
 127 0 l 1
EndSplineSet
EndChar

StartChar: Tbar
Encoding: 358 358 83
Width: 364
GlyphClass: 2
Flags: W
HStem: 0 21G<127 237> 315 100<51 127 237 313> 600 100<12 127 237 352>
VStem: 127 110<0 315 415 600>
AnchorPoint: "Anchor-5" 182 350 basechar 0
AnchorPoint: "Anchor-4" 182 700 basechar 0
AnchorPoint: "Anchor-2" 182 0 basechar 0
LayerCount: 2
Fore
SplineSet
352 600 m 1
 237 600 l 1
 237 415 l 1
 313 415 l 1
 313 315 l 1
 237 315 l 1
 237 0 l 1
 127 0 l 1
 127 315 l 1
 51 315 l 1
 51 415 l 1
 127 415 l 1
 127 600 l 1
 12 600 l 1
 12 700 l 1
 352 700 l 1
 352 600 l 1
EndSplineSet
EndChar

StartChar: Tcaron
Encoding: 356 356 84
Width: 364
GlyphClass: 2
Flags: W
HStem: 0 21G<127 237> 600 100<12 127 237 352>
VStem: 127 110<0 600>
AnchorPoint: "Anchor-5" 182 350 basechar 0
AnchorPoint: "Anchor-4" 182 862 basechar 0
AnchorPoint: "Anchor-2" 182 0 basechar 0
LayerCount: 2
Fore
SplineSet
130 747 m 1
 48 862 l 1
 131 862 l 1
 182 807 l 1
 233 862 l 1
 316 862 l 1
 234 747 l 1
 130 747 l 1
127 0 m 1
 127 600 l 1
 12 600 l 1
 12 700 l 1
 352 700 l 1
 352 600 l 1
 237 600 l 1
 237 0 l 1
 127 0 l 1
EndSplineSet
EndChar

StartChar: uni0162
Encoding: 354 354 85
Width: 364
GlyphClass: 2
Flags: W
HStem: -147 40<153.042 198.983> 600 100<12 127 237 352>
VStem: 78 74<-106.45 -79> 127 110<0 600> 158 49<-39 0> 200 76<-106.487 -58.4026>
AnchorPoint: "Anchor-5" 182 350 basechar 0
AnchorPoint: "Anchor-4" 182 700 basechar 0
AnchorPoint: "Anchor-2" 182 -147 basechar 0
LayerCount: 2
Fore
SplineSet
237 0 m 1xd0
 207 0 l 1
 207 -39 l 1xc8
 251 -39 276 -51 276 -86 c 0
 276 -140 234 -147 174 -147 c 0
 119 -147 78 -135 78 -89 c 2
 78 -79 l 1
 152 -79 l 1
 152 -87 l 2
 152 -102 163 -107 174 -107 c 0
 192 -107 200 -100 200 -83 c 0xe4
 200 -64 188 -57 163 -57 c 2
 158 -57 l 1
 158 0 l 1xc8
 127 0 l 1
 127 600 l 1
 12 600 l 1
 12 700 l 1
 352 700 l 1
 352 600 l 1
 237 600 l 1
 237 0 l 1xd0
EndSplineSet
Substitution2: "'locl' Localized Forms in Latin lookup 6 subtable" uni021A
Substitution2: "'locl' Localized Forms in Latin lookup 5 subtable" uni021A
Substitution2: "'aalt' Access All Alternates in Latin lookup 0 subtable" uni021A
EndChar

StartChar: uni021A
Encoding: 538 538 86
Width: 364
GlyphClass: 2
Flags: W
HStem: -135 92<136 172> 0 21G<127 237> 600 100<12 127 237 352>
VStem: 127 110<0 600> 136 92<-125 -43>
AnchorPoint: "Anchor-5" 182 350 basechar 0
AnchorPoint: "Anchor-4" 182 700 basechar 0
AnchorPoint: "Anchor-2" 182 -189 basechar 0
LayerCount: 2
Fore
SplineSet
127 0 m 1xf0
 127 600 l 1
 12 600 l 1
 12 700 l 1
 352 700 l 1
 352 600 l 1
 237 600 l 1
 237 0 l 1
 127 0 l 1xf0
146 -189 m 1
 172 -135 l 1
 136 -135 l 1
 136 -43 l 1
 228 -43 l 1
 228 -125 l 1xe8
 185 -189 l 1
 146 -189 l 1
EndSplineSet
EndChar

StartChar: uni1E6A
Encoding: 7786 7786 87
Width: 364
GlyphClass: 2
Flags: W
HStem: 0 21G<127 237> 600 100<12 127 237 352> 747 102<132 232>
VStem: 127 110<0 600 747 849>
AnchorPoint: "Anchor-5" 182 350 basechar 0
AnchorPoint: "Anchor-4" 182 849 basechar 0
AnchorPoint: "Anchor-2" 182 0 basechar 0
LayerCount: 2
Fore
SplineSet
132 747 m 1
 132 849 l 1
 232 849 l 1
 232 747 l 1
 132 747 l 1
127 0 m 1
 127 600 l 1
 12 600 l 1
 12 700 l 1
 352 700 l 1
 352 600 l 1
 237 600 l 1
 237 0 l 1
 127 0 l 1
EndSplineSet
EndChar

StartChar: U
Encoding: 85 85 88
Width: 402
GlyphClass: 2
Flags: W
HStem: -10 100<157.731 248.437> 680 20G<37 147 259 365>
VStem: 37 110<99.5581 700> 259 106<99.5581 700>
AnchorPoint: "Anchor-6" 381 700 basechar 0
AnchorPoint: "Anchor-4" 201 700 basechar 0
AnchorPoint: "Anchor-3" 297 0 basechar 0
AnchorPoint: "Anchor-2" 201 0 basechar 0
LayerCount: 2
Fore
SplineSet
201 -10 m 0
 93 -10 37 54 37 166 c 2
 37 700 l 1
 147 700 l 1
 147 158 l 2
 147 108 168 90 203 90 c 0
 238 90 259 108 259 158 c 2
 259 700 l 1
 365 700 l 1
 365 166 l 2
 365 54 309 -10 201 -10 c 0
EndSplineSet
EndChar

StartChar: Udieresis
Encoding: 220 220 89
Width: 402
GlyphClass: 2
Flags: W
HStem: -10 100<157.731 248.437> 680 20G<37 147 259 365> 747 102<75 173 229 327>
VStem: 37 110<99.5581 700> 75 98<747 849> 229 98<747 849> 259 106<99.5581 700>
AnchorPoint: "Anchor-6" 381 700 basechar 0
AnchorPoint: "Anchor-4" 201 849 basechar 0
AnchorPoint: "Anchor-3" 297 0 basechar 0
AnchorPoint: "Anchor-2" 201 0 basechar 0
LayerCount: 2
Fore
SplineSet
75 747 m 1xe8
 75 849 l 1
 173 849 l 1
 173 747 l 1
 75 747 l 1xe8
229 747 m 1xe4
 229 849 l 1
 327 849 l 1
 327 747 l 1
 229 747 l 1xe4
201 -10 m 0
 93 -10 37 54 37 166 c 2
 37 700 l 1
 147 700 l 1
 147 158 l 2
 147 108 168 90 203 90 c 0
 238 90 259 108 259 158 c 2
 259 700 l 1
 365 700 l 1
 365 166 l 2xf2
 365 54 309 -10 201 -10 c 0
EndSplineSet
EndChar

StartChar: Uogonek
Encoding: 370 370 90
Width: 402
GlyphClass: 2
Flags: W
HStem: -147 61<200.883 296.207> 680 20G<37 147 259 365>
VStem: 37 110<101.208 700> 141 85<-105.5 -33.5284> 259 106<99.0742 700>
AnchorPoint: "Anchor-6" 381 700 basechar 0
AnchorPoint: "Anchor-4" 201 700 basechar 0
AnchorPoint: "Anchor-3" 297 0 basechar 0
AnchorPoint: "Anchor-2" 201 0 basechar 0
LayerCount: 2
Fore
SplineSet
259 700 m 1xe8
 365 700 l 1
 365 166 l 2
 365 73 326 13 251 -5 c 1
 231 -24 226 -45 226 -58 c 0
 226 -77 243 -86 261 -86 c 0
 281 -86 286 -83 297 -80 c 1
 297 -136 l 1
 274 -145 257 -147 229 -147 c 0
 175 -147 141 -126 141 -85 c 0xd8
 141 -57 158 -31 192 -10 c 1
 90 -6 37 57 37 166 c 2
 37 700 l 1
 147 700 l 1
 147 158 l 2
 147 108 168 90 203 90 c 0
 238 90 259 108 259 158 c 2
 259 700 l 1xe8
EndSplineSet
EndChar

StartChar: Utilde
Encoding: 360 360 91
Width: 402
GlyphClass: 2
Flags: W
HStem: -10 100<157.731 248.437> 680 20G<37 147 259 365> 750 77<197.042 277.406> 782 77<124.594 204.958>
VStem: 37 110<99.5581 700> 259 106<99.5581 700>
AnchorPoint: "Anchor-6" 381 700 basechar 0
AnchorPoint: "Anchor-4" 201 866 basechar 0
AnchorPoint: "Anchor-3" 297 0 basechar 0
AnchorPoint: "Anchor-2" 201 0 basechar 0
LayerCount: 2
Fore
SplineSet
115 743 m 1xdc
 62 775 l 1
 87 831 115 859 153 859 c 0xdc
 180 859 198 849 213 840 c 0
 225 833 235 827 247 827 c 0
 263 827 274 838 287 866 c 1
 340 834 l 1
 315 778 287 750 249 750 c 0xec
 222 750 204 760 189 769 c 0
 177 776 167 782 155 782 c 0
 139 782 128 771 115 743 c 1xdc
201 -10 m 0
 93 -10 37 54 37 166 c 2
 37 700 l 1
 147 700 l 1
 147 158 l 2
 147 108 168 90 203 90 c 0
 238 90 259 108 259 158 c 2
 259 700 l 1
 365 700 l 1
 365 166 l 2
 365 54 309 -10 201 -10 c 0
EndSplineSet
EndChar

StartChar: V
Encoding: 86 86 92
Width: 382
GlyphClass: 2
Flags: W
HStem: 0 21G<114.971 267.029> 680 20G<12 125.652 266.348 370>
VStem: 12 111<653.774 700> 269 101<653.774 700>
AnchorPoint: "Anchor-4" 191 700 basechar 0
AnchorPoint: "Anchor-2" 191 0 basechar 0
LayerCount: 2
Fore
SplineSet
118 0 m 1
 12 700 l 1
 123 700 l 1
 195 157 l 1
 197 157 l 1
 269 700 l 1
 370 700 l 1
 264 0 l 1
 118 0 l 1
EndSplineSet
EndChar

StartChar: W
Encoding: 87 87 93
Width: 557
GlyphClass: 2
Flags: W
HStem: 0 21G<83.9714 234.119 331.881 473.029> 680 20G<15 122.822 222.067 345.933 445.178 542>
AnchorPoint: "Anchor-4" 279 700 basechar 0
AnchorPoint: "Anchor-2" 279 0 basechar 0
LayerCount: 2
Fore
SplineSet
86 0 m 1
 15 700 l 1
 121 700 l 1
 170 162 l 1
 172 162 l 1
 224 700 l 1
 344 700 l 1
 396 162 l 1
 398 162 l 1
 447 700 l 1
 542 700 l 1
 471 0 l 1
 334 0 l 1
 284 472 l 1
 282 472 l 1
 232 0 l 1
 86 0 l 1
EndSplineSet
EndChar

StartChar: Wacute
Encoding: 7810 7810 94
Width: 557
GlyphClass: 2
Flags: W
HStem: 0 21G<83.9714 234.119 331.881 473.029> 680 20G<15 122.822 222.067 345.933 445.178 542>
AnchorPoint: "Anchor-4" 279 862 basechar 0
AnchorPoint: "Anchor-2" 279 0 basechar 0
LayerCount: 2
Fore
SplineSet
219 747 m 1
 289 862 l 1
 409 862 l 1
 302 747 l 1
 219 747 l 1
86 0 m 1
 15 700 l 1
 121 700 l 1
 170 162 l 1
 172 162 l 1
 224 700 l 1
 344 700 l 1
 396 162 l 1
 398 162 l 1
 447 700 l 1
 542 700 l 1
 471 0 l 1
 334 0 l 1
 284 472 l 1
 282 472 l 1
 232 0 l 1
 86 0 l 1
EndSplineSet
EndChar

StartChar: Wcircumflex
Encoding: 372 372 95
Width: 557
GlyphClass: 2
Flags: W
HStem: 0 21G<83.9714 234.119 331.881 473.029> 680 20G<15 122.822 222.067 345.933 445.178 542>
AnchorPoint: "Anchor-4" 279 862 basechar 0
AnchorPoint: "Anchor-2" 279 0 basechar 0
LayerCount: 2
Fore
SplineSet
145 747 m 1
 227 862 l 1
 331 862 l 1
 413 747 l 1
 330 747 l 1
 279 802 l 1
 228 747 l 1
 145 747 l 1
86 0 m 1
 15 700 l 1
 121 700 l 1
 170 162 l 1
 172 162 l 1
 224 700 l 1
 344 700 l 1
 396 162 l 1
 398 162 l 1
 447 700 l 1
 542 700 l 1
 471 0 l 1
 334 0 l 1
 284 472 l 1
 282 472 l 1
 232 0 l 1
 86 0 l 1
EndSplineSet
EndChar

StartChar: Wdieresis
Encoding: 7812 7812 96
Width: 557
GlyphClass: 2
Flags: W
HStem: 0 21G<83.9714 234.119 331.881 473.029> 680 20G<15 122.822 222.067 345.933 445.178 542> 747 102<153 251 307 405>
VStem: 153 98<747 849> 307 98<747 849>
AnchorPoint: "Anchor-4" 279 849 basechar 0
AnchorPoint: "Anchor-2" 279 0 basechar 0
LayerCount: 2
Fore
SplineSet
153 747 m 1
 153 849 l 1
 251 849 l 1
 251 747 l 1
 153 747 l 1
307 747 m 1
 307 849 l 1
 405 849 l 1
 405 747 l 1
 307 747 l 1
86 0 m 1
 15 700 l 1
 121 700 l 1
 170 162 l 1
 172 162 l 1
 224 700 l 1
 344 700 l 1
 396 162 l 1
 398 162 l 1
 447 700 l 1
 542 700 l 1
 471 0 l 1
 334 0 l 1
 284 472 l 1
 282 472 l 1
 232 0 l 1
 86 0 l 1
EndSplineSet
EndChar

StartChar: Wgrave
Encoding: 7808 7808 97
Width: 557
GlyphClass: 2
Flags: W
HStem: 0 21G<83.9714 234.119 331.881 473.029> 680 20G<15 122.822 222.067 345.933 445.178 542>
AnchorPoint: "Anchor-4" 279 862 basechar 0
AnchorPoint: "Anchor-2" 279 0 basechar 0
LayerCount: 2
Fore
SplineSet
256 747 m 1
 149 862 l 1
 269 862 l 1
 339 747 l 1
 256 747 l 1
86 0 m 1
 15 700 l 1
 121 700 l 1
 170 162 l 1
 172 162 l 1
 224 700 l 1
 344 700 l 1
 396 162 l 1
 398 162 l 1
 447 700 l 1
 542 700 l 1
 471 0 l 1
 334 0 l 1
 284 472 l 1
 282 472 l 1
 232 0 l 1
 86 0 l 1
EndSplineSet
EndChar

StartChar: X
Encoding: 88 88 98
Width: 406
GlyphClass: 2
Flags: W
HStem: 0 21G<11 121.721 272.443 395> 680 20G<17 139.549 278.274 389>
AnchorPoint: "Anchor-4" 203 700 basechar 0
AnchorPoint: "Anchor-2" 203 0 basechar 0
LayerCount: 2
Fore
SplineSet
11 0 m 1
 138 358 l 1
 17 700 l 1
 133 700 l 1
 207 474 l 1
 209 474 l 1
 285 700 l 1
 389 700 l 1
 268 358 l 1
 395 0 l 1
 279 0 l 1
 199 244 l 1
 197 244 l 1
 115 0 l 1
 11 0 l 1
EndSplineSet
EndChar

StartChar: Y
Encoding: 89 89 99
Width: 394
GlyphClass: 2
Flags: W
HStem: 0 21G<142 252> 680 20G<9 131.837 272.163 385>
VStem: 142 110<0 298>
AnchorPoint: "Anchor-4" 197 700 basechar 0
AnchorPoint: "Anchor-2" 197 0 basechar 0
LayerCount: 2
Fore
SplineSet
142 0 m 1
 142 298 l 1
 9 700 l 1
 126 700 l 1
 201 443 l 1
 203 443 l 1
 278 700 l 1
 385 700 l 1
 252 298 l 1
 252 0 l 1
 142 0 l 1
EndSplineSet
EndChar

StartChar: Yacute
Encoding: 221 221 100
Width: 394
GlyphClass: 2
Flags: W
HStem: 0 21G<142 252> 680 20G<9 131.837 272.163 385>
VStem: 142 110<0 298>
AnchorPoint: "Anchor-4" 197 862 basechar 0
AnchorPoint: "Anchor-2" 197 0 basechar 0
LayerCount: 2
Fore
SplineSet
137 747 m 1
 207 862 l 1
 327 862 l 1
 220 747 l 1
 137 747 l 1
142 0 m 1
 142 298 l 1
 9 700 l 1
 126 700 l 1
 201 443 l 1
 203 443 l 1
 278 700 l 1
 385 700 l 1
 252 298 l 1
 252 0 l 1
 142 0 l 1
EndSplineSet
EndChar

StartChar: Ycircumflex
Encoding: 374 374 101
Width: 394
GlyphClass: 2
Flags: W
HStem: 0 21G<142 252> 680 20G<9 131.837 272.163 385>
VStem: 142 110<0 298>
AnchorPoint: "Anchor-4" 197 862 basechar 0
AnchorPoint: "Anchor-2" 197 0 basechar 0
LayerCount: 2
Fore
SplineSet
63 747 m 1
 145 862 l 1
 249 862 l 1
 331 747 l 1
 248 747 l 1
 197 802 l 1
 146 747 l 1
 63 747 l 1
142 0 m 1
 142 298 l 1
 9 700 l 1
 126 700 l 1
 201 443 l 1
 203 443 l 1
 278 700 l 1
 385 700 l 1
 252 298 l 1
 252 0 l 1
 142 0 l 1
EndSplineSet
EndChar

StartChar: Ydieresis
Encoding: 376 376 102
Width: 394
GlyphClass: 2
Flags: W
HStem: 0 21G<142 252> 680 20G<9 131.837 272.163 385> 747 102<71 169 225 323>
VStem: 71 98<747 849> 142 110<0 298> 225 98<747 849>
AnchorPoint: "Anchor-4" 197 849 basechar 0
AnchorPoint: "Anchor-2" 197 0 basechar 0
LayerCount: 2
Fore
SplineSet
71 747 m 1xf0
 71 849 l 1
 169 849 l 1
 169 747 l 1
 71 747 l 1xf0
225 747 m 1xe4
 225 849 l 1
 323 849 l 1
 323 747 l 1
 225 747 l 1xe4
142 0 m 1xe8
 142 298 l 1
 9 700 l 1
 126 700 l 1
 201 443 l 1
 203 443 l 1
 278 700 l 1
 385 700 l 1
 252 298 l 1
 252 0 l 1
 142 0 l 1xe8
EndSplineSet
EndChar

StartChar: Ygrave
Encoding: 7922 7922 103
Width: 394
GlyphClass: 2
Flags: W
HStem: 0 21G<142 252> 680 20G<9 131.837 272.163 385>
VStem: 142 110<0 298>
AnchorPoint: "Anchor-4" 197 862 basechar 0
AnchorPoint: "Anchor-2" 197 0 basechar 0
LayerCount: 2
Fore
SplineSet
174 747 m 1
 67 862 l 1
 187 862 l 1
 257 747 l 1
 174 747 l 1
142 0 m 1
 142 298 l 1
 9 700 l 1
 126 700 l 1
 201 443 l 1
 203 443 l 1
 278 700 l 1
 385 700 l 1
 252 298 l 1
 252 0 l 1
 142 0 l 1
EndSplineSet
EndChar

StartChar: Z
Encoding: 90 90 104
Width: 362
GlyphClass: 2
Flags: W
HStem: 0 100<137 341> 600 100<29 223>
VStem: 19 322<0 98>
AnchorPoint: "Anchor-4" 185 700 basechar 0
AnchorPoint: "Anchor-2" 181 0 basechar 0
LayerCount: 2
Fore
SplineSet
19 0 m 1
 19 98 l 1
 223 600 l 1
 29 600 l 1
 29 700 l 1
 341 700 l 1
 341 602 l 1
 137 100 l 1
 341 100 l 1
 341 0 l 1
 19 0 l 1
EndSplineSet
EndChar

StartChar: Zacute
Encoding: 377 377 105
Width: 362
GlyphClass: 2
Flags: W
HStem: 0 100<137 341> 600 100<29 223>
VStem: 19 322<0 98>
AnchorPoint: "Anchor-4" 185 862 basechar 0
AnchorPoint: "Anchor-2" 181 0 basechar 0
LayerCount: 2
Fore
SplineSet
125 747 m 1
 195 862 l 1
 315 862 l 1
 208 747 l 1
 125 747 l 1
19 0 m 1
 19 98 l 1
 223 600 l 1
 29 600 l 1
 29 700 l 1
 341 700 l 1
 341 602 l 1
 137 100 l 1
 341 100 l 1
 341 0 l 1
 19 0 l 1
EndSplineSet
EndChar

StartChar: Zcaron
Encoding: 381 381 106
Width: 362
GlyphClass: 2
Flags: W
HStem: 0 100<137 341> 600 100<29 223>
VStem: 19 322<0 98>
AnchorPoint: "Anchor-4" 185 862 basechar 0
AnchorPoint: "Anchor-2" 181 0 basechar 0
LayerCount: 2
Fore
SplineSet
133 747 m 1
 51 862 l 1
 134 862 l 1
 185 807 l 1
 236 862 l 1
 319 862 l 1
 237 747 l 1
 133 747 l 1
19 0 m 1
 19 98 l 1
 223 600 l 1
 29 600 l 1
 29 700 l 1
 341 700 l 1
 341 602 l 1
 137 100 l 1
 341 100 l 1
 341 0 l 1
 19 0 l 1
EndSplineSet
EndChar

StartChar: Zdotaccent
Encoding: 379 379 107
Width: 362
GlyphClass: 2
Flags: W
HStem: 0 100<137 341> 600 100<29 223> 747 102<135 235>
VStem: 135 100<747 849>
AnchorPoint: "Anchor-4" 185 849 basechar 0
AnchorPoint: "Anchor-2" 181 0 basechar 0
LayerCount: 2
Fore
SplineSet
135 747 m 1
 135 849 l 1
 235 849 l 1
 235 747 l 1
 135 747 l 1
19 0 m 1
 19 98 l 1
 223 600 l 1
 29 600 l 1
 29 700 l 1
 341 700 l 1
 341 602 l 1
 137 100 l 1
 341 100 l 1
 341 0 l 1
 19 0 l 1
EndSplineSet
EndChar

StartChar: a
Encoding: 97 97 108
Width: 401
GlyphClass: 2
Flags: W
HStem: 0 21G<12 116.92 276.122 389> 137 95<147 246> 680 20G<122.743 278.257>
AnchorPoint: "Anchor-4" 201 700 basechar 0
AnchorPoint: "Anchor-3" 389 0 basechar 0
AnchorPoint: "Anchor-2" 201 0 basechar 0
LayerCount: 2
Fore
SplineSet
12 0 m 1
 126 700 l 1
 275 700 l 1
 389 0 l 1
 279 0 l 1
 259 139 l 1
 259 137 l 1
 134 137 l 1
 114 0 l 1
 12 0 l 1
147 232 m 1
 246 232 l 1
 197 578 l 1
 195 578 l 1
 147 232 l 1
EndSplineSet
Substitution2: "Single Substitution lookup 27 subtable" ordfeminine
Substitution2: "'aalt' Access All Alternates in Latin lookup 0 subtable" ordfeminine
EndChar

StartChar: adieresis
Encoding: 228 228 109
Width: 401
GlyphClass: 2
Flags: W
HStem: 0 21G<12 116.92 276.122 389> 137 95<147 246> 680 20G<122.743 278.257> 747 102<75 173 229 327>
VStem: 75 98<747 849> 229 98<747 849>
AnchorPoint: "Anchor-4" 201 849 basechar 0
AnchorPoint: "Anchor-3" 389 0 basechar 0
AnchorPoint: "Anchor-2" 201 0 basechar 0
LayerCount: 2
Fore
SplineSet
75 747 m 1
 75 849 l 1
 173 849 l 1
 173 747 l 1
 75 747 l 1
229 747 m 1
 229 849 l 1
 327 849 l 1
 327 747 l 1
 229 747 l 1
12 0 m 1
 126 700 l 1
 275 700 l 1
 389 0 l 1
 279 0 l 1
 259 139 l 1
 259 137 l 1
 134 137 l 1
 114 0 l 1
 12 0 l 1
147 232 m 1
 246 232 l 1
 197 578 l 1
 195 578 l 1
 147 232 l 1
EndSplineSet
EndChar

StartChar: aogonek
Encoding: 261 261 110
Width: 401
GlyphClass: 2
Flags: W
HStem: -147 61<292.883 388.207> 0 21G<12 116.92> 137 95<147 246> 680 20G<122.743 278.257>
VStem: 233 85<-105.5 -33.6506>
AnchorPoint: "Anchor-4" 201 700 basechar 0
AnchorPoint: "Anchor-3" 389 0 basechar 0
AnchorPoint: "Anchor-2" 201 0 basechar 0
LayerCount: 2
Fore
SplineSet
318 -58 m 0
 318 -77 335 -86 353 -86 c 0
 373 -86 378 -83 389 -80 c 1
 389 -136 l 1
 366 -145 349 -147 321 -147 c 0
 267 -147 233 -126 233 -85 c 0
 233 -53 255 -23 301 0 c 1
 279 0 l 1
 259 139 l 1
 259 137 l 1
 134 137 l 1
 114 0 l 1
 12 0 l 1
 126 700 l 1
 275 700 l 1
 389 0 l 1
 348 0 l 1
 323 -21 318 -44 318 -58 c 0
147 232 m 1
 246 232 l 1
 197 578 l 1
 195 578 l 1
 147 232 l 1
EndSplineSet
EndChar

StartChar: atilde
Encoding: 227 227 111
Width: 401
GlyphClass: 2
Flags: W
HStem: 0 21G<12 116.92 276.122 389> 137 95<147 246> 680 20G<122.743 278.257> 750 77<197.042 277.406> 782 77<124.594 204.958>
AnchorPoint: "Anchor-4" 201 866 basechar 0
AnchorPoint: "Anchor-3" 389 0 basechar 0
AnchorPoint: "Anchor-2" 201 0 basechar 0
LayerCount: 2
Fore
SplineSet
115 743 m 1xe8
 62 775 l 1
 87 831 115 859 153 859 c 0xe8
 180 859 198 849 213 840 c 0
 225 833 235 827 247 827 c 0
 263 827 274 838 287 866 c 1
 340 834 l 1
 315 778 287 750 249 750 c 0xf0
 222 750 204 760 189 769 c 0
 177 776 167 782 155 782 c 0
 139 782 128 771 115 743 c 1xe8
12 0 m 1
 126 700 l 1
 275 700 l 1
 389 0 l 1
 279 0 l 1
 259 139 l 1
 259 137 l 1
 134 137 l 1
 114 0 l 1
 12 0 l 1
147 232 m 1
 246 232 l 1
 197 578 l 1
 195 578 l 1
 147 232 l 1
EndSplineSet
EndChar

StartChar: ae
Encoding: 230 230 112
Width: 580
GlyphClass: 2
Flags: W
HStem: 0 100<368 558> 137 95<174 258> 315 100<368 519> 600 100<368 558>
VStem: 258 110<100 137 232 315 415 565>
AnchorPoint: "Anchor-4" 288 700 basechar 0
AnchorPoint: "Anchor-2" 288 0 basechar 0
LayerCount: 2
Fore
SplineSet
10 0 m 1
 197 700 l 1
 558 700 l 1
 558 600 l 1
 368 600 l 1
 368 415 l 1
 519 415 l 1
 519 315 l 1
 368 315 l 1
 368 100 l 1
 558 100 l 1
 558 0 l 1
 258 0 l 1
 258 137 l 1
 150 137 l 1
 115 0 l 1
 10 0 l 1
174 232 m 1
 258 232 l 1
 258 565 l 1
 256 565 l 1
 174 232 l 1
EndSplineSet
EndChar

StartChar: aeacute
Encoding: 509 509 113
Width: 580
GlyphClass: 2
Flags: W
HStem: 0 100<368 558> 137 95<174 258> 315 100<368 519> 600 100<368 558>
VStem: 258 110<100 137 232 315 415 565>
AnchorPoint: "Anchor-4" 288 862 basechar 0
AnchorPoint: "Anchor-2" 288 0 basechar 0
LayerCount: 2
Fore
SplineSet
228 747 m 1
 298 862 l 1
 418 862 l 1
 311 747 l 1
 228 747 l 1
10 0 m 1
 197 700 l 1
 558 700 l 1
 558 600 l 1
 368 600 l 1
 368 415 l 1
 519 415 l 1
 519 315 l 1
 368 315 l 1
 368 100 l 1
 558 100 l 1
 558 0 l 1
 258 0 l 1
 258 137 l 1
 150 137 l 1
 115 0 l 1
 10 0 l 1
174 232 m 1
 258 232 l 1
 258 565 l 1
 256 565 l 1
 174 232 l 1
EndSplineSet
EndChar

StartChar: b
Encoding: 98 98 114
Width: 404
GlyphClass: 2
Flags: W
HStem: 0 100<151 257.251> 315 100<151 247.115> 600 100<151 246.734>
VStem: 41 110<100 315 415 600> 260 110<427.948 589.823> 271 110<110.576 299.441>
AnchorPoint: "Anchor-4" 191 700 basechar 0
AnchorPoint: "Anchor-2" 202 0 basechar 0
LayerCount: 2
Fore
SplineSet
41 0 m 1xf4
 41 700 l 1
 207 700 l 2
 321 700 370 647 370 539 c 2
 370 511 l 2xf8
 370 439 348 394 299 374 c 1
 299 372 l 1
 358 352 381 300 381 226 c 2
 381 166 l 2
 381 58 324 0 214 0 c 2
 41 0 l 1xf4
151 415 m 1
 194 415 l 2
 235 415 260 433 260 489 c 2
 260 528 l 2
 260 578 243 600 204 600 c 2
 151 600 l 1
 151 415 l 1
151 100 m 1
 214 100 l 2
 251 100 271 117 271 169 c 2
 271 230 l 2xf4
 271 295 250 315 200 315 c 2
 151 315 l 1
 151 100 l 1
EndSplineSet
EndChar

StartChar: uni1E03
Encoding: 7683 7683 115
Width: 404
GlyphClass: 2
Flags: W
HStem: 0 100<151 257.251> 315 100<151 247.115> 600 100<151 246.734> 747 102<141 241>
VStem: 41 110<100 315 415 600> 141 100<747 849> 260 110<427.948 589.823> 271 110<110.576 299.441>
AnchorPoint: "Anchor-4" 191 849 basechar 0
AnchorPoint: "Anchor-2" 202 0 basechar 0
LayerCount: 2
Fore
SplineSet
141 747 m 1xf4
 141 849 l 1
 241 849 l 1
 241 747 l 1
 141 747 l 1xf4
41 0 m 1xf9
 41 700 l 1
 207 700 l 2
 321 700 370 647 370 539 c 2
 370 511 l 2xfa
 370 439 348 394 299 374 c 1
 299 372 l 1
 358 352 381 300 381 226 c 2
 381 166 l 2
 381 58 324 0 214 0 c 2
 41 0 l 1xf9
151 415 m 1
 194 415 l 2
 235 415 260 433 260 489 c 2
 260 528 l 2
 260 578 243 600 204 600 c 2
 151 600 l 1
 151 415 l 1
151 100 m 1
 214 100 l 2
 251 100 271 117 271 169 c 2
 271 230 l 2xf9
 271 295 250 315 200 315 c 2
 151 315 l 1
 151 100 l 1
EndSplineSet
EndChar

StartChar: c
Encoding: 99 99 116
Width: 383
GlyphClass: 2
Flags: W
HStem: -10 100<154.21 242.924> 610 100<154.21 242.924>
VStem: 34 110<101.801 598.199> 254 104<101.801 261 464 598.199>
AnchorPoint: "Anchor-4" 193 700 basechar 0
AnchorPoint: "Anchor-2" 197 0 basechar 0
LayerCount: 2
Fore
SplineSet
196 -10 m 0
 90 -10 34 54 34 162 c 2
 34 538 l 2
 34 646 90 710 196 710 c 0
 302 710 358 646 358 538 c 2
 358 464 l 1
 254 464 l 1
 254 545 l 2
 254 591 232 610 199 610 c 0
 166 610 144 591 144 545 c 2
 144 154 l 2
 144 108 166 90 199 90 c 0
 232 90 254 108 254 154 c 2
 254 261 l 1
 358 261 l 1
 358 162 l 2
 358 54 302 -10 196 -10 c 0
EndSplineSet
EndChar

StartChar: cacute
Encoding: 263 263 117
Width: 383
GlyphClass: 2
Flags: W
HStem: -10 100<154.21 242.924> 610 100<154.21 242.924>
VStem: 34 110<101.801 598.199> 254 104<101.801 261 464 598.199>
AnchorPoint: "Anchor-4" 193 862 basechar 0
AnchorPoint: "Anchor-2" 197 0 basechar 0
LayerCount: 2
Fore
SplineSet
133 747 m 1
 203 862 l 1
 323 862 l 1
 216 747 l 1
 133 747 l 1
196 -10 m 0
 90 -10 34 54 34 162 c 2
 34 538 l 2
 34 646 90 710 196 710 c 0
 302 710 358 646 358 538 c 2
 358 464 l 1
 254 464 l 1
 254 545 l 2
 254 591 232 610 199 610 c 0
 166 610 144 591 144 545 c 2
 144 154 l 2
 144 108 166 90 199 90 c 0
 232 90 254 108 254 154 c 2
 254 261 l 1
 358 261 l 1
 358 162 l 2
 358 54 302 -10 196 -10 c 0
EndSplineSet
EndChar

StartChar: ccaron
Encoding: 269 269 118
Width: 383
GlyphClass: 2
Flags: W
HStem: -10 100<154.21 242.924> 610 100<154.21 242.924>
VStem: 34 110<101.801 598.199> 254 104<101.801 261 464 598.199>
AnchorPoint: "Anchor-4" 193 862 basechar 0
AnchorPoint: "Anchor-2" 197 0 basechar 0
LayerCount: 2
Fore
SplineSet
141 747 m 1
 59 862 l 1
 142 862 l 1
 193 807 l 1
 244 862 l 1
 327 862 l 1
 245 747 l 1
 141 747 l 1
196 -10 m 0
 90 -10 34 54 34 162 c 2
 34 538 l 2
 34 646 90 710 196 710 c 0
 302 710 358 646 358 538 c 2
 358 464 l 1
 254 464 l 1
 254 545 l 2
 254 591 232 610 199 610 c 0
 166 610 144 591 144 545 c 2
 144 154 l 2
 144 108 166 90 199 90 c 0
 232 90 254 108 254 154 c 2
 254 261 l 1
 358 261 l 1
 358 162 l 2
 358 54 302 -10 196 -10 c 0
EndSplineSet
EndChar

StartChar: ccedilla
Encoding: 231 231 119
Width: 383
GlyphClass: 2
Flags: W
HStem: -147 40<168.042 213.983> 610 100<154.21 242.924>
VStem: 34 110<101.987 598.199> 93 74<-106.45 -79> 173 49<-39 -5.92732> 215 76<-106.487 -58.4026> 254 104<102.5 261 464 598.199>
AnchorPoint: "Anchor-4" 193 700 basechar 0
AnchorPoint: "Anchor-2" 197 -147 basechar 0
LayerCount: 2
Fore
SplineSet
358 464 m 1xea
 254 464 l 1
 254 545 l 2
 254 591 232 610 199 610 c 0
 166 610 144 591 144 545 c 2
 144 154 l 2
 144 108 166 90 199 90 c 0
 232 90 254 108 254 154 c 2
 254 261 l 1
 358 261 l 1
 358 162 l 2
 358 63 311 1 222 -9 c 1
 222 -39 l 1xea
 266 -39 291 -51 291 -86 c 0
 291 -140 249 -147 189 -147 c 0
 134 -147 93 -135 93 -89 c 2
 93 -79 l 1
 167 -79 l 1
 167 -87 l 2
 167 -102 178 -107 189 -107 c 0
 207 -107 215 -100 215 -83 c 0xd4
 215 -64 203 -57 178 -57 c 2
 173 -57 l 1
 173 -9 l 1
 82 0 34 62 34 162 c 2
 34 538 l 2
 34 646 90 710 196 710 c 0
 302 710 358 646 358 538 c 2
 358 464 l 1xea
EndSplineSet
EndChar

StartChar: ccircumflex
Encoding: 265 265 120
Width: 383
GlyphClass: 2
Flags: W
HStem: -10 100<154.21 242.924> 610 100<154.21 242.924>
VStem: 34 110<101.801 598.199> 254 104<101.801 261 464 598.199>
AnchorPoint: "Anchor-4" 193 862 basechar 0
AnchorPoint: "Anchor-2" 197 0 basechar 0
LayerCount: 2
Fore
SplineSet
59 747 m 1
 141 862 l 1
 245 862 l 1
 327 747 l 1
 244 747 l 1
 193 802 l 1
 142 747 l 1
 59 747 l 1
196 -10 m 0
 90 -10 34 54 34 162 c 2
 34 538 l 2
 34 646 90 710 196 710 c 0
 302 710 358 646 358 538 c 2
 358 464 l 1
 254 464 l 1
 254 545 l 2
 254 591 232 610 199 610 c 0
 166 610 144 591 144 545 c 2
 144 154 l 2
 144 108 166 90 199 90 c 0
 232 90 254 108 254 154 c 2
 254 261 l 1
 358 261 l 1
 358 162 l 2
 358 54 302 -10 196 -10 c 0
EndSplineSet
EndChar

StartChar: cdotaccent
Encoding: 267 267 121
Width: 383
GlyphClass: 2
Flags: W
HStem: -10 100<154.21 242.924> 610 100<154.21 242.924> 747 102<143 243>
VStem: 34 110<101.801 598.199> 143 100<747 849> 254 104<101.801 261 464 598.199>
AnchorPoint: "Anchor-4" 193 849 basechar 0
AnchorPoint: "Anchor-2" 197 0 basechar 0
LayerCount: 2
Fore
SplineSet
143 747 m 1xec
 143 849 l 1
 243 849 l 1
 243 747 l 1
 143 747 l 1xec
196 -10 m 0
 90 -10 34 54 34 162 c 2
 34 538 l 2
 34 646 90 710 196 710 c 0
 302 710 358 646 358 538 c 2
 358 464 l 1
 254 464 l 1
 254 545 l 2
 254 591 232 610 199 610 c 0
 166 610 144 591 144 545 c 2
 144 154 l 2xf4
 144 108 166 90 199 90 c 0
 232 90 254 108 254 154 c 2
 254 261 l 1
 358 261 l 1
 358 162 l 2
 358 54 302 -10 196 -10 c 0
EndSplineSet
EndChar

StartChar: d
Encoding: 100 100 122
Width: 406
GlyphClass: 2
Flags: W
HStem: 0 100<151 252.09> 600 100<151 252.09>
VStem: 41 110<100 600> 263 110<111.147 588.853>
AnchorPoint: "Anchor-5" 101 360 basechar 0
AnchorPoint: "Anchor-4" 195 700 basechar 0
AnchorPoint: "Anchor-2" 204 0 basechar 0
LayerCount: 2
Fore
SplineSet
41 0 m 1
 41 700 l 1
 209 700 l 2
 319 700 373 639 373 527 c 2
 373 173 l 2
 373 61 319 0 209 0 c 2
 41 0 l 1
151 100 m 1
 207 100 l 2
 242 100 263 118 263 168 c 2
 263 532 l 2
 263 582 242 600 207 600 c 2
 151 600 l 1
 151 100 l 1
EndSplineSet
EndChar

StartChar: eth
Encoding: 240 240 123
Width: 423
GlyphClass: 2
Flags: W
HStem: 0 100<168 269.09> 318 94<10 58 168 224> 600 100<168 269.09>
VStem: 58 110<100 318 412 600> 280 110<111.147 588.853>
AnchorPoint: "Anchor-5" 118 360 basechar 0
AnchorPoint: "Anchor-4" 212 700 basechar 0
AnchorPoint: "Anchor-2" 221 0 basechar 0
LayerCount: 2
Fore
SplineSet
226 700 m 2
 336 700 390 639 390 527 c 2
 390 173 l 2
 390 61 336 0 226 0 c 2
 58 0 l 1
 58 318 l 1
 10 318 l 1
 10 412 l 1
 58 412 l 1
 58 700 l 1
 226 700 l 2
280 168 m 2
 280 532 l 2
 280 582 259 600 224 600 c 2
 168 600 l 1
 168 412 l 1
 224 412 l 1
 224 318 l 1
 168 318 l 1
 168 100 l 1
 224 100 l 2
 259 100 280 118 280 168 c 2
EndSplineSet
EndChar

StartChar: dcaron
Encoding: 271 271 124
Width: 406
GlyphClass: 2
Flags: W
HStem: 0 100<151 252.09> 600 100<151 252.09>
VStem: 41 110<100 600> 263 110<111.147 588.853>
AnchorPoint: "Anchor-5" 101 360 basechar 0
AnchorPoint: "Anchor-4" 195 862 basechar 0
AnchorPoint: "Anchor-2" 204 0 basechar 0
LayerCount: 2
Fore
SplineSet
143 747 m 1
 61 862 l 1
 144 862 l 1
 195 807 l 1
 246 862 l 1
 329 862 l 1
 247 747 l 1
 143 747 l 1
41 0 m 1
 41 700 l 1
 209 700 l 2
 319 700 373 639 373 527 c 2
 373 173 l 2
 373 61 319 0 209 0 c 2
 41 0 l 1
151 100 m 1
 207 100 l 2
 242 100 263 118 263 168 c 2
 263 532 l 2
 263 582 242 600 207 600 c 2
 151 600 l 1
 151 100 l 1
EndSplineSet
EndChar

StartChar: dcroat
Encoding: 273 273 125
Width: 423
GlyphClass: 2
Flags: W
HStem: 0 100<168 269.09> 318 94<10 58 168 224> 600 100<168 269.09>
VStem: 58 110<100 318 412 600> 280 110<111.147 588.853>
AnchorPoint: "Anchor-5" 118 360 basechar 0
AnchorPoint: "Anchor-4" 212 700 basechar 0
AnchorPoint: "Anchor-2" 221 0 basechar 0
LayerCount: 2
Fore
SplineSet
226 700 m 2
 336 700 390 639 390 527 c 2
 390 173 l 2
 390 61 336 0 226 0 c 2
 58 0 l 1
 58 318 l 1
 10 318 l 1
 10 412 l 1
 58 412 l 1
 58 700 l 1
 226 700 l 2
280 168 m 2
 280 532 l 2
 280 582 259 600 224 600 c 2
 168 600 l 1
 168 412 l 1
 224 412 l 1
 224 318 l 1
 168 318 l 1
 168 100 l 1
 224 100 l 2
 259 100 280 118 280 168 c 2
EndSplineSet
EndChar

StartChar: uni1E0B
Encoding: 7691 7691 126
Width: 406
GlyphClass: 2
Flags: W
HStem: 0 100<151 252.09> 600 100<151 252.09> 747 102<145 245>
VStem: 41 110<100 600> 145 100<747 849> 263 110<111.147 588.853>
AnchorPoint: "Anchor-5" 101 360 basechar 0
AnchorPoint: "Anchor-4" 195 849 basechar 0
AnchorPoint: "Anchor-2" 204 0 basechar 0
LayerCount: 2
Fore
SplineSet
145 747 m 1xec
 145 849 l 1
 245 849 l 1
 245 747 l 1
 145 747 l 1xec
41 0 m 1xf4
 41 700 l 1
 209 700 l 2
 319 700 373 639 373 527 c 2
 373 173 l 2
 373 61 319 0 209 0 c 2
 41 0 l 1xf4
151 100 m 1
 207 100 l 2
 242 100 263 118 263 168 c 2
 263 532 l 2
 263 582 242 600 207 600 c 2
 151 600 l 1
 151 100 l 1
EndSplineSet
EndChar

StartChar: e
Encoding: 101 101 127
Width: 363
GlyphClass: 2
Flags: W
HStem: 0 100<151 341> 315 100<151 302> 600 100<151 341>
VStem: 41 300<0 100 600 700> 41 110<100 315 415 600>
AnchorPoint: "Anchor-4" 191 700 basechar 0
AnchorPoint: "Anchor-3" 341 0 basechar 0
AnchorPoint: "Anchor-2" 180 0 basechar 0
LayerCount: 2
Fore
SplineSet
41 0 m 1xf0
 41 700 l 1
 341 700 l 1
 341 600 l 1xf0
 151 600 l 1
 151 415 l 1
 302 415 l 1
 302 315 l 1
 151 315 l 1
 151 100 l 1xe8
 341 100 l 1
 341 0 l 1
 41 0 l 1xf0
EndSplineSet
EndChar

StartChar: edieresis
Encoding: 235 235 128
Width: 363
GlyphClass: 2
Flags: W
HStem: 0 100<151 341> 315 100<151 302> 600 100<151 341> 747 102<65 163 219 317>
VStem: 41 300<0 100 600 700> 41 110<100 315 415 600> 65 98<747 849> 219 98<747 849>
AnchorPoint: "Anchor-4" 191 849 basechar 0
AnchorPoint: "Anchor-3" 341 0 basechar 0
AnchorPoint: "Anchor-2" 180 0 basechar 0
LayerCount: 2
Fore
SplineSet
65 747 m 1xf2
 65 849 l 1
 163 849 l 1
 163 747 l 1
 65 747 l 1xf2
219 747 m 1xf1
 219 849 l 1
 317 849 l 1
 317 747 l 1
 219 747 l 1xf1
41 0 m 1xf8
 41 700 l 1
 341 700 l 1
 341 600 l 1xf8
 151 600 l 1
 151 415 l 1
 302 415 l 1
 302 315 l 1
 151 315 l 1
 151 100 l 1xf4
 341 100 l 1
 341 0 l 1
 41 0 l 1xf8
EndSplineSet
EndChar

StartChar: edotaccent
Encoding: 279 279 129
Width: 363
GlyphClass: 2
Flags: W
HStem: 0 100<151 341> 315 100<151 302> 600 100<151 341> 747 102<141 241>
VStem: 41 300<0 100 600 700> 41 110<100 315 415 600> 141 100<747 849>
AnchorPoint: "Anchor-4" 191 849 basechar 0
AnchorPoint: "Anchor-3" 341 0 basechar 0
AnchorPoint: "Anchor-2" 180 0 basechar 0
LayerCount: 2
Fore
SplineSet
141 747 m 1xf2
 141 849 l 1
 241 849 l 1
 241 747 l 1
 141 747 l 1xf2
41 0 m 1xf8
 41 700 l 1
 341 700 l 1
 341 600 l 1xf8
 151 600 l 1
 151 415 l 1
 302 415 l 1
 302 315 l 1
 151 315 l 1
 151 100 l 1xf4
 341 100 l 1
 341 0 l 1
 41 0 l 1xf8
EndSplineSet
EndChar

StartChar: eogonek
Encoding: 281 281 130
Width: 363
GlyphClass: 2
Flags: W
HStem: -147 61<244.883 340.207> 0 100<151 253 280.699 341> 315 100<151 302> 600 100<151 341>
VStem: 41 300<0 100 600 700> 41 110<100 315 415 600> 185 85<-105.5 -33.6506>
AnchorPoint: "Anchor-4" 191 700 basechar 0
AnchorPoint: "Anchor-3" 341 0 basechar 0
AnchorPoint: "Anchor-2" 180 0 basechar 0
LayerCount: 2
Fore
SplineSet
341 600 m 1xf8
 151 600 l 1
 151 415 l 1
 302 415 l 1
 302 315 l 1
 151 315 l 1
 151 100 l 1xf4
 341 100 l 1
 341 0 l 1xf8
 300 0 l 1
 275 -21 270 -44 270 -58 c 0xf2
 270 -77 287 -86 305 -86 c 0
 325 -86 330 -83 341 -80 c 1
 341 -136 l 1xf8
 318 -145 301 -147 273 -147 c 0
 219 -147 185 -126 185 -85 c 0xf2
 185 -53 207 -23 253 0 c 1
 41 0 l 1
 41 700 l 1
 341 700 l 1
 341 600 l 1xf8
EndSplineSet
EndChar

StartChar: f
Encoding: 102 102 131
Width: 344
GlyphClass: 2
Flags: W
HStem: 0 21G<41 151> 305 100<151 293> 600 100<151 332>
VStem: 41 110<0 305 405 600>
AnchorPoint: "Anchor-4" 183 700 basechar 0
AnchorPoint: "Anchor-2" 172 0 basechar 0
LayerCount: 2
Fore
SplineSet
41 0 m 1
 41 700 l 1
 332 700 l 1
 332 600 l 1
 151 600 l 1
 151 405 l 1
 293 405 l 1
 293 305 l 1
 151 305 l 1
 151 0 l 1
 41 0 l 1
EndSplineSet
EndChar

StartChar: uni1E1F
Encoding: 7711 7711 132
Width: 344
GlyphClass: 2
Flags: W
HStem: 0 21G<41 151> 305 100<151 293> 600 100<151 332> 747 102<133 233>
VStem: 41 110<0 305 405 600> 133 100<747 849>
AnchorPoint: "Anchor-4" 183 849 basechar 0
AnchorPoint: "Anchor-2" 172 0 basechar 0
LayerCount: 2
Fore
SplineSet
133 747 m 1xf4
 133 849 l 1
 233 849 l 1
 233 747 l 1
 133 747 l 1xf4
41 0 m 1xf8
 41 700 l 1
 332 700 l 1
 332 600 l 1
 151 600 l 1
 151 405 l 1
 293 405 l 1
 293 305 l 1
 151 305 l 1
 151 0 l 1
 41 0 l 1xf8
EndSplineSet
EndChar

StartChar: g
Encoding: 103 103 133
Width: 391
GlyphClass: 2
Flags: W
HStem: -10 100<153.911 245.256> 295 100<202 257> 610 100<154.302 244.865>
VStem: 33 110<99.8508 596.174> 202 159<295 395> 257 104<99.8508 295 474 596.174>
AnchorPoint: "Anchor-4" 197 700 basechar 0
AnchorPoint: "Anchor-2" 196 0 basechar 0
LayerCount: 2
Fore
SplineSet
197 -10 m 0xf4
 89 -10 33 54 33 166 c 2
 33 534 l 2
 33 646 89 710 197 710 c 0
 305 710 361 646 361 534 c 2
 361 474 l 1
 257 474 l 1
 257 541 l 2
 257 591 235 610 200 610 c 0
 165 610 143 591 143 541 c 2
 143 158 l 2
 143 108 165 90 200 90 c 0
 235 90 257 108 257 158 c 2
 257 295 l 1xf4
 202 295 l 1
 202 395 l 1
 361 395 l 1xf8
 361 166 l 2
 361 54 305 -10 197 -10 c 0xf4
EndSplineSet
EndChar

StartChar: gbreve
Encoding: 287 287 134
Width: 391
GlyphClass: 2
Flags: W
HStem: -10 100<153.911 245.256> 295 100<202 257> 610 100<154.302 244.865> 743 71<151.987 241.073>
VStem: 33 110<99.8508 596.174> 79 65<820.691 862> 202 159<295 395> 250 65<823.539 862> 257 104<99.8508 295 474 596.174>
AnchorPoint: "Anchor-4" 197 862 basechar 0
AnchorPoint: "Anchor-2" 196 0 basechar 0
LayerCount: 2
Fore
SplineSet
196 743 m 0xf5
 121 743 82 788 79 862 c 1
 144 862 l 1
 149 824 168 814 196 814 c 0
 225 814 245 824 250 862 c 1
 315 862 l 1
 313 788 271 743 196 743 c 0xf5
197 -10 m 0
 89 -10 33 54 33 166 c 2
 33 534 l 2
 33 646 89 710 197 710 c 0
 305 710 361 646 361 534 c 2
 361 474 l 1
 257 474 l 1
 257 541 l 2
 257 591 235 610 200 610 c 0
 165 610 143 591 143 541 c 2
 143 158 l 2
 143 108 165 90 200 90 c 0
 235 90 257 108 257 158 c 2
 257 295 l 1xf880
 202 295 l 1
 202 395 l 1
 361 395 l 1xf2
 361 166 l 2xf080
 361 54 305 -10 197 -10 c 0
EndSplineSet
EndChar

StartChar: gcircumflex
Encoding: 285 285 135
Width: 391
GlyphClass: 2
Flags: W
HStem: -10 100<153.911 245.256> 295 100<202 257> 610 100<154.302 244.865>
VStem: 33 110<99.8508 596.174> 202 159<295 395> 257 104<99.8508 295 474 596.174>
AnchorPoint: "Anchor-4" 197 862 basechar 0
AnchorPoint: "Anchor-2" 196 0 basechar 0
LayerCount: 2
Fore
SplineSet
63 747 m 1xf0
 145 862 l 1
 249 862 l 1
 331 747 l 1
 248 747 l 1
 197 802 l 1
 146 747 l 1
 63 747 l 1xf0
197 -10 m 0
 89 -10 33 54 33 166 c 2
 33 534 l 2
 33 646 89 710 197 710 c 0
 305 710 361 646 361 534 c 2
 361 474 l 1
 257 474 l 1
 257 541 l 2
 257 591 235 610 200 610 c 0
 165 610 143 591 143 541 c 2
 143 158 l 2
 143 108 165 90 200 90 c 0
 235 90 257 108 257 158 c 2
 257 295 l 1xf4
 202 295 l 1
 202 395 l 1
 361 395 l 1xf8
 361 166 l 2xf4
 361 54 305 -10 197 -10 c 0
EndSplineSet
EndChar

StartChar: uni0123
Encoding: 291 291 136
Width: 391
GlyphClass: 2
Flags: W
HStem: -135 92<150 186> -10 100<153.911 245.256> 295 100<202 257> 610 100<154.302 244.865>
VStem: 33 110<99.8508 596.174> 150 92<-125 -43> 202 159<295 395> 257 104<99.8508 295 474 596.174>
AnchorPoint: "Anchor-4" 197 700 basechar 0
AnchorPoint: "Anchor-2" 196 -189 basechar 0
LayerCount: 2
Fore
SplineSet
197 -10 m 0xf9
 89 -10 33 54 33 166 c 2
 33 534 l 2
 33 646 89 710 197 710 c 0
 305 710 361 646 361 534 c 2
 361 474 l 1
 257 474 l 1
 257 541 l 2
 257 591 235 610 200 610 c 0
 165 610 143 591 143 541 c 2
 143 158 l 2
 143 108 165 90 200 90 c 0
 235 90 257 108 257 158 c 2
 257 295 l 1xf9
 202 295 l 1
 202 395 l 1
 361 395 l 1xfa
 361 166 l 2
 361 54 305 -10 197 -10 c 0xf9
160 -189 m 1
 186 -135 l 1
 150 -135 l 1
 150 -43 l 1
 242 -43 l 1
 242 -125 l 1xfc
 199 -189 l 1
 160 -189 l 1
EndSplineSet
EndChar

StartChar: gdotaccent
Encoding: 289 289 137
Width: 391
GlyphClass: 2
Flags: W
HStem: -10 100<153.911 245.256> 295 100<202 257> 610 100<154.302 244.865> 747 102<147 247>
VStem: 33 110<99.8508 596.174> 147 100<747 849> 202 159<295 395> 257 104<99.8508 295 474 596.174>
AnchorPoint: "Anchor-4" 197 849 basechar 0
AnchorPoint: "Anchor-2" 196 0 basechar 0
LayerCount: 2
Fore
SplineSet
147 747 m 1xfc
 147 849 l 1
 247 849 l 1
 247 747 l 1
 147 747 l 1xfc
197 -10 m 0
 89 -10 33 54 33 166 c 2
 33 534 l 2
 33 646 89 710 197 710 c 0
 305 710 361 646 361 534 c 2
 361 474 l 1
 257 474 l 1
 257 541 l 2
 257 591 235 610 200 610 c 0
 165 610 143 591 143 541 c 2
 143 158 l 2
 143 108 165 90 200 90 c 0
 235 90 257 108 257 158 c 2
 257 295 l 1xf9
 202 295 l 1
 202 395 l 1
 361 395 l 1xfa
 361 166 l 2xf9
 361 54 305 -10 197 -10 c 0
EndSplineSet
EndChar

StartChar: h
Encoding: 104 104 138
Width: 420
GlyphClass: 2
Flags: W
HStem: 0 21G<41 151 269 379> 315 100<151 269> 680 20G<41 151 269 379>
VStem: 41 110<0 315 415 700> 269 110<0 315 415 700>
AnchorPoint: "Anchor-5" 210 542 basechar 0
AnchorPoint: "Anchor-4" 210 700 basechar 0
AnchorPoint: "Anchor-2" 210 0 basechar 0
LayerCount: 2
Fore
SplineSet
41 0 m 1
 41 700 l 1
 151 700 l 1
 151 415 l 1
 269 415 l 1
 269 700 l 1
 379 700 l 1
 379 0 l 1
 269 0 l 1
 269 315 l 1
 151 315 l 1
 151 0 l 1
 41 0 l 1
EndSplineSet
EndChar

StartChar: hbar
Encoding: 295 295 139
Width: 438
GlyphClass: 2
Flags: W
HStem: 0 21G<50 160 278 388> 315 100<160 278> 513 90<10 50 160 278 388 428> 680 20G<50 160 278 388>
VStem: 50 110<0 315 415 513 603 700> 278 110<0 315 415 513 603 700>
AnchorPoint: "Anchor-5" 219 542 basechar 0
AnchorPoint: "Anchor-4" 219 700 basechar 0
AnchorPoint: "Anchor-2" 219 0 basechar 0
LayerCount: 2
Fore
SplineSet
428 603 m 1
 428 513 l 1
 388 513 l 1
 388 0 l 1
 278 0 l 1
 278 315 l 1
 160 315 l 1
 160 0 l 1
 50 0 l 1
 50 513 l 1
 10 513 l 1
 10 603 l 1
 50 603 l 1
 50 700 l 1
 160 700 l 1
 160 603 l 1
 278 603 l 1
 278 700 l 1
 388 700 l 1
 388 603 l 1
 428 603 l 1
278 415 m 1
 278 513 l 1
 160 513 l 1
 160 415 l 1
 278 415 l 1
EndSplineSet
EndChar

StartChar: hcircumflex
Encoding: 293 293 140
Width: 420
GlyphClass: 2
Flags: W
HStem: 0 21G<41 151 269 379> 315 100<151 269> 680 20G<41 151 269 379>
VStem: 41 110<0 315 415 700> 269 110<0 315 415 700>
AnchorPoint: "Anchor-5" 210 542 basechar 0
AnchorPoint: "Anchor-4" 210 862 basechar 0
AnchorPoint: "Anchor-2" 210 0 basechar 0
LayerCount: 2
Fore
SplineSet
76 747 m 1
 158 862 l 1
 262 862 l 1
 344 747 l 1
 261 747 l 1
 210 802 l 1
 159 747 l 1
 76 747 l 1
41 0 m 1
 41 700 l 1
 151 700 l 1
 151 415 l 1
 269 415 l 1
 269 700 l 1
 379 700 l 1
 379 0 l 1
 269 0 l 1
 269 315 l 1
 151 315 l 1
 151 0 l 1
 41 0 l 1
EndSplineSet
EndChar

StartChar: i
Encoding: 105 105 141
Width: 192
GlyphClass: 2
Flags: W
HStem: 0 21G<41 151> 680 20G<41 151>
VStem: 41 110<0 700>
AnchorPoint: "Anchor-4" 96 700 basechar 0
AnchorPoint: "Anchor-3" 173 0 basechar 0
AnchorPoint: "Anchor-2" 96 0 basechar 0
LayerCount: 2
Fore
SplineSet
41 0 m 1
 41 700 l 1
 151 700 l 1
 151 0 l 1
 41 0 l 1
EndSplineSet
Substitution2: "Single Substitution lookup 23 subtable" dotlessi
Substitution2: "'locl' Localized Forms in Latin lookup 11 subtable" i.loclTRK
Substitution2: "'locl' Localized Forms in Latin lookup 10 subtable" i.loclTRK
Substitution2: "'locl' Localized Forms in Latin lookup 9 subtable" i.loclTRK
Substitution2: "'locl' Localized Forms in Latin lookup 8 subtable" i.loclTRK
Substitution2: "'locl' Localized Forms in Latin lookup 7 subtable" i.loclTRK
AlternateSubs2: "'aalt' Access All Alternates in Latin lookup 1 subtable" dotlessi i.loclTRK
EndChar

StartChar: dotlessi
Encoding: 305 305 142
Width: 192
GlyphClass: 2
Flags: W
HStem: 0 21G<41 151> 680 20G<41 151>
VStem: 41 110<0 700>
AnchorPoint: "Anchor-4" 96 700 basechar 0
AnchorPoint: "Anchor-3" 173 0 basechar 0
AnchorPoint: "Anchor-2" 96 0 basechar 0
LayerCount: 2
Fore
SplineSet
41 0 m 1
 41 700 l 1
 151 700 l 1
 151 0 l 1
 41 0 l 1
EndSplineSet
EndChar

StartChar: idieresis
Encoding: 239 239 143
Width: 192
GlyphClass: 2
Flags: W
HStem: 0 21G<41 151> 680 20G<41 151> 747 102<-30 68 124 222>
VStem: -30 98<747 849> 41 110<0 700> 124 98<747 849>
AnchorPoint: "Anchor-4" 96 849 basechar 0
AnchorPoint: "Anchor-3" 173 0 basechar 0
AnchorPoint: "Anchor-2" 96 0 basechar 0
LayerCount: 2
Fore
SplineSet
-30 747 m 1xf0
 -30 849 l 1
 68 849 l 1
 68 747 l 1
 -30 747 l 1xf0
124 747 m 1xe4
 124 849 l 1
 222 849 l 1
 222 747 l 1
 124 747 l 1xe4
41 0 m 1xe8
 41 700 l 1
 151 700 l 1
 151 0 l 1
 41 0 l 1xe8
EndSplineSet
EndChar

StartChar: i.loclTRK
Encoding: 65539 -1 144
Width: 192
GlyphClass: 2
Flags: W
HStem: 0 21G<41 151> 680 20G<41 151> 747 102<46 146>
VStem: 41 110<0 700 747 849>
AnchorPoint: "Anchor-4" 96 849 basechar 0
AnchorPoint: "Anchor-3" 173 0 basechar 0
AnchorPoint: "Anchor-2" 96 0 basechar 0
LayerCount: 2
Fore
SplineSet
46 747 m 1
 46 849 l 1
 146 849 l 1
 146 747 l 1
 46 747 l 1
41 0 m 1
 41 700 l 1
 151 700 l 1
 151 0 l 1
 41 0 l 1
EndSplineSet
EndChar

StartChar: ij
Encoding: 307 307 145
Width: 457
GlyphClass: 2
Flags: W
HStem: -4 100<208 297.26> 680 20G<41 151 309 419>
VStem: 41 110<0 700> 309 110<107.608 700>
AnchorPoint: "Anchor-4" 349 700 basechar 0
AnchorPoint: "Anchor-3" 173 0 basechar 0
AnchorPoint: "Anchor-2" 327 0 basechar 0
LayerCount: 2
Fore
SplineSet
41 0 m 1
 41 700 l 1
 151 700 l 1
 151 0 l 1
 41 0 l 1
259 -4 m 0
 239 -4 224 -3 208 0 c 1
 208 100 l 1
 220 97 232 96 244 96 c 0
 288 96 309 117 309 163 c 2
 309 700 l 1
 419 700 l 1
 419 166 l 2
 419 51 367 -4 259 -4 c 0
EndSplineSet
EndChar

StartChar: iogonek
Encoding: 303 303 146
Width: 192
GlyphClass: 2
Flags: W
HStem: -147 61<76.8828 172.207> 680 20G<41 151>
VStem: 17 85<-105.5 -33.6506> 41 110<0 700>
AnchorPoint: "Anchor-4" 96 700 basechar 0
AnchorPoint: "Anchor-3" 173 0 basechar 0
AnchorPoint: "Anchor-2" 96 0 basechar 0
LayerCount: 2
Fore
SplineSet
137 -86 m 0xe0
 157 -86 162 -83 173 -80 c 1
 173 -136 l 1
 150 -145 133 -147 105 -147 c 0
 51 -147 17 -126 17 -85 c 0xe0
 17 -53 39 -23 85 0 c 1
 41 0 l 1
 41 700 l 1
 151 700 l 1
 151 0 l 1xd0
 132 0 l 1
 107 -21 102 -44 102 -58 c 0
 102 -77 119 -86 137 -86 c 0xe0
EndSplineSet
EndChar

StartChar: itilde
Encoding: 297 297 147
Width: 192
GlyphClass: 2
Flags: W
HStem: 0 21G<41 151> 680 20G<41 151> 750 77<92.0421 172.406> 782 77<19.5943 99.9579>
VStem: 41 110<0 700>
AnchorPoint: "Anchor-4" 96 866 basechar 0
AnchorPoint: "Anchor-3" 173 0 basechar 0
AnchorPoint: "Anchor-2" 96 0 basechar 0
LayerCount: 2
Fore
SplineSet
10 743 m 1xd8
 -43 775 l 1
 -18 831 10 859 48 859 c 0xd8
 75 859 93 849 108 840 c 0
 120 833 130 827 142 827 c 0
 158 827 169 838 182 866 c 1
 235 834 l 1
 210 778 182 750 144 750 c 0xe8
 117 750 99 760 84 769 c 0
 72 776 62 782 50 782 c 0
 34 782 23 771 10 743 c 1xd8
41 0 m 1
 41 700 l 1
 151 700 l 1
 151 0 l 1
 41 0 l 1
EndSplineSet
EndChar

StartChar: j
Encoding: 106 106 148
Width: 265
GlyphClass: 2
Flags: W
HStem: -4 100<16 105.26> 680 20G<117 227>
VStem: 117 110<107.608 700>
AnchorPoint: "Anchor-4" 157 700 basechar 0
AnchorPoint: "Anchor-2" 135 0 basechar 0
LayerCount: 2
Fore
SplineSet
67 -4 m 0
 47 -4 32 -3 16 0 c 1
 16 100 l 1
 28 97 40 96 52 96 c 0
 96 96 117 117 117 163 c 2
 117 700 l 1
 227 700 l 1
 227 166 l 2
 227 51 175 -4 67 -4 c 0
EndSplineSet
Substitution2: "Single Substitution lookup 24 subtable" uni006A0301
Substitution2: "Single Substitution lookup 23 subtable" dotlessj
AlternateSubs2: "'aalt' Access All Alternates in Latin lookup 1 subtable" dotlessj uni006A0301
EndChar

StartChar: dotlessj
Encoding: 567 567 149
Width: 265
GlyphClass: 2
Flags: W
HStem: -4 100<16 105.26> 680 20G<117 227>
VStem: 117 110<107.608 700>
AnchorPoint: "Anchor-4" 157 700 basechar 0
AnchorPoint: "Anchor-2" 135 0 basechar 0
LayerCount: 2
Fore
SplineSet
67 -4 m 0
 47 -4 32 -3 16 0 c 1
 16 100 l 1
 28 97 40 96 52 96 c 0
 96 96 117 117 117 163 c 2
 117 700 l 1
 227 700 l 1
 227 166 l 2
 227 51 175 -4 67 -4 c 0
EndSplineSet
EndChar

StartChar: uni006A0301
Encoding: 65540 -1 150
Width: 265
GlyphClass: 2
Flags: W
HStem: -4 100<16 105.26> 680 20G<117 227>
VStem: 117 110<107.608 700>
AnchorPoint: "Anchor-4" 157 862 basechar 0
AnchorPoint: "Anchor-2" 135 0 basechar 0
LayerCount: 2
Fore
SplineSet
97 747 m 1
 167 862 l 1
 287 862 l 1
 180 747 l 1
 97 747 l 1
67 -4 m 0
 47 -4 32 -3 16 0 c 1
 16 100 l 1
 28 97 40 96 52 96 c 0
 96 96 117 117 117 163 c 2
 117 700 l 1
 227 700 l 1
 227 166 l 2
 227 51 175 -4 67 -4 c 0
EndSplineSet
EndChar

StartChar: jcircumflex
Encoding: 309 309 151
Width: 265
GlyphClass: 2
Flags: W
HStem: -4 100<16 105.26> 680 20G<117 227>
VStem: 117 110<107.608 700>
AnchorPoint: "Anchor-4" 157 862 basechar 0
AnchorPoint: "Anchor-2" 135 0 basechar 0
LayerCount: 2
Fore
SplineSet
23 747 m 1
 105 862 l 1
 209 862 l 1
 291 747 l 1
 208 747 l 1
 157 802 l 1
 106 747 l 1
 23 747 l 1
67 -4 m 0
 47 -4 32 -3 16 0 c 1
 16 100 l 1
 28 97 40 96 52 96 c 0
 96 96 117 117 117 163 c 2
 117 700 l 1
 227 700 l 1
 227 166 l 2
 227 51 175 -4 67 -4 c 0
EndSplineSet
EndChar

StartChar: k
Encoding: 107 107 152
Width: 414
GlyphClass: 2
Flags: W
HStem: 0 21G<41 151 282.038 403> 680 20G<41 151 281.508 401>
VStem: 41 110<0 223 405 700>
AnchorPoint: "Anchor-4" 207 700 basechar 0
AnchorPoint: "Anchor-2" 217 0 basechar 0
LayerCount: 2
Fore
SplineSet
41 0 m 1
 41 700 l 1
 151 700 l 1
 151 405 l 1
 291 700 l 1
 401 700 l 1
 270 443 l 1
 403 0 l 1
 288 0 l 1
 195 312 l 1
 151 223 l 1
 151 0 l 1
 41 0 l 1
EndSplineSet
EndChar

StartChar: uni0137
Encoding: 311 311 153
Width: 414
GlyphClass: 2
Flags: W
HStem: -135 92<171 207> 0 21G<41 151 282.038 403> 680 20G<41 151 281.508 401>
VStem: 41 110<0 223 405 700> 171 92<-125 -43>
AnchorPoint: "Anchor-4" 207 700 basechar 0
AnchorPoint: "Anchor-2" 217 -189 basechar 0
LayerCount: 2
Fore
SplineSet
41 0 m 1
 41 700 l 1
 151 700 l 1
 151 405 l 1
 291 700 l 1
 401 700 l 1
 270 443 l 1
 403 0 l 1
 288 0 l 1
 195 312 l 1
 151 223 l 1
 151 0 l 1
 41 0 l 1
181 -189 m 1
 207 -135 l 1
 171 -135 l 1
 171 -43 l 1
 263 -43 l 1
 263 -125 l 1
 220 -189 l 1
 181 -189 l 1
EndSplineSet
EndChar

StartChar: kgreenlandic
Encoding: 312 312 154
Width: 414
GlyphClass: 2
Flags: W
HStem: 0 21G<41 151 282.038 403> 680 20G<41 151 281.508 401>
VStem: 41 110<0 223 405 700>
AnchorPoint: "Anchor-4" 207 700 basechar 0
AnchorPoint: "Anchor-2" 217 0 basechar 0
LayerCount: 2
Fore
SplineSet
41 0 m 1
 41 700 l 1
 151 700 l 1
 151 405 l 1
 291 700 l 1
 401 700 l 1
 270 443 l 1
 403 0 l 1
 288 0 l 1
 195 312 l 1
 151 223 l 1
 151 0 l 1
 41 0 l 1
EndSplineSet
EndChar

StartChar: l
Encoding: 108 108 155
Width: 344
GlyphClass: 2
Flags: W
HStem: 0 100<151 332> 680 20G<41 151>
VStem: 41 110<100 700>
AnchorPoint: "Anchor-6" 260 700 basechar 0
AnchorPoint: "Anchor-5" 172 350 basechar 0
AnchorPoint: "Anchor-4" 106 700 basechar 0
AnchorPoint: "Anchor-2" 187 0 basechar 0
LayerCount: 2
Fore
SplineSet
41 0 m 1
 41 700 l 1
 151 700 l 1
 151 100 l 1
 332 100 l 1
 332 0 l 1
 41 0 l 1
EndSplineSet
EndChar

StartChar: lacute
Encoding: 314 314 156
Width: 344
GlyphClass: 2
Flags: W
HStem: 0 100<151 332> 680 20G<41 151>
VStem: 41 110<100 700>
AnchorPoint: "Anchor-6" 260 700 basechar 0
AnchorPoint: "Anchor-5" 172 350 basechar 0
AnchorPoint: "Anchor-4" 106 862 basechar 0
AnchorPoint: "Anchor-2" 187 0 basechar 0
LayerCount: 2
Fore
SplineSet
46 747 m 1
 116 862 l 1
 236 862 l 1
 129 747 l 1
 46 747 l 1
41 0 m 1
 41 700 l 1
 151 700 l 1
 151 100 l 1
 332 100 l 1
 332 0 l 1
 41 0 l 1
EndSplineSet
EndChar

StartChar: lcaron
Encoding: 318 318 157
Width: 344
GlyphClass: 2
Flags: W
HStem: 0 100<151 332> 598 102<209 249>
VStem: 41 110<100 700> 209 102<609 700>
AnchorPoint: "Anchor-6" 260 700 basechar 0
AnchorPoint: "Anchor-5" 172 350 basechar 0
AnchorPoint: "Anchor-4" 106 700 basechar 0
AnchorPoint: "Anchor-2" 187 0 basechar 0
LayerCount: 2
Fore
SplineSet
41 0 m 1
 41 700 l 1
 151 700 l 1
 151 100 l 1
 332 100 l 1
 332 0 l 1
 41 0 l 1
220 494 m 1
 249 598 l 1
 209 598 l 1
 209 700 l 1
 311 700 l 1
 311 609 l 1
 265 494 l 1
 220 494 l 1
EndSplineSet
EndChar

StartChar: uni013C
Encoding: 316 316 158
Width: 344
GlyphClass: 2
Flags: W
HStem: -135 92<141 177> 0 100<151 332> 680 20G<41 151>
VStem: 41 110<100 700> 141 92<-125 -43>
AnchorPoint: "Anchor-6" 260 700 basechar 0
AnchorPoint: "Anchor-5" 172 350 basechar 0
AnchorPoint: "Anchor-4" 106 700 basechar 0
AnchorPoint: "Anchor-2" 187 -189 basechar 0
LayerCount: 2
Fore
SplineSet
41 0 m 1xf0
 41 700 l 1
 151 700 l 1
 151 100 l 1
 332 100 l 1
 332 0 l 1
 41 0 l 1xf0
151 -189 m 1
 177 -135 l 1
 141 -135 l 1
 141 -43 l 1
 233 -43 l 1
 233 -125 l 1xe8
 190 -189 l 1
 151 -189 l 1
EndSplineSet
EndChar

StartChar: ldot
Encoding: 320 320 159
Width: 343
GlyphClass: 2
Flags: W
HStem: 0 100<151 332> 297 106<214 320> 680 20G<41 151>
VStem: 41 110<100 700> 214 106<297 403>
AnchorPoint: "Anchor-6" 260 700 basechar 0
AnchorPoint: "Anchor-5" 172 350 basechar 0
AnchorPoint: "Anchor-4" 106 700 basechar 0
AnchorPoint: "Anchor-2" 187 0 basechar 0
LayerCount: 2
Fore
SplineSet
41 0 m 1
 41 700 l 1
 151 700 l 1
 151 100 l 1
 332 100 l 1
 332 0 l 1
 41 0 l 1
214 297 m 1
 214 403 l 1
 320 403 l 1
 320 297 l 1
 214 297 l 1
EndSplineSet
Ligature2: "Ligature Substitution lookup 25 subtable" l periodcentered
EndChar

StartChar: lslash
Encoding: 322 322 160
Width: 364
GlyphClass: 2
Flags: W
HStem: 0 100<171 352> 680 20G<61 171>
VStem: 61 110<100 160 398 700>
AnchorPoint: "Anchor-6" 280 700 basechar 0
AnchorPoint: "Anchor-5" 192 350 basechar 0
AnchorPoint: "Anchor-4" 126 700 basechar 0
AnchorPoint: "Anchor-2" 207 0 basechar 0
LayerCount: 2
Fore
SplineSet
171 100 m 1
 352 100 l 1
 352 0 l 1
 61 0 l 1
 61 160 l 1
 10 105 l 1
 10 225 l 1
 61 280 l 1
 61 700 l 1
 171 700 l 1
 171 398 l 1
 290 525 l 1
 290 405 l 1
 171 278 l 1
 171 100 l 1
EndSplineSet
EndChar

StartChar: m
Encoding: 109 109 161
Width: 538
GlyphClass: 2
Flags: W
HStem: 0 21G<41 137 215.981 314.019 393 497> 680 20G<41 200.794 337.206 497>
VStem: 41 96<0 530> 393 104<0 530>
AnchorPoint: "Anchor-4" 269 700 basechar 0
AnchorPoint: "Anchor-2" 269 0 basechar 0
LayerCount: 2
Fore
SplineSet
41 0 m 1
 41 700 l 1
 198 700 l 1
 268 199 l 1
 270 199 l 1
 340 700 l 1
 497 700 l 1
 497 0 l 1
 393 0 l 1
 393 530 l 1
 391 530 l 1
 311 0 l 1
 219 0 l 1
 139 530 l 1
 137 530 l 1
 137 0 l 1
 41 0 l 1
EndSplineSet
EndChar

StartChar: uni1E41
Encoding: 7745 7745 162
Width: 538
GlyphClass: 2
Flags: W
HStem: 0 21G<41 137 215.981 314.019 393 497> 680 20G<41 200.794 337.206 497> 747 102<219 319>
VStem: 41 96<0 530> 219 100<747 849> 393 104<0 530>
AnchorPoint: "Anchor-4" 269 849 basechar 0
AnchorPoint: "Anchor-2" 269 0 basechar 0
LayerCount: 2
Fore
SplineSet
219 747 m 1
 219 849 l 1
 319 849 l 1
 319 747 l 1
 219 747 l 1
41 0 m 1
 41 700 l 1
 198 700 l 1
 268 199 l 1
 270 199 l 1
 340 700 l 1
 497 700 l 1
 497 0 l 1
 393 0 l 1
 393 530 l 1
 391 530 l 1
 311 0 l 1
 219 0 l 1
 139 530 l 1
 137 530 l 1
 137 0 l 1
 41 0 l 1
EndSplineSet
EndChar

StartChar: n
Encoding: 110 110 163
Width: 427
GlyphClass: 2
Flags: W
HStem: 0 21G<41 139 267.834 386> 680 20G<41 184.107 288 386>
VStem: 41 98<0 511> 288 98<281 700>
AnchorPoint: "Anchor-4" 214 700 basechar 0
AnchorPoint: "Anchor-2" 214 0 basechar 0
LayerCount: 2
Fore
SplineSet
41 0 m 1
 41 700 l 1
 179 700 l 1
 286 281 l 1
 288 281 l 1
 288 700 l 1
 386 700 l 1
 386 0 l 1
 273 0 l 1
 141 511 l 1
 139 511 l 1
 139 0 l 1
 41 0 l 1
EndSplineSet
EndChar

StartChar: napostrophe
Encoding: 329 329 164
Width: 542
GlyphClass: 2
Flags: W
HStem: 0 21G<156 254 382.834 501> 594 106<4 46>
VStem: 4 106<605 700> 156 98<0 511> 403 98<281 700>
AnchorPoint: "Anchor-4" 329 700 basechar 0
AnchorPoint: "Anchor-2" 329 0 basechar 0
LayerCount: 2
Fore
SplineSet
17 494 m 1
 46 594 l 1
 4 594 l 1
 4 700 l 1
 110 700 l 1
 110 605 l 1
 62 494 l 1
 17 494 l 1
156 0 m 1
 156 700 l 1
 294 700 l 1
 401 281 l 1
 403 281 l 1
 403 700 l 1
 501 700 l 1
 501 0 l 1
 388 0 l 1
 256 511 l 1
 254 511 l 1
 254 0 l 1
 156 0 l 1
EndSplineSet
EndChar

StartChar: uni0146
Encoding: 326 326 165
Width: 427
GlyphClass: 2
Flags: W
HStem: -135 92<168 204> 0 21G<41 139 267.834 386> 680 20G<41 184.107 288 386>
VStem: 41 98<0 511> 168 92<-125 -43> 288 98<281 700>
AnchorPoint: "Anchor-4" 214 700 basechar 0
AnchorPoint: "Anchor-2" 214 -189 basechar 0
LayerCount: 2
Fore
SplineSet
41 0 m 1
 41 700 l 1
 179 700 l 1
 286 281 l 1
 288 281 l 1
 288 700 l 1
 386 700 l 1
 386 0 l 1
 273 0 l 1
 141 511 l 1
 139 511 l 1
 139 0 l 1
 41 0 l 1
178 -189 m 1
 204 -135 l 1
 168 -135 l 1
 168 -43 l 1
 260 -43 l 1
 260 -125 l 1
 217 -189 l 1
 178 -189 l 1
EndSplineSet
EndChar

StartChar: eng
Encoding: 331 331 166
Width: 427
GlyphClass: 2
Flags: W
HStem: -170 95<189 269.522> 0 21G<41 139> 680 20G<41 184.404 288 386>
VStem: 41 98<0 523> 288 98<304 700>
AnchorPoint: "Anchor-4" 214 700 basechar 0
AnchorPoint: "Anchor-2" 214 0 basechar 0
LayerCount: 2
Fore
SplineSet
238 -170 m 0
 220 -170 205 -169 189 -166 c 1
 189 -71 l 1
 201 -74 213 -75 228 -75 c 0
 254 -75 280 -61 280 -18 c 0
 280 4 278 18 270 46 c 2
 141 523 l 1
 139 523 l 1
 139 0 l 1
 41 0 l 1
 41 700 l 1
 179 700 l 1
 286 304 l 1
 288 304 l 1
 288 700 l 1
 386 700 l 1
 386 -2 l 2
 386 -115 334 -170 238 -170 c 0
EndSplineSet
EndChar

StartChar: ntilde
Encoding: 241 241 167
Width: 427
GlyphClass: 2
Flags: W
HStem: 0 21G<41 139 267.834 386> 680 20G<41 184.107 288 386> 750 77<210.042 290.406> 782 77<137.594 217.958>
VStem: 41 98<0 511> 288 98<281 700>
AnchorPoint: "Anchor-4" 214 866 basechar 0
AnchorPoint: "Anchor-2" 214 0 basechar 0
LayerCount: 2
Fore
SplineSet
128 743 m 1xdc
 75 775 l 1
 100 831 128 859 166 859 c 0xdc
 193 859 211 849 226 840 c 0
 238 833 248 827 260 827 c 0
 276 827 287 838 300 866 c 1
 353 834 l 1
 328 778 300 750 262 750 c 0xec
 235 750 217 760 202 769 c 0
 190 776 180 782 168 782 c 0
 152 782 141 771 128 743 c 1xdc
41 0 m 1
 41 700 l 1
 179 700 l 1
 286 281 l 1
 288 281 l 1
 288 700 l 1
 386 700 l 1
 386 0 l 1
 273 0 l 1
 141 511 l 1
 139 511 l 1
 139 0 l 1
 41 0 l 1
EndSplineSet
EndChar

StartChar: o
Encoding: 111 111 168
Width: 400
GlyphClass: 2
Flags: W
HStem: -10 100<155.722 244.278> 610 100<155.722 244.278>
VStem: 33 110<103.826 596.174> 257 110<103.826 596.174>
AnchorPoint: "Anchor-6" 379 700 basechar 0
AnchorPoint: "Anchor-5" 200 350 basechar 0
AnchorPoint: "Anchor-4" 200 700 basechar 0
AnchorPoint: "Anchor-3" 359 10 basechar 0
AnchorPoint: "Anchor-2" 200 0 basechar 0
LayerCount: 2
Fore
SplineSet
200 -10 m 0
 92 -10 33 54 33 166 c 2
 33 534 l 2
 33 646 92 710 200 710 c 0
 308 710 367 646 367 534 c 2
 367 166 l 2
 367 54 308 -10 200 -10 c 0
200 90 m 0
 235 90 257 109 257 159 c 2
 257 541 l 2
 257 591 235 610 200 610 c 0
 165 610 143 591 143 541 c 2
 143 159 l 2
 143 109 165 90 200 90 c 0
EndSplineSet
Substitution2: "Single Substitution lookup 27 subtable" ordmasculine
Substitution2: "'aalt' Access All Alternates in Latin lookup 0 subtable" ordmasculine
EndChar

StartChar: odieresis
Encoding: 246 246 169
Width: 400
GlyphClass: 2
Flags: W
HStem: -10 100<155.722 244.278> 610 100<155.722 244.278> 747 102<74 172 228 326>
VStem: 33 110<103.826 596.174> 74 98<747 849> 228 98<747 849> 257 110<103.826 596.174>
AnchorPoint: "Anchor-6" 379 700 basechar 0
AnchorPoint: "Anchor-5" 200 350 basechar 0
AnchorPoint: "Anchor-4" 200 849 basechar 0
AnchorPoint: "Anchor-3" 359 10 basechar 0
AnchorPoint: "Anchor-2" 200 0 basechar 0
LayerCount: 2
Fore
SplineSet
74 747 m 1xe8
 74 849 l 1
 172 849 l 1
 172 747 l 1
 74 747 l 1xe8
228 747 m 1xe4
 228 849 l 1
 326 849 l 1
 326 747 l 1
 228 747 l 1xe4
200 -10 m 0
 92 -10 33 54 33 166 c 2
 33 534 l 2
 33 646 92 710 200 710 c 0
 308 710 367 646 367 534 c 2
 367 166 l 2xf2
 367 54 308 -10 200 -10 c 0
200 90 m 0
 235 90 257 109 257 159 c 2
 257 541 l 2
 257 591 235 610 200 610 c 0
 165 610 143 591 143 541 c 2
 143 159 l 2
 143 109 165 90 200 90 c 0
EndSplineSet
EndChar

StartChar: oslash
Encoding: 248 248 170
Width: 400
GlyphClass: 2
Flags: W
HStem: -10 100<153.974 244.278> 610 100<155.722 246.026>
VStem: 33 110<296 596.174> 257 110<103.826 404>
AnchorPoint: "Anchor-6" 379 700 basechar 0
AnchorPoint: "Anchor-5" 200 350 basechar 0
AnchorPoint: "Anchor-4" 200 700 basechar 0
AnchorPoint: "Anchor-3" 359 10 basechar 0
AnchorPoint: "Anchor-2" 200 0 basechar 0
LayerCount: 2
Fore
SplineSet
377 700 m 1
 348 629 l 1
 361 603 367 571 367 534 c 2
 367 166 l 2
 367 54 308 -10 200 -10 c 0
 160 -10 126 -1 100 16 c 1
 83 -26 l 1
 23 0 l 1
 52 71 l 1
 39 97 33 129 33 166 c 2
 33 534 l 2
 33 646 92 710 200 710 c 0
 240 710 274 701 300 684 c 1
 317 726 l 1
 377 700 l 1
143 541 m 2
 143 296 l 1
 254 570 l 1
 247 599 227 610 200 610 c 0
 165 610 143 591 143 541 c 2
257 159 m 2
 257 404 l 1
 146 130 l 1
 153 101 173 90 200 90 c 0
 235 90 257 109 257 159 c 2
EndSplineSet
EndChar

StartChar: oslashacute
Encoding: 511 511 171
Width: 400
GlyphClass: 2
Flags: W
HStem: -10 100<153.974 244.278> 610 100<155.722 246.026>
VStem: 33 110<296 596.174> 257 110<103.826 404>
AnchorPoint: "Anchor-6" 379 700 basechar 0
AnchorPoint: "Anchor-5" 200 350 basechar 0
AnchorPoint: "Anchor-4" 200 862 basechar 0
AnchorPoint: "Anchor-3" 359 10 basechar 0
AnchorPoint: "Anchor-2" 200 0 basechar 0
LayerCount: 2
Fore
SplineSet
330 862 m 1
 223 747 l 1
 140 747 l 1
 210 862 l 1
 330 862 l 1
377 700 m 1
 348 629 l 1
 361 603 367 571 367 534 c 2
 367 166 l 2
 367 54 308 -10 200 -10 c 0
 160 -10 126 -1 100 16 c 1
 83 -26 l 1
 23 0 l 1
 52 71 l 1
 39 97 33 129 33 166 c 2
 33 534 l 2
 33 646 92 710 200 710 c 0
 240 710 274 701 300 684 c 1
 317 726 l 1
 377 700 l 1
143 541 m 2
 143 296 l 1
 254 570 l 1
 247 599 227 610 200 610 c 0
 165 610 143 591 143 541 c 2
257 159 m 2
 257 404 l 1
 146 130 l 1
 153 101 173 90 200 90 c 0
 235 90 257 109 257 159 c 2
EndSplineSet
EndChar

StartChar: otilde
Encoding: 245 245 172
Width: 400
GlyphClass: 2
Flags: W
HStem: -10 100<155.722 244.278> 610 100<155.722 244.278> 750 77<196.042 276.406> 782 77<123.594 203.958>
VStem: 33 110<103.826 596.174> 257 110<103.826 596.174>
AnchorPoint: "Anchor-6" 379 700 basechar 0
AnchorPoint: "Anchor-5" 200 350 basechar 0
AnchorPoint: "Anchor-4" 200 866 basechar 0
AnchorPoint: "Anchor-3" 359 10 basechar 0
AnchorPoint: "Anchor-2" 200 0 basechar 0
LayerCount: 2
Fore
SplineSet
114 743 m 1xdc
 61 775 l 1
 86 831 114 859 152 859 c 0xdc
 179 859 197 849 212 840 c 0
 224 833 234 827 246 827 c 0
 262 827 273 838 286 866 c 1
 339 834 l 1
 314 778 286 750 248 750 c 0xec
 221 750 203 760 188 769 c 0
 176 776 166 782 154 782 c 0
 138 782 127 771 114 743 c 1xdc
200 -10 m 0
 92 -10 33 54 33 166 c 2
 33 534 l 2
 33 646 92 710 200 710 c 0
 308 710 367 646 367 534 c 2
 367 166 l 2
 367 54 308 -10 200 -10 c 0
200 90 m 0
 235 90 257 109 257 159 c 2
 257 541 l 2
 257 591 235 610 200 610 c 0
 165 610 143 591 143 541 c 2
 143 159 l 2
 143 109 165 90 200 90 c 0
EndSplineSet
EndChar

StartChar: oe
Encoding: 339 339 173
Width: 577
Flags: W
HStem: 0 100<153.91 255 365 555> 315 100<365 516> 600 100<153.91 255 365 555>
VStem: 33 110<111.147 588.853> 255 110<100 315 415 600>
LayerCount: 2
Fore
SplineSet
197 0 m 2
 87 0 33 61 33 173 c 2
 33 527 l 2
 33 639 87 700 197 700 c 2
 555 700 l 1
 555 600 l 1
 365 600 l 1
 365 415 l 1
 516 415 l 1
 516 315 l 1
 365 315 l 1
 365 100 l 1
 555 100 l 1
 555 0 l 1
 197 0 l 2
199 100 m 2
 255 100 l 1
 255 600 l 1
 199 600 l 2
 164 600 143 582 143 532 c 2
 143 168 l 2
 143 118 164 100 199 100 c 2
EndSplineSet
EndChar

StartChar: p
Encoding: 112 112 174
Width: 386
GlyphClass: 2
Flags: W
HStem: 0 21G<41 151> 285 100<151 246.09> 600 100<151 246.09>
VStem: 41 110<0 285 385 600> 257 110<396.147 588.853>
AnchorPoint: "Anchor-4" 191 700 basechar 0
AnchorPoint: "Anchor-2" 193 0 basechar 0
LayerCount: 2
Fore
SplineSet
41 0 m 1
 41 700 l 1
 203 700 l 2
 313 700 367 639 367 527 c 2
 367 458 l 2
 367 346 313 285 203 285 c 2
 151 285 l 1
 151 0 l 1
 41 0 l 1
151 385 m 1
 203 385 l 2
 238 385 257 401 257 451 c 2
 257 534 l 2
 257 584 238 600 203 600 c 2
 151 600 l 1
 151 385 l 1
EndSplineSet
EndChar

StartChar: uni1E57
Encoding: 7767 7767 175
Width: 386
GlyphClass: 2
Flags: W
HStem: 0 21G<41 151> 285 100<151 246.09> 600 100<151 246.09> 747 102<141 241>
VStem: 41 110<0 285 385 600> 141 100<747 849> 257 110<396.147 588.853>
AnchorPoint: "Anchor-4" 191 849 basechar 0
AnchorPoint: "Anchor-2" 193 0 basechar 0
LayerCount: 2
Fore
SplineSet
141 747 m 1xf6
 141 849 l 1
 241 849 l 1
 241 747 l 1
 141 747 l 1xf6
41 0 m 1xfa
 41 700 l 1
 203 700 l 2
 313 700 367 639 367 527 c 2
 367 458 l 2
 367 346 313 285 203 285 c 2
 151 285 l 1
 151 0 l 1
 41 0 l 1xfa
151 385 m 1
 203 385 l 2
 238 385 257 401 257 451 c 2
 257 534 l 2
 257 584 238 600 203 600 c 2
 151 600 l 1
 151 385 l 1
EndSplineSet
EndChar

StartChar: thorn
Encoding: 254 254 176
Width: 386
Flags: W
HStem: 0 21G<41 151> 186 100<151 246.09> 501 100<151 246.09> 680 20G<41 151>
VStem: 41 110<0 186 286 501 601 700> 257 110<297.147 489.853>
LayerCount: 2
Fore
SplineSet
41 0 m 1
 41 700 l 1
 151 700 l 1
 151 601 l 1
 203 601 l 2
 313 601 367 540 367 428 c 2
 367 359 l 2
 367 247 313 186 203 186 c 2
 151 186 l 1
 151 0 l 1
 41 0 l 1
151 286 m 1
 203 286 l 2
 238 286 257 302 257 352 c 2
 257 435 l 2
 257 485 238 501 203 501 c 2
 151 501 l 1
 151 286 l 1
EndSplineSet
EndChar

StartChar: q
Encoding: 113 113 177
Width: 400
Flags: W
HStem: -65 100<336.95 394> -10 100<155.722 245.745> 610 100<155.722 244.278>
VStem: 33 110<103.826 596.174> 257 110<101.375 596.174>
LayerCount: 2
Fore
SplineSet
365 -65 m 2xb8
 324 -65 286 -50 273 2 c 1
 252 -6 227 -10 200 -10 c 0x78
 92 -10 33 54 33 166 c 2
 33 534 l 2
 33 646 92 710 200 710 c 0
 308 710 367 646 367 534 c 2
 367 166 l 2
 367 118 356 80 336 51 c 1
 344 37 357 35 377 35 c 2
 394 35 l 1
 394 -65 l 1
 365 -65 l 2xb8
200 90 m 0
 235 90 257 109 257 159 c 2
 257 541 l 2
 257 591 235 610 200 610 c 0
 165 610 143 591 143 541 c 2
 143 159 l 2
 143 109 165 90 200 90 c 0
EndSplineSet
EndChar

StartChar: r
Encoding: 114 114 178
Width: 403
GlyphClass: 2
Flags: W
HStem: 0 21G<41 151 265 380> 300 100<151 244.24> 600 100<151 243.734>
VStem: 41 110<0 300 400 600> 258 110<1.21806 285.062 414.14 589.572>
AnchorPoint: "Anchor-4" 193 700 basechar 0
AnchorPoint: "Anchor-2" 203 0 basechar 0
LayerCount: 2
Fore
SplineSet
41 0 m 1
 41 700 l 1
 204 700 l 2
 318 700 367 647 367 539 c 2
 367 496 l 2
 367 424 344 378 295 358 c 1
 295 356 l 1
 350 339 368 287 368 208 c 2
 368 85 l 2
 368 51 369 26 380 0 c 1
 268 0 l 1
 262 18 258 29 258 86 c 2
 258 214 l 2
 258 279 239 300 189 300 c 2
 151 300 l 1
 151 0 l 1
 41 0 l 1
151 400 m 1
 191 400 l 2
 232 400 257 418 257 474 c 2
 257 528 l 2
 257 578 240 600 201 600 c 2
 151 600 l 1
 151 400 l 1
EndSplineSet
EndChar

StartChar: racute
Encoding: 341 341 179
Width: 403
GlyphClass: 2
Flags: W
HStem: 0 21G<41 151 265 380> 300 100<151 244.24> 600 100<151 243.734>
VStem: 41 110<0 300 400 600> 258 110<1.21806 285.062 414.14 589.572>
AnchorPoint: "Anchor-4" 193 862 basechar 0
AnchorPoint: "Anchor-2" 203 0 basechar 0
LayerCount: 2
Fore
SplineSet
133 747 m 1
 203 862 l 1
 323 862 l 1
 216 747 l 1
 133 747 l 1
41 0 m 1
 41 700 l 1
 204 700 l 2
 318 700 367 647 367 539 c 2
 367 496 l 2
 367 424 344 378 295 358 c 1
 295 356 l 1
 350 339 368 287 368 208 c 2
 368 85 l 2
 368 51 369 26 380 0 c 1
 268 0 l 1
 262 18 258 29 258 86 c 2
 258 214 l 2
 258 279 239 300 189 300 c 2
 151 300 l 1
 151 0 l 1
 41 0 l 1
151 400 m 1
 191 400 l 2
 232 400 257 418 257 474 c 2
 257 528 l 2
 257 578 240 600 201 600 c 2
 151 600 l 1
 151 400 l 1
EndSplineSet
EndChar

StartChar: rcaron
Encoding: 345 345 180
Width: 403
GlyphClass: 2
Flags: W
HStem: 0 21G<41 151 265 380> 300 100<151 244.24> 600 100<151 243.734>
VStem: 41 110<0 300 400 600> 258 110<1.21806 285.062 414.14 589.572>
AnchorPoint: "Anchor-4" 193 862 basechar 0
AnchorPoint: "Anchor-2" 203 0 basechar 0
LayerCount: 2
Fore
SplineSet
141 747 m 1
 59 862 l 1
 142 862 l 1
 193 807 l 1
 244 862 l 1
 327 862 l 1
 245 747 l 1
 141 747 l 1
41 0 m 1
 41 700 l 1
 204 700 l 2
 318 700 367 647 367 539 c 2
 367 496 l 2
 367 424 344 378 295 358 c 1
 295 356 l 1
 350 339 368 287 368 208 c 2
 368 85 l 2
 368 51 369 26 380 0 c 1
 268 0 l 1
 262 18 258 29 258 86 c 2
 258 214 l 2
 258 279 239 300 189 300 c 2
 151 300 l 1
 151 0 l 1
 41 0 l 1
151 400 m 1
 191 400 l 2
 232 400 257 418 257 474 c 2
 257 528 l 2
 257 578 240 600 201 600 c 2
 151 600 l 1
 151 400 l 1
EndSplineSet
EndChar

StartChar: uni0157
Encoding: 343 343 181
Width: 403
GlyphClass: 2
Flags: W
HStem: -135 92<157 193> 0 21G<41 151 265 380> 300 100<151 244.24> 600 100<151 243.734>
VStem: 41 110<0 300 400 600> 157 92<-125 -43> 258 110<1.21806 285.062 414.14 589.572>
AnchorPoint: "Anchor-4" 193 700 basechar 0
AnchorPoint: "Anchor-2" 203 -189 basechar 0
LayerCount: 2
Fore
SplineSet
41 0 m 1
 41 700 l 1
 204 700 l 2
 318 700 367 647 367 539 c 2
 367 496 l 2
 367 424 344 378 295 358 c 1
 295 356 l 1
 350 339 368 287 368 208 c 2
 368 85 l 2
 368 51 369 26 380 0 c 1
 268 0 l 1
 262 18 258 29 258 86 c 2
 258 214 l 2
 258 279 239 300 189 300 c 2
 151 300 l 1
 151 0 l 1
 41 0 l 1
151 400 m 1
 191 400 l 2
 232 400 257 418 257 474 c 2
 257 528 l 2
 257 578 240 600 201 600 c 2
 151 600 l 1
 151 400 l 1
167 -189 m 1
 193 -135 l 1
 157 -135 l 1
 157 -43 l 1
 249 -43 l 1
 249 -125 l 1
 206 -189 l 1
 167 -189 l 1
EndSplineSet
EndChar

StartChar: s
Encoding: 115 115 182
Width: 372
GlyphClass: 2
Flags: W
HStem: -10 100<136.81 227.752> 610 100<145.074 231.818>
VStem: 22 104<99.8508 206> 24 110<471.352 598.946> 240 110<100.248 239.083 505 600.442>
AnchorPoint: "Anchor-4" 186 700 basechar 0
AnchorPoint: "Anchor-2" 186 0 basechar 0
LayerCount: 2
Fore
SplineSet
184 -10 m 0xd8
 76 -10 22 54 22 166 c 2
 22 206 l 1
 126 206 l 1
 126 158 l 2xe8
 126 108 148 90 183 90 c 0
 218 90 240 108 240 160 c 0
 240 218 218 255 146 318 c 0
 54 399 24 456 24 536 c 0
 24 646 81 710 188 710 c 0
 295 710 348 646 348 534 c 2
 348 505 l 1
 244 505 l 1
 244 541 l 2
 244 591 224 610 189 610 c 0
 154 610 134 591 134 543 c 0
 134 492 157 455 229 392 c 0
 321 311 350 255 350 168 c 0
 350 54 292 -10 184 -10 c 0xd8
EndSplineSet
EndChar

StartChar: sacute
Encoding: 347 347 183
Width: 372
GlyphClass: 2
Flags: W
HStem: -10 100<136.81 227.752> 610 100<145.074 231.818>
VStem: 22 104<99.8508 206> 24 110<471.352 598.946> 240 110<100.248 239.083 505 600.442>
AnchorPoint: "Anchor-4" 186 862 basechar 0
AnchorPoint: "Anchor-2" 186 0 basechar 0
LayerCount: 2
Fore
SplineSet
126 747 m 1xe8
 196 862 l 1
 316 862 l 1
 209 747 l 1
 126 747 l 1xe8
184 -10 m 0
 76 -10 22 54 22 166 c 2
 22 206 l 1
 126 206 l 1
 126 158 l 2xe8
 126 108 148 90 183 90 c 0
 218 90 240 108 240 160 c 0
 240 218 218 255 146 318 c 0
 54 399 24 456 24 536 c 0
 24 646 81 710 188 710 c 0
 295 710 348 646 348 534 c 2
 348 505 l 1
 244 505 l 1
 244 541 l 2
 244 591 224 610 189 610 c 0
 154 610 134 591 134 543 c 0xd8
 134 492 157 455 229 392 c 0
 321 311 350 255 350 168 c 0
 350 54 292 -10 184 -10 c 0
EndSplineSet
EndChar

StartChar: scaron
Encoding: 353 353 184
Width: 372
GlyphClass: 2
Flags: W
HStem: -10 100<136.81 227.752> 610 100<145.074 231.818>
VStem: 22 104<99.8508 206> 24 110<471.352 598.946> 240 110<100.248 239.083 505 600.442>
AnchorPoint: "Anchor-4" 186 862 basechar 0
AnchorPoint: "Anchor-2" 186 0 basechar 0
LayerCount: 2
Fore
SplineSet
134 747 m 1xd8
 52 862 l 1
 135 862 l 1
 186 807 l 1
 237 862 l 1
 320 862 l 1
 238 747 l 1
 134 747 l 1xd8
184 -10 m 0
 76 -10 22 54 22 166 c 2
 22 206 l 1
 126 206 l 1
 126 158 l 2xe8
 126 108 148 90 183 90 c 0
 218 90 240 108 240 160 c 0
 240 218 218 255 146 318 c 0
 54 399 24 456 24 536 c 0
 24 646 81 710 188 710 c 0
 295 710 348 646 348 534 c 2
 348 505 l 1
 244 505 l 1
 244 541 l 2
 244 591 224 610 189 610 c 0
 154 610 134 591 134 543 c 0
 134 492 157 455 229 392 c 0
 321 311 350 255 350 168 c 0
 350 54 292 -10 184 -10 c 0
EndSplineSet
EndChar

StartChar: scedilla
Encoding: 351 351 185
Width: 372
GlyphClass: 2
Flags: W
HStem: -147 40<157.042 202.983> -9 99<137.057 162 211 227.557> 610 100<145.074 231.818>
VStem: 22 104<99.8508 206> 24 110<471.352 598.946> 82 74<-106.45 -79> 162 49<-39 -6.50684> 204 76<-106.487 -58.4026> 240 110<100.885 239.083 505 600.442>
AnchorPoint: "Anchor-4" 186 700 basechar 0
AnchorPoint: "Anchor-2" 186 -147 basechar 0
LayerCount: 2
Fore
SplineSet
350 168 m 0xe880
 350 64 302 1 211 -9 c 1
 211 -39 l 1xea80
 255 -39 280 -51 280 -86 c 0
 280 -140 238 -147 178 -147 c 0
 123 -147 82 -135 82 -89 c 2
 82 -79 l 1
 156 -79 l 1
 156 -87 l 2
 156 -102 167 -107 178 -107 c 0
 196 -107 204 -100 204 -83 c 0xe5
 204 -64 192 -57 167 -57 c 2
 162 -57 l 1
 162 -9 l 1
 69 -1 22 62 22 166 c 2
 22 206 l 1
 126 206 l 1
 126 158 l 2xf2
 126 108 148 90 183 90 c 0
 218 90 240 108 240 160 c 0
 240 218 218 255 146 318 c 0
 54 399 24 456 24 536 c 0
 24 646 81 710 188 710 c 0
 295 710 348 646 348 534 c 2
 348 505 l 1
 244 505 l 1
 244 541 l 2
 244 591 224 610 189 610 c 0
 154 610 134 591 134 543 c 0
 134 492 157 455 229 392 c 0
 321 311 350 255 350 168 c 0xe880
EndSplineSet
Substitution2: "'locl' Localized Forms in Latin lookup 6 subtable" uni0219
Substitution2: "'locl' Localized Forms in Latin lookup 5 subtable" uni0219
Substitution2: "'aalt' Access All Alternates in Latin lookup 0 subtable" uni0219
EndChar

StartChar: scircumflex
Encoding: 349 349 186
Width: 372
GlyphClass: 2
Flags: W
HStem: -10 100<136.81 227.752> 610 100<145.074 231.818>
VStem: 22 104<99.8508 206> 24 110<471.352 598.946> 240 110<100.248 239.083 505 600.442>
AnchorPoint: "Anchor-4" 186 862 basechar 0
AnchorPoint: "Anchor-2" 186 0 basechar 0
LayerCount: 2
Fore
SplineSet
52 747 m 1xd8
 134 862 l 1
 238 862 l 1
 320 747 l 1
 237 747 l 1
 186 802 l 1
 135 747 l 1
 52 747 l 1xd8
184 -10 m 0
 76 -10 22 54 22 166 c 2
 22 206 l 1
 126 206 l 1
 126 158 l 2xe8
 126 108 148 90 183 90 c 0
 218 90 240 108 240 160 c 0
 240 218 218 255 146 318 c 0
 54 399 24 456 24 536 c 0
 24 646 81 710 188 710 c 0
 295 710 348 646 348 534 c 2
 348 505 l 1
 244 505 l 1
 244 541 l 2
 244 591 224 610 189 610 c 0
 154 610 134 591 134 543 c 0
 134 492 157 455 229 392 c 0
 321 311 350 255 350 168 c 0
 350 54 292 -10 184 -10 c 0
EndSplineSet
EndChar

StartChar: uni0219
Encoding: 537 537 187
Width: 372
GlyphClass: 2
Flags: W
HStem: -135 92<140 176> -10 100<136.81 227.752> 610 100<145.074 231.818>
VStem: 22 104<99.8508 206> 24 110<471.352 598.946> 140 92<-125 -43> 240 110<100.248 239.083 505 600.442>
AnchorPoint: "Anchor-4" 186 700 basechar 0
AnchorPoint: "Anchor-2" 186 -189 basechar 0
LayerCount: 2
Fore
SplineSet
184 -10 m 0xee
 76 -10 22 54 22 166 c 2
 22 206 l 1
 126 206 l 1
 126 158 l 2xf6
 126 108 148 90 183 90 c 0
 218 90 240 108 240 160 c 0
 240 218 218 255 146 318 c 0
 54 399 24 456 24 536 c 0
 24 646 81 710 188 710 c 0
 295 710 348 646 348 534 c 2
 348 505 l 1
 244 505 l 1
 244 541 l 2
 244 591 224 610 189 610 c 0
 154 610 134 591 134 543 c 0
 134 492 157 455 229 392 c 0
 321 311 350 255 350 168 c 0
 350 54 292 -10 184 -10 c 0xee
150 -189 m 1
 176 -135 l 1
 140 -135 l 1
 140 -43 l 1
 232 -43 l 1
 232 -125 l 1
 189 -189 l 1
 150 -189 l 1
EndSplineSet
EndChar

StartChar: uni1E61
Encoding: 7777 7777 188
Width: 372
GlyphClass: 2
Flags: W
HStem: -10 100<136.81 227.752> 610 100<145.074 231.818> 747 102<136 236>
VStem: 22 104<99.8508 206> 24 110<471.352 598.946> 136 100<747 849> 240 110<100.248 239.083 505 600.442>
AnchorPoint: "Anchor-4" 186 849 basechar 0
AnchorPoint: "Anchor-2" 186 0 basechar 0
LayerCount: 2
Fore
SplineSet
136 747 m 1xe6
 136 849 l 1
 236 849 l 1
 236 747 l 1
 136 747 l 1xe6
184 -10 m 0
 76 -10 22 54 22 166 c 2
 22 206 l 1
 126 206 l 1
 126 158 l 2xf6
 126 108 148 90 183 90 c 0
 218 90 240 108 240 160 c 0
 240 218 218 255 146 318 c 0
 54 399 24 456 24 536 c 0
 24 646 81 710 188 710 c 0
 295 710 348 646 348 534 c 2
 348 505 l 1
 244 505 l 1
 244 541 l 2
 244 591 224 610 189 610 c 0
 154 610 134 591 134 543 c 0xee
 134 492 157 455 229 392 c 0
 321 311 350 255 350 168 c 0
 350 54 292 -10 184 -10 c 0
EndSplineSet
EndChar

StartChar: germandbls
Encoding: 223 223 189
Width: 407
Flags: W
HStem: 0 100<194 264.09> 600 100<151 267>
VStem: 41 110<0 600> 275 110<111.147 317.288>
LayerCount: 2
Fore
SplineSet
41 0 m 1
 41 700 l 1
 375 700 l 1
 375 602 l 1
 298 413 l 1
 359 394 385 338 385 252 c 2
 385 173 l 2
 385 61 331 0 221 0 c 2
 194 0 l 1
 194 100 l 1
 221 100 l 2
 256 100 275 116 275 166 c 2
 275 259 l 2
 275 309 256 325 221 325 c 2
 194 325 l 1
 194 418 l 1
 267 600 l 1
 151 600 l 1
 151 0 l 1
 41 0 l 1
EndSplineSet
EndChar

StartChar: t
Encoding: 116 116 190
Width: 364
GlyphClass: 2
Flags: W
HStem: 0 21G<127 237> 600 100<12 127 237 352>
VStem: 127 110<0 600>
AnchorPoint: "Anchor-5" 182 350 basechar 0
AnchorPoint: "Anchor-4" 182 700 basechar 0
AnchorPoint: "Anchor-2" 182 0 basechar 0
LayerCount: 2
Fore
SplineSet
127 0 m 1
 127 600 l 1
 12 600 l 1
 12 700 l 1
 352 700 l 1
 352 600 l 1
 237 600 l 1
 237 0 l 1
 127 0 l 1
EndSplineSet
EndChar

StartChar: tbar
Encoding: 359 359 191
Width: 364
GlyphClass: 2
Flags: W
HStem: 0 21G<127 237> 315 100<51 127 237 313> 600 100<12 127 237 352>
VStem: 127 110<0 315 415 600>
AnchorPoint: "Anchor-5" 182 350 basechar 0
AnchorPoint: "Anchor-4" 182 700 basechar 0
AnchorPoint: "Anchor-2" 182 0 basechar 0
LayerCount: 2
Fore
SplineSet
352 600 m 1
 237 600 l 1
 237 415 l 1
 313 415 l 1
 313 315 l 1
 237 315 l 1
 237 0 l 1
 127 0 l 1
 127 315 l 1
 51 315 l 1
 51 415 l 1
 127 415 l 1
 127 600 l 1
 12 600 l 1
 12 700 l 1
 352 700 l 1
 352 600 l 1
EndSplineSet
EndChar

StartChar: tcaron
Encoding: 357 357 192
Width: 364
GlyphClass: 2
Flags: W
HStem: 0 21G<127 237> 600 100<12 127 237 352>
VStem: 127 110<0 600>
AnchorPoint: "Anchor-5" 182 350 basechar 0
AnchorPoint: "Anchor-4" 182 862 basechar 0
AnchorPoint: "Anchor-2" 182 0 basechar 0
LayerCount: 2
Fore
SplineSet
130 747 m 1
 48 862 l 1
 131 862 l 1
 182 807 l 1
 233 862 l 1
 316 862 l 1
 234 747 l 1
 130 747 l 1
127 0 m 1
 127 600 l 1
 12 600 l 1
 12 700 l 1
 352 700 l 1
 352 600 l 1
 237 600 l 1
 237 0 l 1
 127 0 l 1
EndSplineSet
EndChar

StartChar: uni0163
Encoding: 355 355 193
Width: 364
GlyphClass: 2
Flags: W
HStem: -147 40<153.042 198.983> 600 100<12 127 237 352>
VStem: 78 74<-106.45 -79> 127 110<0 600> 158 49<-39 0> 200 76<-106.487 -58.4026>
AnchorPoint: "Anchor-5" 182 350 basechar 0
AnchorPoint: "Anchor-4" 182 700 basechar 0
AnchorPoint: "Anchor-2" 182 -147 basechar 0
LayerCount: 2
Fore
SplineSet
237 0 m 1xd0
 207 0 l 1
 207 -39 l 1xc8
 251 -39 276 -51 276 -86 c 0
 276 -140 234 -147 174 -147 c 0
 119 -147 78 -135 78 -89 c 2
 78 -79 l 1
 152 -79 l 1
 152 -87 l 2
 152 -102 163 -107 174 -107 c 0
 192 -107 200 -100 200 -83 c 0xe4
 200 -64 188 -57 163 -57 c 2
 158 -57 l 1
 158 0 l 1xc8
 127 0 l 1
 127 600 l 1
 12 600 l 1
 12 700 l 1
 352 700 l 1
 352 600 l 1
 237 600 l 1
 237 0 l 1xd0
EndSplineSet
Substitution2: "'locl' Localized Forms in Latin lookup 6 subtable" uni021B
Substitution2: "'locl' Localized Forms in Latin lookup 5 subtable" uni021B
Substitution2: "'aalt' Access All Alternates in Latin lookup 0 subtable" uni021B
EndChar

StartChar: uni021B
Encoding: 539 539 194
Width: 364
GlyphClass: 2
Flags: W
HStem: -135 92<136 172> 0 21G<127 237> 600 100<12 127 237 352>
VStem: 127 110<0 600> 136 92<-125 -43>
AnchorPoint: "Anchor-5" 182 350 basechar 0
AnchorPoint: "Anchor-4" 182 700 basechar 0
AnchorPoint: "Anchor-2" 182 -189 basechar 0
LayerCount: 2
Fore
SplineSet
127 0 m 1xf0
 127 600 l 1
 12 600 l 1
 12 700 l 1
 352 700 l 1
 352 600 l 1
 237 600 l 1
 237 0 l 1
 127 0 l 1xf0
146 -189 m 1
 172 -135 l 1
 136 -135 l 1
 136 -43 l 1
 228 -43 l 1
 228 -125 l 1xe8
 185 -189 l 1
 146 -189 l 1
EndSplineSet
EndChar

StartChar: uni1E6B
Encoding: 7787 7787 195
Width: 364
GlyphClass: 2
Flags: W
HStem: 0 21G<127 237> 600 100<12 127 237 352> 747 102<132 232>
VStem: 127 110<0 600 747 849>
AnchorPoint: "Anchor-5" 182 350 basechar 0
AnchorPoint: "Anchor-4" 182 849 basechar 0
AnchorPoint: "Anchor-2" 182 0 basechar 0
LayerCount: 2
Fore
SplineSet
132 747 m 1
 132 849 l 1
 232 849 l 1
 232 747 l 1
 132 747 l 1
127 0 m 1
 127 600 l 1
 12 600 l 1
 12 700 l 1
 352 700 l 1
 352 600 l 1
 237 600 l 1
 237 0 l 1
 127 0 l 1
EndSplineSet
EndChar

StartChar: u
Encoding: 117 117 196
Width: 402
GlyphClass: 2
Flags: W
HStem: -10 100<157.731 248.437> 680 20G<37 147 259 365>
VStem: 37 110<99.5581 700> 259 106<99.5581 700>
AnchorPoint: "Anchor-6" 381 700 basechar 0
AnchorPoint: "Anchor-4" 201 700 basechar 0
AnchorPoint: "Anchor-3" 297 0 basechar 0
AnchorPoint: "Anchor-2" 201 0 basechar 0
LayerCount: 2
Fore
SplineSet
201 -10 m 0
 93 -10 37 54 37 166 c 2
 37 700 l 1
 147 700 l 1
 147 158 l 2
 147 108 168 90 203 90 c 0
 238 90 259 108 259 158 c 2
 259 700 l 1
 365 700 l 1
 365 166 l 2
 365 54 309 -10 201 -10 c 0
EndSplineSet
EndChar

StartChar: udieresis
Encoding: 252 252 197
Width: 402
GlyphClass: 2
Flags: W
HStem: -10 100<157.731 248.437> 680 20G<37 147 259 365> 747 102<75 173 229 327>
VStem: 37 110<99.5581 700> 75 98<747 849> 229 98<747 849> 259 106<99.5581 700>
AnchorPoint: "Anchor-6" 381 700 basechar 0
AnchorPoint: "Anchor-4" 201 849 basechar 0
AnchorPoint: "Anchor-3" 297 0 basechar 0
AnchorPoint: "Anchor-2" 201 0 basechar 0
LayerCount: 2
Fore
SplineSet
75 747 m 1xe8
 75 849 l 1
 173 849 l 1
 173 747 l 1
 75 747 l 1xe8
229 747 m 1xe4
 229 849 l 1
 327 849 l 1
 327 747 l 1
 229 747 l 1xe4
201 -10 m 0
 93 -10 37 54 37 166 c 2
 37 700 l 1
 147 700 l 1
 147 158 l 2
 147 108 168 90 203 90 c 0
 238 90 259 108 259 158 c 2
 259 700 l 1
 365 700 l 1
 365 166 l 2xf2
 365 54 309 -10 201 -10 c 0
EndSplineSet
EndChar

StartChar: uogonek
Encoding: 371 371 198
Width: 402
GlyphClass: 2
Flags: W
HStem: -147 61<200.883 296.207> 680 20G<37 147 259 365>
VStem: 37 110<101.208 700> 141 85<-105.5 -33.5284> 259 106<99.0742 700>
AnchorPoint: "Anchor-6" 381 700 basechar 0
AnchorPoint: "Anchor-4" 201 700 basechar 0
AnchorPoint: "Anchor-3" 297 0 basechar 0
AnchorPoint: "Anchor-2" 201 0 basechar 0
LayerCount: 2
Fore
SplineSet
259 700 m 1xe8
 365 700 l 1
 365 166 l 2
 365 73 326 13 251 -5 c 1
 231 -24 226 -45 226 -58 c 0
 226 -77 243 -86 261 -86 c 0
 281 -86 286 -83 297 -80 c 1
 297 -136 l 1
 274 -145 257 -147 229 -147 c 0
 175 -147 141 -126 141 -85 c 0xd8
 141 -57 158 -31 192 -10 c 1
 90 -6 37 57 37 166 c 2
 37 700 l 1
 147 700 l 1
 147 158 l 2
 147 108 168 90 203 90 c 0
 238 90 259 108 259 158 c 2
 259 700 l 1xe8
EndSplineSet
EndChar

StartChar: utilde
Encoding: 361 361 199
Width: 402
GlyphClass: 2
Flags: W
HStem: -10 100<157.731 248.437> 680 20G<37 147 259 365> 750 77<197.042 277.406> 782 77<124.594 204.958>
VStem: 37 110<99.5581 700> 259 106<99.5581 700>
AnchorPoint: "Anchor-6" 381 700 basechar 0
AnchorPoint: "Anchor-4" 201 866 basechar 0
AnchorPoint: "Anchor-3" 297 0 basechar 0
AnchorPoint: "Anchor-2" 201 0 basechar 0
LayerCount: 2
Fore
SplineSet
115 743 m 1xdc
 62 775 l 1
 87 831 115 859 153 859 c 0xdc
 180 859 198 849 213 840 c 0
 225 833 235 827 247 827 c 0
 263 827 274 838 287 866 c 1
 340 834 l 1
 315 778 287 750 249 750 c 0xec
 222 750 204 760 189 769 c 0
 177 776 167 782 155 782 c 0
 139 782 128 771 115 743 c 1xdc
201 -10 m 0
 93 -10 37 54 37 166 c 2
 37 700 l 1
 147 700 l 1
 147 158 l 2
 147 108 168 90 203 90 c 0
 238 90 259 108 259 158 c 2
 259 700 l 1
 365 700 l 1
 365 166 l 2
 365 54 309 -10 201 -10 c 0
EndSplineSet
EndChar

StartChar: v
Encoding: 118 118 200
Width: 382
GlyphClass: 2
Flags: W
HStem: 0 21G<114.971 267.029> 680 20G<12 125.652 266.348 370>
VStem: 12 111<653.774 700> 269 101<653.774 700>
AnchorPoint: "Anchor-4" 191 700 basechar 0
AnchorPoint: "Anchor-2" 191 0 basechar 0
LayerCount: 2
Fore
SplineSet
118 0 m 1
 12 700 l 1
 123 700 l 1
 195 157 l 1
 197 157 l 1
 269 700 l 1
 370 700 l 1
 264 0 l 1
 118 0 l 1
EndSplineSet
EndChar

StartChar: w
Encoding: 119 119 201
Width: 557
GlyphClass: 2
Flags: W
HStem: 0 21G<83.9714 234.119 331.881 473.029> 680 20G<15 122.822 222.067 345.933 445.178 542>
AnchorPoint: "Anchor-4" 279 700 basechar 0
AnchorPoint: "Anchor-2" 279 0 basechar 0
LayerCount: 2
Fore
SplineSet
86 0 m 1
 15 700 l 1
 121 700 l 1
 170 162 l 1
 172 162 l 1
 224 700 l 1
 344 700 l 1
 396 162 l 1
 398 162 l 1
 447 700 l 1
 542 700 l 1
 471 0 l 1
 334 0 l 1
 284 472 l 1
 282 472 l 1
 232 0 l 1
 86 0 l 1
EndSplineSet
EndChar

StartChar: wacute
Encoding: 7811 7811 202
Width: 557
GlyphClass: 2
Flags: W
HStem: 0 21G<83.9714 234.119 331.881 473.029> 680 20G<15 122.822 222.067 345.933 445.178 542>
AnchorPoint: "Anchor-4" 279 862 basechar 0
AnchorPoint: "Anchor-2" 279 0 basechar 0
LayerCount: 2
Fore
SplineSet
219 747 m 1
 289 862 l 1
 409 862 l 1
 302 747 l 1
 219 747 l 1
86 0 m 1
 15 700 l 1
 121 700 l 1
 170 162 l 1
 172 162 l 1
 224 700 l 1
 344 700 l 1
 396 162 l 1
 398 162 l 1
 447 700 l 1
 542 700 l 1
 471 0 l 1
 334 0 l 1
 284 472 l 1
 282 472 l 1
 232 0 l 1
 86 0 l 1
EndSplineSet
EndChar

StartChar: wcircumflex
Encoding: 373 373 203
Width: 557
GlyphClass: 2
Flags: W
HStem: 0 21G<83.9714 234.119 331.881 473.029> 680 20G<15 122.822 222.067 345.933 445.178 542>
AnchorPoint: "Anchor-4" 279 862 basechar 0
AnchorPoint: "Anchor-2" 279 0 basechar 0
LayerCount: 2
Fore
SplineSet
145 747 m 1
 227 862 l 1
 331 862 l 1
 413 747 l 1
 330 747 l 1
 279 802 l 1
 228 747 l 1
 145 747 l 1
86 0 m 1
 15 700 l 1
 121 700 l 1
 170 162 l 1
 172 162 l 1
 224 700 l 1
 344 700 l 1
 396 162 l 1
 398 162 l 1
 447 700 l 1
 542 700 l 1
 471 0 l 1
 334 0 l 1
 284 472 l 1
 282 472 l 1
 232 0 l 1
 86 0 l 1
EndSplineSet
EndChar

StartChar: wdieresis
Encoding: 7813 7813 204
Width: 557
GlyphClass: 2
Flags: W
HStem: 0 21G<83.9714 234.119 331.881 473.029> 680 20G<15 122.822 222.067 345.933 445.178 542> 747 102<153 251 307 405>
VStem: 153 98<747 849> 307 98<747 849>
AnchorPoint: "Anchor-4" 279 849 basechar 0
AnchorPoint: "Anchor-2" 279 0 basechar 0
LayerCount: 2
Fore
SplineSet
153 747 m 1
 153 849 l 1
 251 849 l 1
 251 747 l 1
 153 747 l 1
307 747 m 1
 307 849 l 1
 405 849 l 1
 405 747 l 1
 307 747 l 1
86 0 m 1
 15 700 l 1
 121 700 l 1
 170 162 l 1
 172 162 l 1
 224 700 l 1
 344 700 l 1
 396 162 l 1
 398 162 l 1
 447 700 l 1
 542 700 l 1
 471 0 l 1
 334 0 l 1
 284 472 l 1
 282 472 l 1
 232 0 l 1
 86 0 l 1
EndSplineSet
EndChar

StartChar: wgrave
Encoding: 7809 7809 205
Width: 557
GlyphClass: 2
Flags: W
HStem: 0 21G<83.9714 234.119 331.881 473.029> 680 20G<15 122.822 222.067 345.933 445.178 542>
AnchorPoint: "Anchor-4" 279 862 basechar 0
AnchorPoint: "Anchor-2" 279 0 basechar 0
LayerCount: 2
Fore
SplineSet
256 747 m 1
 149 862 l 1
 269 862 l 1
 339 747 l 1
 256 747 l 1
86 0 m 1
 15 700 l 1
 121 700 l 1
 170 162 l 1
 172 162 l 1
 224 700 l 1
 344 700 l 1
 396 162 l 1
 398 162 l 1
 447 700 l 1
 542 700 l 1
 471 0 l 1
 334 0 l 1
 284 472 l 1
 282 472 l 1
 232 0 l 1
 86 0 l 1
EndSplineSet
EndChar

StartChar: x
Encoding: 120 120 206
Width: 406
GlyphClass: 2
Flags: W
HStem: 0 21G<11 121.721 272.443 395> 680 20G<17 139.549 278.274 389>
AnchorPoint: "Anchor-4" 203 700 basechar 0
AnchorPoint: "Anchor-2" 203 0 basechar 0
LayerCount: 2
Fore
SplineSet
11 0 m 1
 138 358 l 1
 17 700 l 1
 133 700 l 1
 207 474 l 1
 209 474 l 1
 285 700 l 1
 389 700 l 1
 268 358 l 1
 395 0 l 1
 279 0 l 1
 199 244 l 1
 197 244 l 1
 115 0 l 1
 11 0 l 1
EndSplineSet
EndChar

StartChar: y
Encoding: 121 121 207
Width: 394
GlyphClass: 2
Flags: W
HStem: 0 21G<142 252> 680 20G<9 131.837 272.163 385>
VStem: 142 110<0 298>
AnchorPoint: "Anchor-4" 197 700 basechar 0
AnchorPoint: "Anchor-2" 197 0 basechar 0
LayerCount: 2
Fore
SplineSet
142 0 m 1
 142 298 l 1
 9 700 l 1
 126 700 l 1
 201 443 l 1
 203 443 l 1
 278 700 l 1
 385 700 l 1
 252 298 l 1
 252 0 l 1
 142 0 l 1
EndSplineSet
EndChar

StartChar: yacute
Encoding: 253 253 208
Width: 394
GlyphClass: 2
Flags: W
HStem: 0 21G<142 252> 680 20G<9 131.837 272.163 385>
VStem: 142 110<0 298>
AnchorPoint: "Anchor-4" 197 862 basechar 0
AnchorPoint: "Anchor-2" 197 0 basechar 0
LayerCount: 2
Fore
SplineSet
137 747 m 1
 207 862 l 1
 327 862 l 1
 220 747 l 1
 137 747 l 1
142 0 m 1
 142 298 l 1
 9 700 l 1
 126 700 l 1
 201 443 l 1
 203 443 l 1
 278 700 l 1
 385 700 l 1
 252 298 l 1
 252 0 l 1
 142 0 l 1
EndSplineSet
EndChar

StartChar: ycircumflex
Encoding: 375 375 209
Width: 394
GlyphClass: 2
Flags: W
HStem: 0 21G<142 252> 680 20G<9 131.837 272.163 385>
VStem: 142 110<0 298>
AnchorPoint: "Anchor-4" 197 862 basechar 0
AnchorPoint: "Anchor-2" 197 0 basechar 0
LayerCount: 2
Fore
SplineSet
63 747 m 1
 145 862 l 1
 249 862 l 1
 331 747 l 1
 248 747 l 1
 197 802 l 1
 146 747 l 1
 63 747 l 1
142 0 m 1
 142 298 l 1
 9 700 l 1
 126 700 l 1
 201 443 l 1
 203 443 l 1
 278 700 l 1
 385 700 l 1
 252 298 l 1
 252 0 l 1
 142 0 l 1
EndSplineSet
EndChar

StartChar: ydieresis
Encoding: 255 255 210
Width: 394
GlyphClass: 2
Flags: W
HStem: 0 21G<142 252> 680 20G<9 131.837 272.163 385> 747 102<71 169 225 323>
VStem: 71 98<747 849> 142 110<0 298> 225 98<747 849>
AnchorPoint: "Anchor-4" 197 849 basechar 0
AnchorPoint: "Anchor-2" 197 0 basechar 0
LayerCount: 2
Fore
SplineSet
71 747 m 1xf0
 71 849 l 1
 169 849 l 1
 169 747 l 1
 71 747 l 1xf0
225 747 m 1xe4
 225 849 l 1
 323 849 l 1
 323 747 l 1
 225 747 l 1xe4
142 0 m 1xe8
 142 298 l 1
 9 700 l 1
 126 700 l 1
 201 443 l 1
 203 443 l 1
 278 700 l 1
 385 700 l 1
 252 298 l 1
 252 0 l 1
 142 0 l 1xe8
EndSplineSet
EndChar

StartChar: ygrave
Encoding: 7923 7923 211
Width: 394
GlyphClass: 2
Flags: W
HStem: 0 21G<142 252> 680 20G<9 131.837 272.163 385>
VStem: 142 110<0 298>
AnchorPoint: "Anchor-4" 197 862 basechar 0
AnchorPoint: "Anchor-2" 197 0 basechar 0
LayerCount: 2
Fore
SplineSet
174 747 m 1
 67 862 l 1
 187 862 l 1
 257 747 l 1
 174 747 l 1
142 0 m 1
 142 298 l 1
 9 700 l 1
 126 700 l 1
 201 443 l 1
 203 443 l 1
 278 700 l 1
 385 700 l 1
 252 298 l 1
 252 0 l 1
 142 0 l 1
EndSplineSet
EndChar

StartChar: z
Encoding: 122 122 212
Width: 362
GlyphClass: 2
Flags: W
HStem: 0 100<137 341> 600 100<29 223>
VStem: 19 322<0 98>
AnchorPoint: "Anchor-4" 185 700 basechar 0
AnchorPoint: "Anchor-2" 181 0 basechar 0
LayerCount: 2
Fore
SplineSet
19 0 m 1
 19 98 l 1
 223 600 l 1
 29 600 l 1
 29 700 l 1
 341 700 l 1
 341 602 l 1
 137 100 l 1
 341 100 l 1
 341 0 l 1
 19 0 l 1
EndSplineSet
EndChar

StartChar: zacute
Encoding: 378 378 213
Width: 362
GlyphClass: 2
Flags: W
HStem: 0 100<137 341> 600 100<29 223>
VStem: 19 322<0 98>
AnchorPoint: "Anchor-4" 185 862 basechar 0
AnchorPoint: "Anchor-2" 181 0 basechar 0
LayerCount: 2
Fore
SplineSet
125 747 m 1
 195 862 l 1
 315 862 l 1
 208 747 l 1
 125 747 l 1
19 0 m 1
 19 98 l 1
 223 600 l 1
 29 600 l 1
 29 700 l 1
 341 700 l 1
 341 602 l 1
 137 100 l 1
 341 100 l 1
 341 0 l 1
 19 0 l 1
EndSplineSet
EndChar

StartChar: zcaron
Encoding: 382 382 214
Width: 362
GlyphClass: 2
Flags: W
HStem: 0 100<137 341> 600 100<29 223>
VStem: 19 322<0 98>
AnchorPoint: "Anchor-4" 185 862 basechar 0
AnchorPoint: "Anchor-2" 181 0 basechar 0
LayerCount: 2
Fore
SplineSet
133 747 m 1
 51 862 l 1
 134 862 l 1
 185 807 l 1
 236 862 l 1
 319 862 l 1
 237 747 l 1
 133 747 l 1
19 0 m 1
 19 98 l 1
 223 600 l 1
 29 600 l 1
 29 700 l 1
 341 700 l 1
 341 602 l 1
 137 100 l 1
 341 100 l 1
 341 0 l 1
 19 0 l 1
EndSplineSet
EndChar

StartChar: zdotaccent
Encoding: 380 380 215
Width: 362
GlyphClass: 2
Flags: W
HStem: 0 100<137 341> 600 100<29 223> 747 102<135 235>
VStem: 135 100<747 849>
AnchorPoint: "Anchor-4" 185 849 basechar 0
AnchorPoint: "Anchor-2" 181 0 basechar 0
LayerCount: 2
Fore
SplineSet
135 747 m 1
 135 849 l 1
 235 849 l 1
 235 747 l 1
 135 747 l 1
19 0 m 1
 19 98 l 1
 223 600 l 1
 29 600 l 1
 29 700 l 1
 341 700 l 1
 341 602 l 1
 137 100 l 1
 341 100 l 1
 341 0 l 1
 19 0 l 1
EndSplineSet
EndChar

StartChar: ordfeminine
Encoding: 170 170 216
Width: 280
Flags: W
HStem: 214 68<30 242> 333 64<102.633 157.745> 504 52<112.506 172> 646 64<111.513 169.775>
VStem: 30 70<399.897 488.614> 42 66<590 643.285> 172 70<400.225 504 556 643.285> 183 59<338 386>
LayerCount: 2
Fore
SplineSet
108 333 m 0xf5
 56 333 30 368 30 429 c 2
 30 433 l 2xf8
 30 514 74 552 172 556 c 1
 172 609 l 2
 172 635 162 646 142 646 c 0
 119 646 108 635 108 603 c 2
 108 590 l 1
 42 590 l 1
 42 599 l 2
 42 669 72 710 143 710 c 0
 210 710 242 669 242 599 c 2xf6
 242 338 l 1
 183 338 l 1
 180 386 l 1
 178 386 l 1
 162 351 139 333 108 333 c 0xf5
133 397 m 0
 153 397 167 406 172 433 c 1
 172 504 l 1xfa
 123 502 100 483 100 444 c 2
 100 435 l 2
 100 408 113 397 133 397 c 0
30 214 m 1
 30 282 l 1
 242 282 l 1
 242 214 l 1xf9
 30 214 l 1
EndSplineSet
EndChar

StartChar: ordmasculine
Encoding: 186 186 217
Width: 282
Flags: W
HStem: 214 68<35 247> 333 64<107.989 173.933> 646 64<107.989 173.933>
VStem: 35 70<399.715 643.285> 177 70<399.715 643.285>
LayerCount: 2
Fore
SplineSet
141 333 m 0
 72 333 35 374 35 444 c 2
 35 599 l 2
 35 669 72 710 141 710 c 0
 210 710 247 669 247 599 c 2
 247 444 l 2
 247 374 210 333 141 333 c 0
141 397 m 0
 163 397 177 408 177 440 c 2
 177 603 l 2
 177 635 163 646 141 646 c 0
 118 646 105 635 105 603 c 2
 105 440 l 2
 105 408 118 397 141 397 c 0
35 214 m 1
 35 282 l 1
 247 282 l 1
 247 214 l 1
 35 214 l 1
EndSplineSet
EndChar

StartChar: uni0394
Encoding: 916 916 218
Width: 401
Flags: W
HStem: 0 100<128 264> 680 20G<122.743 278.257>
LayerCount: 2
Fore
SplineSet
12 0 m 1
 126 700 l 1
 275 700 l 1
 389 0 l 1
 12 0 l 1
128 100 m 1
 264 100 l 1
 197 568 l 1
 195 568 l 1
 128 100 l 1
EndSplineSet
EndChar

StartChar: uni03A9
Encoding: 937 937 219
Width: 402
Flags: W
HStem: 0 100<34 114 288 368> 610 100<156.722 245.278>
VStem: 34 151<0 100> 34 110<194.684 596.174> 217 151<0 100> 258 110<194.688 596.174>
LayerCount: 2
Fore
SplineSet
34 0 m 1xe0
 34 100 l 1xe0
 114 100 l 1
 114 102 l 1
 58 164 34 226 34 338 c 2
 34 534 l 2
 34 646 93 710 201 710 c 0
 309 710 368 646 368 534 c 2
 368 338 l 2xd4
 368 227 344 164 288 102 c 1
 288 100 l 1
 368 100 l 1
 368 0 l 1
 217 0 l 1
 217 100 l 1xc8
 250 158 258 208 258 291 c 2
 258 541 l 2
 258 591 236 610 201 610 c 0
 166 610 144 591 144 541 c 2
 144 291 l 2xd4
 144 208 152 158 185 100 c 1
 185 0 l 1
 34 0 l 1xe0
EndSplineSet
EndChar

StartChar: uni03BC
Encoding: 956 956 220
Width: 405
Flags: W
HStem: -160 21G<41 151> -4 96<158.752 241.232>
VStem: 41 110<-160 -4 99.4883 500> 261 110<103.046 500> 271 100<0 52>
LayerCount: 2
Fore
SplineSet
41 -160 m 1xe8
 41 500 l 1
 151 500 l 1
 151 149 l 2
 151 109 170 92 203 92 c 0
 236 92 261 111 261 161 c 2
 261 500 l 1
 371 500 l 1xf0
 371 0 l 1
 271 0 l 1
 271 52 l 1
 251 17 216 -4 175 -4 c 2
 151 -4 l 1
 151 -160 l 1
 41 -160 l 1xe8
EndSplineSet
EndChar

StartChar: pi
Encoding: 960 960 221
Width: 452
Flags: W
HStem: 0 21G<74 184 268 378> 400 100<14 74 184 268 378 438>
VStem: 74 110<0 400> 268 110<0 400>
LayerCount: 2
Fore
SplineSet
74 0 m 1
 74 400 l 1
 14 400 l 1
 14 500 l 1
 438 500 l 1
 438 400 l 1
 378 400 l 1
 378 0 l 1
 268 0 l 1
 268 400 l 1
 184 400 l 1
 184 0 l 1
 74 0 l 1
EndSplineSet
EndChar

StartChar: zero
Encoding: 48 48 222
Width: 400
Flags: W
HStem: -10 100<155.722 244.278> 610 100<155.722 244.278>
VStem: 33 110<103.826 596.174> 257 110<103.826 596.174>
LayerCount: 2
Fore
SplineSet
200 -10 m 0
 92 -10 33 54 33 166 c 2
 33 534 l 2
 33 646 92 710 200 710 c 0
 308 710 367 646 367 534 c 2
 367 166 l 2
 367 54 308 -10 200 -10 c 0
200 90 m 0
 235 90 257 109 257 159 c 2
 257 541 l 2
 257 591 235 610 200 610 c 0
 165 610 143 591 143 541 c 2
 143 159 l 2
 143 109 165 90 200 90 c 0
EndSplineSet
Substitution2: "'frac' Diagonal Fractions in Latin lookup 18 subtable" zero.numr
Substitution2: "'dnom' Denominators in Latin lookup 16 subtable" zero.dnom
Substitution2: "'numr' Numerators in Latin lookup 15 subtable" zero.numr
Substitution2: "'sups' Superscript in Latin lookup 14 subtable" uni2070
Substitution2: "'subs' Subscript in Latin lookup 13 subtable" uni2080
Substitution2: "'pnum' Proportional Numbers in Latin lookup 12 subtable" zero.lf
AlternateSubs2: "'aalt' Access All Alternates in Latin lookup 1 subtable" zero.lf uni2080 uni2070 zero.numr zero.dnom
EndChar

StartChar: one
Encoding: 49 49 223
Width: 400
Flags: W
HStem: 0 21G<195 305> 534 78<80 185.214> 680 20G<218.5 305>
VStem: 195 110<0 534> 231 74<657.562 700>
LayerCount: 2
Fore
SplineSet
195 0 m 1xf0
 195 534 l 1xf0
 80 534 l 1
 80 612 l 1
 173 612 206 632 231 700 c 1
 305 700 l 1xe8
 305 0 l 1
 195 0 l 1xf0
EndSplineSet
Substitution2: "'frac' Diagonal Fractions in Latin lookup 18 subtable" one.numr
Substitution2: "'dnom' Denominators in Latin lookup 16 subtable" one.dnom
Substitution2: "'numr' Numerators in Latin lookup 15 subtable" one.numr
Substitution2: "'sups' Superscript in Latin lookup 14 subtable" uni00B9
Substitution2: "'subs' Subscript in Latin lookup 13 subtable" uni2081
Substitution2: "'pnum' Proportional Numbers in Latin lookup 12 subtable" one.lf
AlternateSubs2: "'aalt' Access All Alternates in Latin lookup 1 subtable" one.lf uni2081 uni00B9 one.numr one.dnom
EndChar

StartChar: two
Encoding: 50 50 224
Width: 400
Flags: W
HStem: 0 100<148 357> 610 100<155.135 245.294>
VStem: 39 109<100 190.215 466 600.442> 257 110<438.415 597.907>
LayerCount: 2
Fore
SplineSet
39 0 m 1
 39 76 l 2
 39 176 67 237 149 323 c 0
 233 412 257 465 257 530 c 0
 257 593 235 610 200 610 c 0
 165 610 143 591 143 541 c 2
 143 466 l 1
 39 466 l 1
 39 534 l 2
 39 646 95 710 203 710 c 0
 311 710 367 646 367 534 c 0
 367 451 333 377 231 269 c 0
 165 199 148 164 148 115 c 2
 148 100 l 1
 357 100 l 1
 357 0 l 1
 39 0 l 1
EndSplineSet
Substitution2: "'frac' Diagonal Fractions in Latin lookup 18 subtable" two.numr
Substitution2: "'dnom' Denominators in Latin lookup 16 subtable" two.dnom
Substitution2: "'numr' Numerators in Latin lookup 15 subtable" two.numr
Substitution2: "'sups' Superscript in Latin lookup 14 subtable" uni00B2
Substitution2: "'subs' Subscript in Latin lookup 13 subtable" uni2082
Substitution2: "'pnum' Proportional Numbers in Latin lookup 12 subtable" two.lf
AlternateSubs2: "'aalt' Access All Alternates in Latin lookup 1 subtable" two.lf uni2082 uni00B2 two.numr two.dnom
EndChar

StartChar: three
Encoding: 51 51 225
Width: 400
Flags: W
HStem: -10 100<149.135 239.294> 315 100<142 234.398> 610 100<150.562 235.418>
VStem: 33 104<102.04 221 499 597.96> 251 110<101.147 298.511 429.964 594.555>
LayerCount: 2
Fore
SplineSet
197 -10 m 0
 89 -10 33 52 33 164 c 2
 33 221 l 1
 137 221 l 1
 137 159 l 2
 137 109 159 90 194 90 c 0
 229 90 251 107 251 169 c 2
 251 226 l 2
 251 291 229 315 179 315 c 2
 142 315 l 1
 142 415 l 1
 182 415 l 2
 223 415 248 433 248 489 c 2
 248 540 l 2
 248 590 225 610 193 610 c 0
 161 610 140 591 140 545 c 2
 140 499 l 1
 36 499 l 1
 36 536 l 2
 36 648 92 710 197 710 c 0
 302 710 358 649 358 537 c 2
 358 512 l 2
 358 437 334 391 280 371 c 1
 280 369 l 1
 339 347 361 296 361 225 c 2
 361 163 l 2
 361 51 305 -10 197 -10 c 0
EndSplineSet
Substitution2: "'frac' Diagonal Fractions in Latin lookup 18 subtable" three.numr
Substitution2: "'dnom' Denominators in Latin lookup 16 subtable" three.dnom
Substitution2: "'numr' Numerators in Latin lookup 15 subtable" three.numr
Substitution2: "'sups' Superscript in Latin lookup 14 subtable" uni00B3
Substitution2: "'subs' Subscript in Latin lookup 13 subtable" uni2083
Substitution2: "'pnum' Proportional Numbers in Latin lookup 12 subtable" three.lf
AlternateSubs2: "'aalt' Access All Alternates in Latin lookup 1 subtable" three.lf uni2083 uni00B3 three.numr three.dnom
EndChar

StartChar: four
Encoding: 52 52 226
Width: 400
Flags: W
HStem: 0 21G<225 335> 127 100<115 225 335 387> 680 20G<206.543 335>
VStem: 225 110<0 127 227 500>
LayerCount: 2
Fore
SplineSet
225 0 m 1
 225 127 l 1
 15 127 l 1
 15 227 l 1
 215 700 l 1
 335 700 l 1
 335 227 l 1
 387 227 l 1
 387 127 l 1
 335 127 l 1
 335 0 l 1
 225 0 l 1
115 227 m 1
 225 227 l 1
 225 500 l 1
 223 500 l 1
 115 227 l 1
EndSplineSet
Substitution2: "'frac' Diagonal Fractions in Latin lookup 18 subtable" four.numr
Substitution2: "'dnom' Denominators in Latin lookup 16 subtable" four.dnom
Substitution2: "'numr' Numerators in Latin lookup 15 subtable" four.numr
Substitution2: "'sups' Superscript in Latin lookup 14 subtable" uni2074
Substitution2: "'subs' Subscript in Latin lookup 13 subtable" uni2084
Substitution2: "'pnum' Proportional Numbers in Latin lookup 12 subtable" four.lf
AlternateSubs2: "'aalt' Access All Alternates in Latin lookup 1 subtable" four.lf uni2084 uni2074 four.numr four.dnom
EndChar

StartChar: five
Encoding: 53 53 227
Width: 400
Flags: W
HStem: -10 100<153.744 245.089> 384 100<175.123 284.965> 384 49<153.071 166.094> 600 100<156 348>
VStem: 38 104<99.8508 221 309 373.788> 256 110<99.8508 372.977>
LayerCount: 2
Fore
SplineSet
202 -10 m 0xdc
 94 -10 38 54 38 166 c 2
 38 221 l 1
 142 221 l 1
 142 158 l 2
 142 108 164 90 199 90 c 0
 234 90 256 108 256 158 c 2
 256 315 l 2
 256 365 234 384 199 384 c 0xdc
 164 384 142 365 142 315 c 2
 142 309 l 1
 38 309 l 1
 58 700 l 1
 348 700 l 1
 348 600 l 1
 156 600 l 1
 147 433 l 1
 149 433 l 1xbc
 169 466 200 484 244 484 c 0
 325 484 366 427 366 324 c 2
 366 166 l 2
 366 54 310 -10 202 -10 c 0xdc
EndSplineSet
Substitution2: "'frac' Diagonal Fractions in Latin lookup 18 subtable" five.numr
Substitution2: "'dnom' Denominators in Latin lookup 16 subtable" five.dnom
Substitution2: "'numr' Numerators in Latin lookup 15 subtable" five.numr
Substitution2: "'sups' Superscript in Latin lookup 14 subtable" uni2075
Substitution2: "'subs' Subscript in Latin lookup 13 subtable" uni2085
Substitution2: "'pnum' Proportional Numbers in Latin lookup 12 subtable" five.lf
AlternateSubs2: "'aalt' Access All Alternates in Latin lookup 1 subtable" five.lf uni2085 uni2075 five.numr five.dnom
EndChar

StartChar: six
Encoding: 54 54 228
Width: 400
Flags: W
HStem: -10 100<158.641 247.359> 610 100<159.268 251.865>
VStem: 36 110<103.826 340.75 390 597.581> 260 110<103.826 339.977 521 600.442>
LayerCount: 2
Fore
SplineSet
203 -10 m 0
 95 -10 36 54 36 166 c 2
 36 528 l 2
 36 646 90 710 204 710 c 0
 312 710 368 646 368 534 c 2
 368 521 l 1
 264 521 l 1
 264 541 l 2
 264 591 242 610 207 610 c 0
 168 610 146 591 146 524 c 2
 146 390 l 1
 148 390 l 1
 167 430 199 451 248 451 c 0
 329 451 370 394 370 291 c 2
 370 166 l 2
 370 54 311 -10 203 -10 c 0
203 90 m 0
 241 90 260 112 260 158 c 2
 260 282 l 2
 260 329 241 351 203 351 c 0
 165 351 146 329 146 282 c 2
 146 158 l 2
 146 112 165 90 203 90 c 0
EndSplineSet
Substitution2: "'frac' Diagonal Fractions in Latin lookup 18 subtable" six.numr
Substitution2: "'dnom' Denominators in Latin lookup 16 subtable" six.dnom
Substitution2: "'numr' Numerators in Latin lookup 15 subtable" six.numr
Substitution2: "'sups' Superscript in Latin lookup 14 subtable" uni2076
Substitution2: "'subs' Subscript in Latin lookup 13 subtable" uni2086
Substitution2: "'pnum' Proportional Numbers in Latin lookup 12 subtable" six.lf
AlternateSubs2: "'aalt' Access All Alternates in Latin lookup 1 subtable" six.lf uni2086 uni2076 six.numr six.dnom
EndChar

StartChar: seven
Encoding: 55 55 229
Width: 400
Flags: W
HStem: 0 21G<80 197.695> 600 100<34 256>
VStem: 34 330<600 700>
LayerCount: 2
Fore
SplineSet
80 0 m 1
 256 600 l 1
 34 600 l 1
 34 700 l 1
 364 700 l 1
 364 604 l 1
 192 0 l 1
 80 0 l 1
EndSplineSet
Substitution2: "'frac' Diagonal Fractions in Latin lookup 18 subtable" seven.numr
Substitution2: "'dnom' Denominators in Latin lookup 16 subtable" seven.dnom
Substitution2: "'numr' Numerators in Latin lookup 15 subtable" seven.numr
Substitution2: "'sups' Superscript in Latin lookup 14 subtable" uni2077
Substitution2: "'subs' Subscript in Latin lookup 13 subtable" uni2087
Substitution2: "'pnum' Proportional Numbers in Latin lookup 12 subtable" seven.lf
AlternateSubs2: "'aalt' Access All Alternates in Latin lookup 1 subtable" seven.lf uni2087 uni2077 seven.numr seven.dnom
EndChar

StartChar: eight
Encoding: 56 56 230
Width: 400
Flags: W
HStem: -10 100<154.418 245.582> 315 100<154.133 245.867> 610 100<155.882 244.118>
VStem: 28 110<105.445 299.886 431.291 594.555> 262 110<105.445 299.886 431.291 594.555>
LayerCount: 2
Fore
SplineSet
200 -10 m 0
 89 -10 28 51 28 163 c 2
 28 225 l 2
 28 292 48 341 100 368 c 1
 100 370 l 1
 54 395 32 439 32 508 c 2
 32 537 l 2
 32 649 93 710 200 710 c 0
 307 710 368 649 368 537 c 2
 368 508 l 2
 368 439 345 395 300 370 c 1
 300 368 l 1
 352 341 372 292 372 225 c 2
 372 163 l 2
 372 51 311 -10 200 -10 c 0
200 415 m 0
 238 415 258 439 258 485 c 2
 258 540 l 2
 258 586 238 610 200 610 c 0
 162 610 142 586 142 540 c 2
 142 485 l 2
 142 439 162 415 200 415 c 0
200 90 m 0
 241 90 262 116 262 169 c 2
 262 236 l 2
 262 289 241 315 200 315 c 0
 159 315 138 289 138 236 c 2
 138 169 l 2
 138 116 159 90 200 90 c 0
EndSplineSet
Substitution2: "'frac' Diagonal Fractions in Latin lookup 18 subtable" eight.numr
Substitution2: "'dnom' Denominators in Latin lookup 16 subtable" eight.dnom
Substitution2: "'numr' Numerators in Latin lookup 15 subtable" eight.numr
Substitution2: "'sups' Superscript in Latin lookup 14 subtable" uni2078
Substitution2: "'subs' Subscript in Latin lookup 13 subtable" uni2088
Substitution2: "'pnum' Proportional Numbers in Latin lookup 12 subtable" eight.lf
AlternateSubs2: "'aalt' Access All Alternates in Latin lookup 1 subtable" eight.lf uni2088 uni2078 eight.numr eight.dnom
EndChar

StartChar: nine
Encoding: 57 57 231
Width: 400
Flags: W
HStem: -10 100<148.135 240.732> 610 100<152.641 241.359>
VStem: 30 110<99.5581 179 360.023 596.174> 254 110<102.419 310 359.25 596.174>
LayerCount: 2
Fore
SplineSet
196 -10 m 0
 88 -10 32 54 32 166 c 2
 32 179 l 1
 136 179 l 1
 136 159 l 2
 136 109 158 90 193 90 c 0
 232 90 254 109 254 176 c 2
 254 310 l 1
 252 310 l 1
 233 270 201 249 152 249 c 0
 71 249 30 306 30 409 c 2
 30 534 l 2
 30 646 89 710 197 710 c 0
 305 710 364 646 364 534 c 2
 364 172 l 2
 364 54 310 -10 196 -10 c 0
197 349 m 0
 235 349 254 371 254 418 c 2
 254 542 l 2
 254 588 235 610 197 610 c 0
 159 610 140 588 140 542 c 2
 140 418 l 2
 140 371 159 349 197 349 c 0
EndSplineSet
Substitution2: "'frac' Diagonal Fractions in Latin lookup 18 subtable" nine.numr
Substitution2: "'dnom' Denominators in Latin lookup 16 subtable" nine.dnom
Substitution2: "'numr' Numerators in Latin lookup 15 subtable" nine.numr
Substitution2: "'sups' Superscript in Latin lookup 14 subtable" uni2079
Substitution2: "'subs' Subscript in Latin lookup 13 subtable" uni2089
Substitution2: "'pnum' Proportional Numbers in Latin lookup 12 subtable" nine.lf
AlternateSubs2: "'aalt' Access All Alternates in Latin lookup 1 subtable" nine.lf uni2089 uni2079 nine.numr nine.dnom
EndChar

StartChar: zero.alt
Encoding: 65541 -1 232
Width: 400
Flags: W
HStem: -10 100<155.722 244.278> 610 100<155.722 244.278>
VStem: 33 110<103.826 596.174> 257 110<103.826 596.174>
LayerCount: 2
Fore
SplineSet
200 -10 m 0
 92 -10 33 54 33 166 c 2
 33 534 l 2
 33 646 92 710 200 710 c 0
 308 710 367 646 367 534 c 2
 367 166 l 2
 367 54 308 -10 200 -10 c 0
200 90 m 0
 235 90 257 109 257 159 c 2
 257 541 l 2
 257 591 235 610 200 610 c 0
 165 610 143 591 143 541 c 2
 143 159 l 2
 143 109 165 90 200 90 c 0
EndSplineSet
Substitution2: "'tnum' Tabular Numbers in Latin lookup 22 subtable" zero
Substitution2: "'pnum' Proportional Numbers in Latin lookup 12 subtable" zero.lf
AlternateSubs2: "'aalt' Access All Alternates in Latin lookup 1 subtable" zero.lf zero
EndChar

StartChar: one.alt
Encoding: 65542 -1 233
Width: 291
Flags: W
HStem: 0 21G<133 243> 534 78<18 123.214> 680 20G<156.5 243>
VStem: 133 110<0 534> 169 74<657.562 700>
LayerCount: 2
Fore
SplineSet
133 0 m 1xf0
 133 534 l 1xf0
 18 534 l 1
 18 612 l 1
 111 612 144 632 169 700 c 1
 243 700 l 1xe8
 243 0 l 1
 133 0 l 1xf0
EndSplineSet
Substitution2: "'tnum' Tabular Numbers in Latin lookup 22 subtable" one
Substitution2: "'pnum' Proportional Numbers in Latin lookup 12 subtable" one.lf
AlternateSubs2: "'aalt' Access All Alternates in Latin lookup 1 subtable" one.lf one
EndChar

StartChar: two.alt
Encoding: 65543 -1 234
Width: 372
Flags: W
HStem: 0 100<133 342> 610 100<140.135 230.294>
VStem: 24 109<100 190.215 466 600.442> 242 110<438.415 597.907>
LayerCount: 2
Fore
SplineSet
24 0 m 1
 24 76 l 2
 24 176 52 237 134 323 c 0
 218 412 242 465 242 530 c 0
 242 593 220 610 185 610 c 0
 150 610 128 591 128 541 c 2
 128 466 l 1
 24 466 l 1
 24 534 l 2
 24 646 80 710 188 710 c 0
 296 710 352 646 352 534 c 0
 352 451 318 377 216 269 c 0
 150 199 133 164 133 115 c 2
 133 100 l 1
 342 100 l 1
 342 0 l 1
 24 0 l 1
EndSplineSet
Substitution2: "'tnum' Tabular Numbers in Latin lookup 22 subtable" two
Substitution2: "'pnum' Proportional Numbers in Latin lookup 12 subtable" two.lf
AlternateSubs2: "'aalt' Access All Alternates in Latin lookup 1 subtable" two.lf two
EndChar

StartChar: three.alt
Encoding: 65544 -1 235
Width: 374
Flags: W
HStem: -10 100<136.135 226.294> 315 100<129 221.398> 610 100<137.562 222.418>
VStem: 20 104<102.04 221 499 597.96> 238 110<101.147 298.511 429.964 594.555>
LayerCount: 2
Fore
SplineSet
184 -10 m 0
 76 -10 20 52 20 164 c 2
 20 221 l 1
 124 221 l 1
 124 159 l 2
 124 109 146 90 181 90 c 0
 216 90 238 107 238 169 c 2
 238 226 l 2
 238 291 216 315 166 315 c 2
 129 315 l 1
 129 415 l 1
 169 415 l 2
 210 415 235 433 235 489 c 2
 235 540 l 2
 235 590 212 610 180 610 c 0
 148 610 127 591 127 545 c 2
 127 499 l 1
 23 499 l 1
 23 536 l 2
 23 648 79 710 184 710 c 0
 289 710 345 649 345 537 c 2
 345 512 l 2
 345 437 321 391 267 371 c 1
 267 369 l 1
 326 347 348 296 348 225 c 2
 348 163 l 2
 348 51 292 -10 184 -10 c 0
EndSplineSet
Substitution2: "'tnum' Tabular Numbers in Latin lookup 22 subtable" three
Substitution2: "'pnum' Proportional Numbers in Latin lookup 12 subtable" three.lf
AlternateSubs2: "'aalt' Access All Alternates in Latin lookup 1 subtable" three.lf three
EndChar

StartChar: four.alt
Encoding: 65545 -1 236
Width: 398
Flags: W
HStem: 0 21G<224 334> 127 100<114 224 334 386> 680 20G<205.543 334>
VStem: 224 110<0 127 227 500>
LayerCount: 2
Fore
SplineSet
224 0 m 1
 224 127 l 1
 14 127 l 1
 14 227 l 1
 214 700 l 1
 334 700 l 1
 334 227 l 1
 386 227 l 1
 386 127 l 1
 334 127 l 1
 334 0 l 1
 224 0 l 1
114 227 m 1
 224 227 l 1
 224 500 l 1
 222 500 l 1
 114 227 l 1
EndSplineSet
Substitution2: "'tnum' Tabular Numbers in Latin lookup 22 subtable" four
Substitution2: "'pnum' Proportional Numbers in Latin lookup 12 subtable" four.lf
AlternateSubs2: "'aalt' Access All Alternates in Latin lookup 1 subtable" four.lf four
EndChar

StartChar: five.alt
Encoding: 65546 -1 237
Width: 382
Flags: W
HStem: -10 100<143.744 235.089> 384 100<165.123 274.965> 384 49<143.071 156.094> 600 100<146 338>
VStem: 28 104<99.8508 221 309 373.788> 246 110<99.8508 372.977>
LayerCount: 2
Fore
SplineSet
192 -10 m 0xdc
 84 -10 28 54 28 166 c 2
 28 221 l 1
 132 221 l 1
 132 158 l 2
 132 108 154 90 189 90 c 0
 224 90 246 108 246 158 c 2
 246 315 l 2
 246 365 224 384 189 384 c 0xdc
 154 384 132 365 132 315 c 2
 132 309 l 1
 28 309 l 1
 48 700 l 1
 338 700 l 1
 338 600 l 1
 146 600 l 1
 137 433 l 1
 139 433 l 1xbc
 159 466 190 484 234 484 c 0
 315 484 356 427 356 324 c 2
 356 166 l 2
 356 54 300 -10 192 -10 c 0xdc
EndSplineSet
Substitution2: "'tnum' Tabular Numbers in Latin lookup 22 subtable" five
Substitution2: "'pnum' Proportional Numbers in Latin lookup 12 subtable" five.lf
AlternateSubs2: "'aalt' Access All Alternates in Latin lookup 1 subtable" five.lf five
EndChar

StartChar: six.alt
Encoding: 65547 -1 238
Width: 393
Flags: W
HStem: -10 100<155.641 244.359> 610 100<156.268 248.865>
VStem: 33 110<103.826 340.75 390 597.581> 257 110<103.826 339.977 521 600.442>
LayerCount: 2
Fore
SplineSet
200 -10 m 0
 92 -10 33 54 33 166 c 2
 33 528 l 2
 33 646 87 710 201 710 c 0
 309 710 365 646 365 534 c 2
 365 521 l 1
 261 521 l 1
 261 541 l 2
 261 591 239 610 204 610 c 0
 165 610 143 591 143 524 c 2
 143 390 l 1
 145 390 l 1
 164 430 196 451 245 451 c 0
 326 451 367 394 367 291 c 2
 367 166 l 2
 367 54 308 -10 200 -10 c 0
200 90 m 0
 238 90 257 112 257 158 c 2
 257 282 l 2
 257 329 238 351 200 351 c 0
 162 351 143 329 143 282 c 2
 143 158 l 2
 143 112 162 90 200 90 c 0
EndSplineSet
Substitution2: "'tnum' Tabular Numbers in Latin lookup 22 subtable" six
Substitution2: "'pnum' Proportional Numbers in Latin lookup 12 subtable" six.lf
AlternateSubs2: "'aalt' Access All Alternates in Latin lookup 1 subtable" six.lf six
EndChar

StartChar: seven.alt
Encoding: 65548 -1 239
Width: 356
Flags: W
HStem: 0 21G<58 175.695> 600 100<12 234>
VStem: 12 330<600 700>
LayerCount: 2
Fore
SplineSet
58 0 m 1
 234 600 l 1
 12 600 l 1
 12 700 l 1
 342 700 l 1
 342 604 l 1
 170 0 l 1
 58 0 l 1
EndSplineSet
Substitution2: "'tnum' Tabular Numbers in Latin lookup 22 subtable" seven
Substitution2: "'pnum' Proportional Numbers in Latin lookup 12 subtable" seven.lf
AlternateSubs2: "'aalt' Access All Alternates in Latin lookup 1 subtable" seven.lf seven
EndChar

StartChar: eight.alt
Encoding: 65549 -1 240
Width: 396
Flags: W
HStem: -10 100<152.418 243.582> 315 100<152.133 243.867> 610 100<153.882 242.118>
VStem: 26 110<105.445 299.886 431.291 594.555> 260 110<105.445 299.886 431.291 594.555>
LayerCount: 2
Fore
SplineSet
198 -10 m 0
 87 -10 26 51 26 163 c 2
 26 225 l 2
 26 292 46 341 98 368 c 1
 98 370 l 1
 52 395 30 439 30 508 c 2
 30 537 l 2
 30 649 91 710 198 710 c 0
 305 710 366 649 366 537 c 2
 366 508 l 2
 366 439 343 395 298 370 c 1
 298 368 l 1
 350 341 370 292 370 225 c 2
 370 163 l 2
 370 51 309 -10 198 -10 c 0
198 415 m 0
 236 415 256 439 256 485 c 2
 256 540 l 2
 256 586 236 610 198 610 c 0
 160 610 140 586 140 540 c 2
 140 485 l 2
 140 439 160 415 198 415 c 0
198 90 m 0
 239 90 260 116 260 169 c 2
 260 236 l 2
 260 289 239 315 198 315 c 0
 157 315 136 289 136 236 c 2
 136 169 l 2
 136 116 157 90 198 90 c 0
EndSplineSet
Substitution2: "'tnum' Tabular Numbers in Latin lookup 22 subtable" eight
Substitution2: "'pnum' Proportional Numbers in Latin lookup 12 subtable" eight.lf
AlternateSubs2: "'aalt' Access All Alternates in Latin lookup 1 subtable" eight.lf eight
EndChar

StartChar: nine.alt
Encoding: 65550 -1 241
Width: 393
Flags: W
HStem: -10 100<144.135 236.732> 610 100<148.641 237.359>
VStem: 26 110<99.5581 179 360.023 596.174> 250 110<102.419 310 359.25 596.174>
LayerCount: 2
Fore
SplineSet
192 -10 m 0
 84 -10 28 54 28 166 c 2
 28 179 l 1
 132 179 l 1
 132 159 l 2
 132 109 154 90 189 90 c 0
 228 90 250 109 250 176 c 2
 250 310 l 1
 248 310 l 1
 229 270 197 249 148 249 c 0
 67 249 26 306 26 409 c 2
 26 534 l 2
 26 646 85 710 193 710 c 0
 301 710 360 646 360 534 c 2
 360 172 l 2
 360 54 306 -10 192 -10 c 0
193 349 m 0
 231 349 250 371 250 418 c 2
 250 542 l 2
 250 588 231 610 193 610 c 0
 155 610 136 588 136 542 c 2
 136 418 l 2
 136 371 155 349 193 349 c 0
EndSplineSet
Substitution2: "'tnum' Tabular Numbers in Latin lookup 22 subtable" nine
Substitution2: "'pnum' Proportional Numbers in Latin lookup 12 subtable" nine.lf
AlternateSubs2: "'aalt' Access All Alternates in Latin lookup 1 subtable" nine.lf nine
EndChar

StartChar: zero.lf
Encoding: 65551 -1 242
Width: 400
Flags: W
HStem: -10 100<155.722 244.278> 610 100<155.722 244.278>
VStem: 33 110<103.826 596.174> 257 110<103.826 596.174>
LayerCount: 2
Fore
SplineSet
200 -10 m 0
 92 -10 33 54 33 166 c 2
 33 534 l 2
 33 646 92 710 200 710 c 0
 308 710 367 646 367 534 c 2
 367 166 l 2
 367 54 308 -10 200 -10 c 0
200 90 m 0
 235 90 257 109 257 159 c 2
 257 541 l 2
 257 591 235 610 200 610 c 0
 165 610 143 591 143 541 c 2
 143 159 l 2
 143 109 165 90 200 90 c 0
EndSplineSet
Substitution2: "'tnum' Tabular Numbers in Latin lookup 22 subtable" zero
AlternateSubs2: "'aalt' Access All Alternates in Latin lookup 1 subtable" zero
EndChar

StartChar: one.lf
Encoding: 65552 -1 243
Width: 291
Flags: W
HStem: 0 21G<133 243> 534 78<18 123.214> 680 20G<156.5 243>
VStem: 133 110<0 534> 169 74<657.562 700>
LayerCount: 2
Fore
SplineSet
133 0 m 1xf0
 133 534 l 1xf0
 18 534 l 1
 18 612 l 1
 111 612 144 632 169 700 c 1
 243 700 l 1xe8
 243 0 l 1
 133 0 l 1xf0
EndSplineSet
Substitution2: "'tnum' Tabular Numbers in Latin lookup 22 subtable" one
AlternateSubs2: "'aalt' Access All Alternates in Latin lookup 1 subtable" one
EndChar

StartChar: two.lf
Encoding: 65553 -1 244
Width: 372
Flags: W
HStem: 0 100<133 342> 610 100<140.135 230.294>
VStem: 24 109<100 190.215 466 600.442> 242 110<438.415 597.907>
LayerCount: 2
Fore
SplineSet
24 0 m 1
 24 76 l 2
 24 176 52 237 134 323 c 0
 218 412 242 465 242 530 c 0
 242 593 220 610 185 610 c 0
 150 610 128 591 128 541 c 2
 128 466 l 1
 24 466 l 1
 24 534 l 2
 24 646 80 710 188 710 c 0
 296 710 352 646 352 534 c 0
 352 451 318 377 216 269 c 0
 150 199 133 164 133 115 c 2
 133 100 l 1
 342 100 l 1
 342 0 l 1
 24 0 l 1
EndSplineSet
Substitution2: "'tnum' Tabular Numbers in Latin lookup 22 subtable" two
AlternateSubs2: "'aalt' Access All Alternates in Latin lookup 1 subtable" two
EndChar

StartChar: three.lf
Encoding: 65554 -1 245
Width: 374
Flags: W
HStem: -10 100<136.135 226.294> 315 100<129 221.398> 610 100<137.562 222.418>
VStem: 20 104<102.04 221 499 597.96> 238 110<101.147 298.511 429.964 594.555>
LayerCount: 2
Fore
SplineSet
184 -10 m 0
 76 -10 20 52 20 164 c 2
 20 221 l 1
 124 221 l 1
 124 159 l 2
 124 109 146 90 181 90 c 0
 216 90 238 107 238 169 c 2
 238 226 l 2
 238 291 216 315 166 315 c 2
 129 315 l 1
 129 415 l 1
 169 415 l 2
 210 415 235 433 235 489 c 2
 235 540 l 2
 235 590 212 610 180 610 c 0
 148 610 127 591 127 545 c 2
 127 499 l 1
 23 499 l 1
 23 536 l 2
 23 648 79 710 184 710 c 0
 289 710 345 649 345 537 c 2
 345 512 l 2
 345 437 321 391 267 371 c 1
 267 369 l 1
 326 347 348 296 348 225 c 2
 348 163 l 2
 348 51 292 -10 184 -10 c 0
EndSplineSet
Substitution2: "'tnum' Tabular Numbers in Latin lookup 22 subtable" three
AlternateSubs2: "'aalt' Access All Alternates in Latin lookup 1 subtable" three
EndChar

StartChar: four.lf
Encoding: 65555 -1 246
Width: 398
Flags: W
HStem: 0 21G<224 334> 127 100<114 224 334 386> 680 20G<205.543 334>
VStem: 224 110<0 127 227 500>
LayerCount: 2
Fore
SplineSet
224 0 m 1
 224 127 l 1
 14 127 l 1
 14 227 l 1
 214 700 l 1
 334 700 l 1
 334 227 l 1
 386 227 l 1
 386 127 l 1
 334 127 l 1
 334 0 l 1
 224 0 l 1
114 227 m 1
 224 227 l 1
 224 500 l 1
 222 500 l 1
 114 227 l 1
EndSplineSet
Substitution2: "'tnum' Tabular Numbers in Latin lookup 22 subtable" four
AlternateSubs2: "'aalt' Access All Alternates in Latin lookup 1 subtable" four
EndChar

StartChar: five.lf
Encoding: 65556 -1 247
Width: 382
Flags: W
HStem: -10 100<143.744 235.089> 384 100<165.123 274.965> 384 49<143.071 156.094> 600 100<146 338>
VStem: 28 104<99.8508 221 309 373.788> 246 110<99.8508 372.977>
LayerCount: 2
Fore
SplineSet
192 -10 m 0xdc
 84 -10 28 54 28 166 c 2
 28 221 l 1
 132 221 l 1
 132 158 l 2
 132 108 154 90 189 90 c 0
 224 90 246 108 246 158 c 2
 246 315 l 2
 246 365 224 384 189 384 c 0xdc
 154 384 132 365 132 315 c 2
 132 309 l 1
 28 309 l 1
 48 700 l 1
 338 700 l 1
 338 600 l 1
 146 600 l 1
 137 433 l 1
 139 433 l 1xbc
 159 466 190 484 234 484 c 0
 315 484 356 427 356 324 c 2
 356 166 l 2
 356 54 300 -10 192 -10 c 0xdc
EndSplineSet
Substitution2: "'tnum' Tabular Numbers in Latin lookup 22 subtable" five
AlternateSubs2: "'aalt' Access All Alternates in Latin lookup 1 subtable" five
EndChar

StartChar: six.lf
Encoding: 65557 -1 248
Width: 393
Flags: W
HStem: -10 100<155.641 244.359> 610 100<156.268 248.865>
VStem: 33 110<103.826 340.75 390 597.581> 257 110<103.826 339.977 521 600.442>
LayerCount: 2
Fore
SplineSet
200 -10 m 0
 92 -10 33 54 33 166 c 2
 33 528 l 2
 33 646 87 710 201 710 c 0
 309 710 365 646 365 534 c 2
 365 521 l 1
 261 521 l 1
 261 541 l 2
 261 591 239 610 204 610 c 0
 165 610 143 591 143 524 c 2
 143 390 l 1
 145 390 l 1
 164 430 196 451 245 451 c 0
 326 451 367 394 367 291 c 2
 367 166 l 2
 367 54 308 -10 200 -10 c 0
200 90 m 0
 238 90 257 112 257 158 c 2
 257 282 l 2
 257 329 238 351 200 351 c 0
 162 351 143 329 143 282 c 2
 143 158 l 2
 143 112 162 90 200 90 c 0
EndSplineSet
Substitution2: "'tnum' Tabular Numbers in Latin lookup 22 subtable" six
AlternateSubs2: "'aalt' Access All Alternates in Latin lookup 1 subtable" six
EndChar

StartChar: seven.lf
Encoding: 65558 -1 249
Width: 356
Flags: W
HStem: 0 21G<58 175.695> 600 100<12 234>
VStem: 12 330<600 700>
LayerCount: 2
Fore
SplineSet
58 0 m 1
 234 600 l 1
 12 600 l 1
 12 700 l 1
 342 700 l 1
 342 604 l 1
 170 0 l 1
 58 0 l 1
EndSplineSet
Substitution2: "'tnum' Tabular Numbers in Latin lookup 22 subtable" seven
AlternateSubs2: "'aalt' Access All Alternates in Latin lookup 1 subtable" seven
EndChar

StartChar: eight.lf
Encoding: 65559 -1 250
Width: 396
Flags: W
HStem: -10 100<152.418 243.582> 315 100<152.133 243.867> 610 100<153.882 242.118>
VStem: 26 110<105.445 299.886 431.291 594.555> 260 110<105.445 299.886 431.291 594.555>
LayerCount: 2
Fore
SplineSet
198 -10 m 0
 87 -10 26 51 26 163 c 2
 26 225 l 2
 26 292 46 341 98 368 c 1
 98 370 l 1
 52 395 30 439 30 508 c 2
 30 537 l 2
 30 649 91 710 198 710 c 0
 305 710 366 649 366 537 c 2
 366 508 l 2
 366 439 343 395 298 370 c 1
 298 368 l 1
 350 341 370 292 370 225 c 2
 370 163 l 2
 370 51 309 -10 198 -10 c 0
198 415 m 0
 236 415 256 439 256 485 c 2
 256 540 l 2
 256 586 236 610 198 610 c 0
 160 610 140 586 140 540 c 2
 140 485 l 2
 140 439 160 415 198 415 c 0
198 90 m 0
 239 90 260 116 260 169 c 2
 260 236 l 2
 260 289 239 315 198 315 c 0
 157 315 136 289 136 236 c 2
 136 169 l 2
 136 116 157 90 198 90 c 0
EndSplineSet
Substitution2: "'tnum' Tabular Numbers in Latin lookup 22 subtable" eight
AlternateSubs2: "'aalt' Access All Alternates in Latin lookup 1 subtable" eight
EndChar

StartChar: nine.lf
Encoding: 65560 -1 251
Width: 393
Flags: W
HStem: -10 100<144.135 236.732> 610 100<148.641 237.359>
VStem: 26 110<99.5581 179 360.023 596.174> 250 110<102.419 310 359.25 596.174>
LayerCount: 2
Fore
SplineSet
192 -10 m 0
 84 -10 28 54 28 166 c 2
 28 179 l 1
 132 179 l 1
 132 159 l 2
 132 109 154 90 189 90 c 0
 228 90 250 109 250 176 c 2
 250 310 l 1
 248 310 l 1
 229 270 197 249 148 249 c 0
 67 249 26 306 26 409 c 2
 26 534 l 2
 26 646 85 710 193 710 c 0
 301 710 360 646 360 534 c 2
 360 172 l 2
 360 54 306 -10 192 -10 c 0
193 349 m 0
 231 349 250 371 250 418 c 2
 250 542 l 2
 250 588 231 610 193 610 c 0
 155 610 136 588 136 542 c 2
 136 418 l 2
 136 371 155 349 193 349 c 0
EndSplineSet
Substitution2: "'tnum' Tabular Numbers in Latin lookup 22 subtable" nine
AlternateSubs2: "'aalt' Access All Alternates in Latin lookup 1 subtable" nine
EndChar

StartChar: uni2080
Encoding: 8320 8320 252
Width: 282
Flags: W
HStem: -75 63<108.321 173.586> 326 63<108.321 173.586>
VStem: 35 70<-8.24857 322.249> 177 70<-8.24857 322.249>
LayerCount: 2
Fore
SplineSet
141 -75 m 0
 72 -75 35 -35 35 37 c 2
 35 277 l 2
 35 349 72 389 141 389 c 0
 210 389 247 349 247 277 c 2
 247 37 l 2
 247 -35 210 -75 141 -75 c 0
141 -12 m 0
 163 -12 177 1 177 32 c 2
 177 282 l 2
 177 313 163 326 141 326 c 0
 118 326 105 313 105 282 c 2
 105 32 l 2
 105 1 118 -12 141 -12 c 0
EndSplineSet
EndChar

StartChar: uni2081
Encoding: 8321 8321 253
Width: 282
Flags: W
HStem: -65 21G<132 202> 274 49<58 131.168> 359 20G<147 202>
VStem: 132 70<-65 274> 156 46<344.6 379>
LayerCount: 2
Fore
SplineSet
132 -65 m 1xf0
 132 274 l 1xf0
 58 274 l 1
 58 323 l 1
 116 323 138 336 156 379 c 1
 202 379 l 1xe8
 202 -65 l 1
 132 -65 l 1xf0
EndSplineSet
EndChar

StartChar: uni2082
Encoding: 8322 8322 254
Width: 282
Flags: W
HStem: -65 63<107 240> 326 63<107.162 172.101>
VStem: 38 69<-2 72.1302 241 323.11> 176 70<202.665 322.853>
LayerCount: 2
Fore
SplineSet
38 -65 m 1
 38 -15 l 2
 38 49 54 88 107 144 c 0
 159 198 176 233 176 279 c 0
 176 311 165 326 140 326 c 0
 116 326 104 311 104 282 c 2
 104 241 l 1
 38 241 l 1
 38 278 l 2
 38 350 74 389 142 389 c 0
 210 389 246 350 246 281 c 0
 246 225 225 179 160 110 c 0
 117 64 107 42 107 10 c 2
 107 -2 l 1
 240 -2 l 1
 240 -65 l 1
 38 -65 l 1
EndSplineSet
EndChar

StartChar: uni2083
Encoding: 8323 8323 255
Width: 282
Flags: W
HStem: -75 63<104.492 167.966> 135 63<103 166.436> 326 63<104.492 167.966>
VStem: 34 66<-8.24857 74 255 322.249> 172 70<-8.24857 130.262 201.875 322.249>
LayerCount: 2
Fore
SplineSet
138 -75 m 0
 69 -75 34 -35 34 37 c 2
 34 74 l 1
 100 74 l 1
 100 32 l 2
 100 1 114 -12 136 -12 c 0
 158 -12 172 -1 172 39 c 2
 172 79 l 2
 172 121 158 135 127 135 c 2
 103 135 l 1
 103 198 l 1
 130 198 l 2
 156 198 172 211 172 246 c 2
 172 275 l 2
 172 315 158 326 136 326 c 0
 114 326 100 313 100 282 c 2
 100 255 l 1
 34 255 l 1
 34 277 l 2
 34 349 69 389 138 389 c 0
 207 389 242 349 242 277 c 2
 242 258 l 2
 242 212 227 184 193 169 c 1
 193 167 l 1
 228 152 242 119 242 74 c 2
 242 37 l 2
 242 -35 207 -75 138 -75 c 0
EndSplineSet
EndChar

StartChar: uni2084
Encoding: 8324 8324 256
Width: 282
Flags: W
HStem: -65 21G<156 226> 15 63<86 156 226 259> 359 20G<141.561 226>
VStem: 157 69<-65 15>
LayerCount: 2
Fore
SplineSet
156 -65 m 1
 156 15 l 1
 23 15 l 1
 23 78 l 1
 150 379 l 1
 226 379 l 1
 226 78 l 1
 259 78 l 1
 259 15 l 1
 226 15 l 1
 226 -65 l 1
 156 -65 l 1
86 78 m 1
 157 78 l 1
 157 253 l 1
 155 253 l 1
 86 78 l 1
EndSplineSet
EndChar

StartChar: uni2085
Encoding: 8325 8325 257
Width: 282
Flags: W
HStem: -75 65<106.815 172.499> 177 64<117.09 172.092> 177 31<110.051 120.256> 316 63<112 235>
VStem: 38 66<-7.83641 62 124 174.919 208 261.308> 176 70<-7.83641 172.55>
LayerCount: 2
Fore
SplineSet
142 -75 m 0xdc
 73 -75 38 -34 38 37 c 2
 38 62 l 1
 104 62 l 1
 104 33 l 2
 104 1 118 -10 140 -10 c 0
 162 -10 176 1 176 33 c 2
 176 133 l 2
 176 165 162 177 140 177 c 0xdc
 118 177 104 165 104 133 c 2
 104 124 l 1
 38 124 l 1
 51 379 l 1
 235 379 l 1
 235 316 l 1
 112 316 l 1
 107 208 l 1
 109 208 l 1xbc
 121 229 141 241 169 241 c 0
 220 241 246 204 246 139 c 2
 246 37 l 2
 246 -34 211 -75 142 -75 c 0xdc
EndSplineSet
EndChar

StartChar: uni2086
Encoding: 8326 8326 258
Width: 282
Flags: W
HStem: -75 63<110.067 175.933> 326 63<112.23 178.83>
VStem: 37 70<-7.83641 151.919 179 323.104> 179 70<-7.83641 149.458 271 324.453>
LayerCount: 2
Fore
SplineSet
143 -75 m 0
 74 -75 37 -34 37 37 c 2
 37 274 l 2
 37 348 71 389 144 389 c 0
 212 389 248 348 248 277 c 2
 248 271 l 1
 182 271 l 1
 182 282 l 2
 182 314 168 326 146 326 c 0
 121 326 107 314 107 271 c 2
 107 179 l 1
 109 179 l 1
 121 204 140 217 172 217 c 0
 223 217 249 181 249 116 c 2
 249 37 l 2
 249 -34 212 -75 143 -75 c 0
143 -12 m 0
 165 -12 179 -1 179 31 c 2
 179 110 l 2
 179 142 165 154 143 154 c 0
 121 154 107 142 107 110 c 2
 107 31 l 2
 107 -1 121 -12 143 -12 c 0
EndSplineSet
EndChar

StartChar: uni2087
Encoding: 8327 8327 259
Width: 282
Flags: W
HStem: -65 21G<64 139.796> 316 63<35 177>
VStem: 64 70<-65 -41.3982>
LayerCount: 2
Fore
SplineSet
64 -65 m 1
 177 316 l 1
 35 316 l 1
 35 379 l 1
 245 379 l 1
 245 318 l 1
 134 -65 l 1
 64 -65 l 1
EndSplineSet
EndChar

StartChar: uni2088
Encoding: 8328 8328 260
Width: 282
Flags: W
HStem: -75 63<107.151 174.849> 135 63<106.608 175.392> 326 63<106.947 175.053>
VStem: 32 70<-7.83641 130.618 201.256 321.836> 180 70<-7.83641 130.618 201.256 321.836>
LayerCount: 2
Fore
SplineSet
141 -75 m 0
 71 -75 32 -34 32 37 c 2
 32 72 l 2
 32 115 45 147 75 164 c 1
 75 166 l 1
 46 182 32 211 32 254 c 2
 32 277 l 2
 32 348 71 389 141 389 c 0
 211 389 250 348 250 277 c 2
 250 254 l 2
 250 211 236 182 207 166 c 1
 207 164 l 1
 237 147 250 115 250 72 c 2
 250 37 l 2
 250 -34 211 -75 141 -75 c 0
141 198 m 0
 167 198 180 214 180 245 c 2
 180 279 l 2
 180 310 167 326 141 326 c 0
 115 326 102 310 102 279 c 2
 102 245 l 2
 102 214 115 198 141 198 c 0
141 -12 m 0
 167 -12 180 4 180 38 c 2
 180 85 l 2
 180 119 167 135 141 135 c 0
 115 135 102 119 102 85 c 2
 102 38 l 2
 102 4 115 -12 141 -12 c 0
EndSplineSet
EndChar

StartChar: uni2089
Encoding: 8329 8329 261
Width: 282
Flags: W
HStem: -75 63<103.17 169.77> 326 63<106.067 171.933>
VStem: 33 70<-10.4531 43 164.542 321.836> 175 70<-9.10387 135 162.081 321.836>
LayerCount: 2
Fore
SplineSet
138 -75 m 0
 70 -75 34 -34 34 37 c 2
 34 43 l 1
 100 43 l 1
 100 32 l 2
 100 0 114 -12 136 -12 c 0
 161 -12 175 0 175 43 c 2
 175 135 l 1
 173 135 l 1
 161 110 142 97 110 97 c 0
 59 97 33 133 33 198 c 2
 33 277 l 2
 33 348 70 389 139 389 c 0
 208 389 245 348 245 277 c 2
 245 40 l 2
 245 -34 211 -75 138 -75 c 0
139 160 m 0
 161 160 175 172 175 204 c 2
 175 283 l 2
 175 315 161 326 139 326 c 0
 117 326 103 315 103 283 c 2
 103 204 l 2
 103 172 117 160 139 160 c 0
EndSplineSet
EndChar

StartChar: zero.dnom
Encoding: 65561 -1 262
Width: 282
Flags: W
HStem: -10 63<108.321 173.586> 391 63<108.321 173.586>
VStem: 35 70<56.7514 387.249> 177 70<56.7514 387.249>
LayerCount: 2
Fore
SplineSet
141 -10 m 0
 72 -10 35 30 35 102 c 2
 35 342 l 2
 35 414 72 454 141 454 c 0
 210 454 247 414 247 342 c 2
 247 102 l 2
 247 30 210 -10 141 -10 c 0
141 53 m 0
 163 53 177 66 177 97 c 2
 177 347 l 2
 177 378 163 391 141 391 c 0
 118 391 105 378 105 347 c 2
 105 97 l 2
 105 66 118 53 141 53 c 0
EndSplineSet
EndChar

StartChar: one.dnom
Encoding: 65562 -1 263
Width: 282
Flags: W
HStem: 0 21G<132 202> 339 49<58 131.168>
VStem: 132 70<0 339> 156 46<409.6 444>
LayerCount: 2
Fore
SplineSet
132 0 m 1xe0
 132 339 l 1xe0
 58 339 l 1
 58 388 l 1
 116 388 138 401 156 444 c 1
 202 444 l 1xd0
 202 0 l 1
 132 0 l 1xe0
EndSplineSet
EndChar

StartChar: two.dnom
Encoding: 65563 -1 264
Width: 282
Flags: W
HStem: 0 63<107 240> 391 63<107.162 172.101>
VStem: 38 69<63 137.13 306 388.11> 176 70<267.665 387.853>
LayerCount: 2
Fore
SplineSet
38 0 m 1
 38 50 l 2
 38 114 54 153 107 209 c 0
 159 263 176 298 176 344 c 0
 176 376 165 391 140 391 c 0
 116 391 104 376 104 347 c 2
 104 306 l 1
 38 306 l 1
 38 343 l 2
 38 415 74 454 142 454 c 0
 210 454 246 415 246 346 c 0
 246 290 225 244 160 175 c 0
 117 129 107 107 107 75 c 2
 107 63 l 1
 240 63 l 1
 240 0 l 1
 38 0 l 1
EndSplineSet
EndChar

StartChar: three.dnom
Encoding: 65564 -1 265
Width: 282
Flags: W
HStem: -10 63<104.492 167.966> 200 63<103 166.436> 391 63<104.492 167.966>
VStem: 34 66<56.7514 139 320 387.249> 172 70<56.7514 195.262 266.875 387.249>
LayerCount: 2
Fore
SplineSet
138 -10 m 0
 69 -10 34 30 34 102 c 2
 34 139 l 1
 100 139 l 1
 100 97 l 2
 100 66 114 53 136 53 c 0
 158 53 172 64 172 104 c 2
 172 144 l 2
 172 186 158 200 127 200 c 2
 103 200 l 1
 103 263 l 1
 130 263 l 2
 156 263 172 276 172 311 c 2
 172 340 l 2
 172 380 158 391 136 391 c 0
 114 391 100 378 100 347 c 2
 100 320 l 1
 34 320 l 1
 34 342 l 2
 34 414 69 454 138 454 c 0
 207 454 242 414 242 342 c 2
 242 323 l 2
 242 277 227 249 193 234 c 1
 193 232 l 1
 228 217 242 184 242 139 c 2
 242 102 l 2
 242 30 207 -10 138 -10 c 0
EndSplineSet
EndChar

StartChar: four.dnom
Encoding: 65565 -1 266
Width: 282
Flags: W
HStem: 0 21G<156 226> 80 63<86 156 226 259>
VStem: 157 69<0 80>
LayerCount: 2
Fore
SplineSet
156 0 m 1
 156 80 l 1
 23 80 l 1
 23 143 l 1
 150 444 l 1
 226 444 l 1
 226 143 l 1
 259 143 l 1
 259 80 l 1
 226 80 l 1
 226 0 l 1
 156 0 l 1
86 143 m 1
 157 143 l 1
 157 318 l 1
 155 318 l 1
 86 143 l 1
EndSplineSet
EndChar

StartChar: five.dnom
Encoding: 65566 -1 267
Width: 282
Flags: W
HStem: -10 65<106.815 172.499> 242 64<117.09 172.092> 242 31<110.051 120.256> 381 63<112 235>
VStem: 38 66<57.1636 127 189 239.919 273 326.308> 176 70<57.1636 237.55>
LayerCount: 2
Fore
SplineSet
142 -10 m 0xdc
 73 -10 38 31 38 102 c 2
 38 127 l 1
 104 127 l 1
 104 98 l 2
 104 66 118 55 140 55 c 0
 162 55 176 66 176 98 c 2
 176 198 l 2
 176 230 162 242 140 242 c 0xdc
 118 242 104 230 104 198 c 2
 104 189 l 1
 38 189 l 1
 51 444 l 1
 235 444 l 1
 235 381 l 1
 112 381 l 1
 107 273 l 1
 109 273 l 1xbc
 121 294 141 306 169 306 c 0
 220 306 246 269 246 204 c 2
 246 102 l 2
 246 31 211 -10 142 -10 c 0xdc
EndSplineSet
EndChar

StartChar: six.dnom
Encoding: 65567 -1 268
Width: 282
Flags: W
HStem: -10 63<110.067 175.933> 391 63<112.23 178.83>
VStem: 37 70<57.1636 216.919 244 388.104> 179 70<57.1636 214.458 336 389.453>
LayerCount: 2
Fore
SplineSet
143 -10 m 0
 74 -10 37 31 37 102 c 2
 37 339 l 2
 37 413 71 454 144 454 c 0
 212 454 248 413 248 342 c 2
 248 336 l 1
 182 336 l 1
 182 347 l 2
 182 379 168 391 146 391 c 0
 121 391 107 379 107 336 c 2
 107 244 l 1
 109 244 l 1
 121 269 140 282 172 282 c 0
 223 282 249 246 249 181 c 2
 249 102 l 2
 249 31 212 -10 143 -10 c 0
143 53 m 0
 165 53 179 64 179 96 c 2
 179 175 l 2
 179 207 165 219 143 219 c 0
 121 219 107 207 107 175 c 2
 107 96 l 2
 107 64 121 53 143 53 c 0
EndSplineSet
EndChar

StartChar: seven.dnom
Encoding: 65568 -1 269
Width: 282
Flags: W
HStem: 0 21G<64 139.796> 381 63<35 177>
VStem: 64 70<0 23.6018>
LayerCount: 2
Fore
SplineSet
64 0 m 1
 177 381 l 1
 35 381 l 1
 35 444 l 1
 245 444 l 1
 245 383 l 1
 134 0 l 1
 64 0 l 1
EndSplineSet
EndChar

StartChar: eight.dnom
Encoding: 65569 -1 270
Width: 282
Flags: W
HStem: -10 63<107.151 174.849> 200 63<106.608 175.392> 391 63<106.947 175.053>
VStem: 32 70<57.1636 195.618 266.256 386.836> 180 70<57.1636 195.618 266.256 386.836>
LayerCount: 2
Fore
SplineSet
141 -10 m 0
 71 -10 32 31 32 102 c 2
 32 137 l 2
 32 180 45 212 75 229 c 1
 75 231 l 1
 46 247 32 276 32 319 c 2
 32 342 l 2
 32 413 71 454 141 454 c 0
 211 454 250 413 250 342 c 2
 250 319 l 2
 250 276 236 247 207 231 c 1
 207 229 l 1
 237 212 250 180 250 137 c 2
 250 102 l 2
 250 31 211 -10 141 -10 c 0
141 263 m 0
 167 263 180 279 180 310 c 2
 180 344 l 2
 180 375 167 391 141 391 c 0
 115 391 102 375 102 344 c 2
 102 310 l 2
 102 279 115 263 141 263 c 0
141 53 m 0
 167 53 180 69 180 103 c 2
 180 150 l 2
 180 184 167 200 141 200 c 0
 115 200 102 184 102 150 c 2
 102 103 l 2
 102 69 115 53 141 53 c 0
EndSplineSet
EndChar

StartChar: nine.dnom
Encoding: 65570 -1 271
Width: 282
Flags: W
HStem: -10 63<103.17 169.77> 391 63<106.067 171.933>
VStem: 33 70<54.5469 108 229.542 386.836> 175 70<55.8961 200 227.081 386.836>
LayerCount: 2
Fore
SplineSet
138 -10 m 0
 70 -10 34 31 34 102 c 2
 34 108 l 1
 100 108 l 1
 100 97 l 2
 100 65 114 53 136 53 c 0
 161 53 175 65 175 108 c 2
 175 200 l 1
 173 200 l 1
 161 175 142 162 110 162 c 0
 59 162 33 198 33 263 c 2
 33 342 l 2
 33 413 70 454 139 454 c 0
 208 454 245 413 245 342 c 2
 245 105 l 2
 245 31 211 -10 138 -10 c 0
139 225 m 0
 161 225 175 237 175 269 c 2
 175 348 l 2
 175 380 161 391 139 391 c 0
 117 391 103 380 103 348 c 2
 103 269 l 2
 103 237 117 225 139 225 c 0
EndSplineSet
EndChar

StartChar: zero.numr
Encoding: 65571 -1 272
Width: 282
Flags: W
HStem: 246 63<108.321 173.586> 647 63<108.321 173.586>
VStem: 35 70<312.751 643.249> 177 70<312.751 643.249>
LayerCount: 2
Fore
SplineSet
141 246 m 0
 72 246 35 286 35 358 c 2
 35 598 l 2
 35 670 72 710 141 710 c 0
 210 710 247 670 247 598 c 2
 247 358 l 2
 247 286 210 246 141 246 c 0
141 309 m 0
 163 309 177 322 177 353 c 2
 177 603 l 2
 177 634 163 647 141 647 c 0
 118 647 105 634 105 603 c 2
 105 353 l 2
 105 322 118 309 141 309 c 0
EndSplineSet
Substitution2: "Single Substitution lookup 26 subtable" zero.dnom
Substitution2: "'aalt' Access All Alternates in Latin lookup 0 subtable" zero.dnom
EndChar

StartChar: one.numr
Encoding: 65572 -1 273
Width: 282
Flags: W
HStem: 595 49<58 131.168> 680 20G<147 202>
VStem: 132 70<256 595> 156 46<665.6 700>
LayerCount: 2
Fore
SplineSet
132 256 m 1xe0
 132 595 l 1xe0
 58 595 l 1
 58 644 l 1
 116 644 138 657 156 700 c 1
 202 700 l 1xd0
 202 256 l 1
 132 256 l 1xe0
EndSplineSet
Substitution2: "Single Substitution lookup 26 subtable" one.dnom
Substitution2: "'aalt' Access All Alternates in Latin lookup 0 subtable" one.dnom
EndChar

StartChar: two.numr
Encoding: 65573 -1 274
Width: 282
Flags: W
HStem: 256 63<107 240> 647 63<107.162 172.101>
VStem: 38 69<319 393.13 562 644.11> 176 70<523.665 643.853>
LayerCount: 2
Fore
SplineSet
38 256 m 1
 38 306 l 2
 38 370 54 409 107 465 c 0
 159 519 176 554 176 600 c 0
 176 632 165 647 140 647 c 0
 116 647 104 632 104 603 c 2
 104 562 l 1
 38 562 l 1
 38 599 l 2
 38 671 74 710 142 710 c 0
 210 710 246 671 246 602 c 0
 246 546 225 500 160 431 c 0
 117 385 107 363 107 331 c 2
 107 319 l 1
 240 319 l 1
 240 256 l 1
 38 256 l 1
EndSplineSet
Substitution2: "Single Substitution lookup 26 subtable" two.dnom
Substitution2: "'aalt' Access All Alternates in Latin lookup 0 subtable" two.dnom
EndChar

StartChar: three.numr
Encoding: 65574 -1 275
Width: 282
Flags: W
HStem: 246 63<104.492 167.966> 456 63<103 166.436> 647 63<104.492 167.966>
VStem: 34 66<312.751 395 576 643.249> 172 70<312.751 451.262 522.875 643.249>
LayerCount: 2
Fore
SplineSet
138 246 m 0
 69 246 34 286 34 358 c 2
 34 395 l 1
 100 395 l 1
 100 353 l 2
 100 322 114 309 136 309 c 0
 158 309 172 320 172 360 c 2
 172 400 l 2
 172 442 158 456 127 456 c 2
 103 456 l 1
 103 519 l 1
 130 519 l 2
 156 519 172 532 172 567 c 2
 172 596 l 2
 172 636 158 647 136 647 c 0
 114 647 100 634 100 603 c 2
 100 576 l 1
 34 576 l 1
 34 598 l 2
 34 670 69 710 138 710 c 0
 207 710 242 670 242 598 c 2
 242 579 l 2
 242 533 227 505 193 490 c 1
 193 488 l 1
 228 473 242 440 242 395 c 2
 242 358 l 2
 242 286 207 246 138 246 c 0
EndSplineSet
Substitution2: "Single Substitution lookup 26 subtable" three.dnom
Substitution2: "'aalt' Access All Alternates in Latin lookup 0 subtable" three.dnom
EndChar

StartChar: four.numr
Encoding: 65575 -1 276
Width: 282
Flags: W
HStem: 336 63<86 156 226 259> 680 20G<141.561 226>
VStem: 157 69<256 336>
LayerCount: 2
Fore
SplineSet
156 256 m 1
 156 336 l 1
 23 336 l 1
 23 399 l 1
 150 700 l 1
 226 700 l 1
 226 399 l 1
 259 399 l 1
 259 336 l 1
 226 336 l 1
 226 256 l 1
 156 256 l 1
86 399 m 1
 157 399 l 1
 157 574 l 1
 155 574 l 1
 86 399 l 1
EndSplineSet
Substitution2: "Single Substitution lookup 26 subtable" four.dnom
Substitution2: "'aalt' Access All Alternates in Latin lookup 0 subtable" four.dnom
EndChar

StartChar: five.numr
Encoding: 65576 -1 277
Width: 282
Flags: W
HStem: 246 65<106.815 172.499> 363 20G<38 104> 498 64<117.09 172.092> 498 31<110.051 120.256> 637 63<112 235>
VStem: 38 66<313.164 383 445 495.919 529 582.308> 176 70<313.164 493.55>
LayerCount: 2
Fore
SplineSet
142 246 m 0xee
 73 246 38 287 38 358 c 2
 38 383 l 1
 104 383 l 1
 104 354 l 2
 104 322 118 311 140 311 c 0
 162 311 176 322 176 354 c 2
 176 454 l 2
 176 486 162 498 140 498 c 0xee
 118 498 104 486 104 454 c 2
 104 445 l 1
 38 445 l 1
 51 700 l 1
 235 700 l 1
 235 637 l 1
 112 637 l 1
 107 529 l 1
 109 529 l 1xde
 121 550 141 562 169 562 c 0
 220 562 246 525 246 460 c 2
 246 358 l 2
 246 287 211 246 142 246 c 0xee
EndSplineSet
Substitution2: "Single Substitution lookup 26 subtable" five.dnom
Substitution2: "'aalt' Access All Alternates in Latin lookup 0 subtable" five.dnom
EndChar

StartChar: six.numr
Encoding: 65577 -1 278
Width: 282
Flags: W
HStem: 246 63<110.067 175.933> 647 63<112.23 178.83>
VStem: 37 70<313.164 472.919 500 644.104> 179 70<313.164 470.458 592 645.453>
LayerCount: 2
Fore
SplineSet
143 246 m 0
 74 246 37 287 37 358 c 2
 37 595 l 2
 37 669 71 710 144 710 c 0
 212 710 248 669 248 598 c 2
 248 592 l 1
 182 592 l 1
 182 603 l 2
 182 635 168 647 146 647 c 0
 121 647 107 635 107 592 c 2
 107 500 l 1
 109 500 l 1
 121 525 140 538 172 538 c 0
 223 538 249 502 249 437 c 2
 249 358 l 2
 249 287 212 246 143 246 c 0
143 309 m 0
 165 309 179 320 179 352 c 2
 179 431 l 2
 179 463 165 475 143 475 c 0
 121 475 107 463 107 431 c 2
 107 352 l 2
 107 320 121 309 143 309 c 0
EndSplineSet
Substitution2: "Single Substitution lookup 26 subtable" six.dnom
Substitution2: "'aalt' Access All Alternates in Latin lookup 0 subtable" six.dnom
EndChar

StartChar: seven.numr
Encoding: 65578 -1 279
Width: 282
Flags: W
HStem: 637 63<35 177>
VStem: 64 70<256 279.602>
LayerCount: 2
Fore
SplineSet
64 256 m 1
 177 637 l 1
 35 637 l 1
 35 700 l 1
 245 700 l 1
 245 639 l 1
 134 256 l 1
 64 256 l 1
EndSplineSet
Substitution2: "Single Substitution lookup 26 subtable" seven.dnom
Substitution2: "'aalt' Access All Alternates in Latin lookup 0 subtable" seven.dnom
EndChar

StartChar: eight.numr
Encoding: 65579 -1 280
Width: 282
Flags: W
HStem: 246 63<107.151 174.849> 456 63<106.608 175.392> 647 63<106.947 175.053>
VStem: 32 70<313.164 451.618 522.256 642.836> 180 70<313.164 451.618 522.256 642.836>
LayerCount: 2
Fore
SplineSet
141 246 m 0
 71 246 32 287 32 358 c 2
 32 393 l 2
 32 436 45 468 75 485 c 1
 75 487 l 1
 46 503 32 532 32 575 c 2
 32 598 l 2
 32 669 71 710 141 710 c 0
 211 710 250 669 250 598 c 2
 250 575 l 2
 250 532 236 503 207 487 c 1
 207 485 l 1
 237 468 250 436 250 393 c 2
 250 358 l 2
 250 287 211 246 141 246 c 0
141 519 m 0
 167 519 180 535 180 566 c 2
 180 600 l 2
 180 631 167 647 141 647 c 0
 115 647 102 631 102 600 c 2
 102 566 l 2
 102 535 115 519 141 519 c 0
141 309 m 0
 167 309 180 325 180 359 c 2
 180 406 l 2
 180 440 167 456 141 456 c 0
 115 456 102 440 102 406 c 2
 102 359 l 2
 102 325 115 309 141 309 c 0
EndSplineSet
Substitution2: "Single Substitution lookup 26 subtable" eight.dnom
Substitution2: "'aalt' Access All Alternates in Latin lookup 0 subtable" eight.dnom
EndChar

StartChar: nine.numr
Encoding: 65580 -1 281
Width: 282
Flags: W
HStem: 246 63<103.17 169.77> 647 63<106.067 171.933>
VStem: 33 70<310.547 364 485.542 642.836> 175 70<311.896 456 483.081 642.836>
LayerCount: 2
Fore
SplineSet
138 246 m 0
 70 246 34 287 34 358 c 2
 34 364 l 1
 100 364 l 1
 100 353 l 2
 100 321 114 309 136 309 c 0
 161 309 175 321 175 364 c 2
 175 456 l 1
 173 456 l 1
 161 431 142 418 110 418 c 0
 59 418 33 454 33 519 c 2
 33 598 l 2
 33 669 70 710 139 710 c 0
 208 710 245 669 245 598 c 2
 245 361 l 2
 245 287 211 246 138 246 c 0
139 481 m 0
 161 481 175 493 175 525 c 2
 175 604 l 2
 175 636 161 647 139 647 c 0
 117 647 103 636 103 604 c 2
 103 525 l 2
 103 493 117 481 139 481 c 0
EndSplineSet
Substitution2: "Single Substitution lookup 26 subtable" nine.dnom
Substitution2: "'aalt' Access All Alternates in Latin lookup 0 subtable" nine.dnom
EndChar

StartChar: uni2070
Encoding: 8304 8304 282
Width: 282
Flags: W
HStem: 341 63<108.321 173.586> 742 63<108.321 173.586>
VStem: 35 70<407.751 738.249> 177 70<407.751 738.249>
LayerCount: 2
Fore
SplineSet
141 341 m 0
 72 341 35 381 35 453 c 2
 35 693 l 2
 35 765 72 805 141 805 c 0
 210 805 247 765 247 693 c 2
 247 453 l 2
 247 381 210 341 141 341 c 0
141 404 m 0
 163 404 177 417 177 448 c 2
 177 698 l 2
 177 729 163 742 141 742 c 0
 118 742 105 729 105 698 c 2
 105 448 l 2
 105 417 118 404 141 404 c 0
EndSplineSet
EndChar

StartChar: uni00B9
Encoding: 185 185 283
Width: 282
Flags: W
HStem: 351 21G<132 202> 690 49<58 131.168> 775 20G<147 202>
VStem: 132 70<351 690> 156 46<760.6 795>
LayerCount: 2
Fore
SplineSet
132 351 m 1xf0
 132 690 l 1xf0
 58 690 l 1
 58 739 l 1
 116 739 138 752 156 795 c 1
 202 795 l 1xe8
 202 351 l 1
 132 351 l 1xf0
EndSplineSet
EndChar

StartChar: uni00B2
Encoding: 178 178 284
Width: 282
Flags: W
HStem: 351 63<107 240> 742 63<107.162 172.101>
VStem: 38 69<414 488.13 657 739.11> 176 70<618.665 738.853>
LayerCount: 2
Fore
SplineSet
38 351 m 1
 38 401 l 2
 38 465 54 504 107 560 c 0
 159 614 176 649 176 695 c 0
 176 727 165 742 140 742 c 0
 116 742 104 727 104 698 c 2
 104 657 l 1
 38 657 l 1
 38 694 l 2
 38 766 74 805 142 805 c 0
 210 805 246 766 246 697 c 0
 246 641 225 595 160 526 c 0
 117 480 107 458 107 426 c 2
 107 414 l 1
 240 414 l 1
 240 351 l 1
 38 351 l 1
EndSplineSet
EndChar

StartChar: uni00B3
Encoding: 179 179 285
Width: 282
Flags: W
HStem: 341 63<104.492 167.966> 551 63<103 166.436> 742 63<104.492 167.966>
VStem: 34 66<407.751 490 671 738.249> 172 70<407.751 546.262 617.875 738.249>
LayerCount: 2
Fore
SplineSet
138 341 m 0
 69 341 34 381 34 453 c 2
 34 490 l 1
 100 490 l 1
 100 448 l 2
 100 417 114 404 136 404 c 0
 158 404 172 415 172 455 c 2
 172 495 l 2
 172 537 158 551 127 551 c 2
 103 551 l 1
 103 614 l 1
 130 614 l 2
 156 614 172 627 172 662 c 2
 172 691 l 2
 172 731 158 742 136 742 c 0
 114 742 100 729 100 698 c 2
 100 671 l 1
 34 671 l 1
 34 693 l 2
 34 765 69 805 138 805 c 0
 207 805 242 765 242 693 c 2
 242 674 l 2
 242 628 227 600 193 585 c 1
 193 583 l 1
 228 568 242 535 242 490 c 2
 242 453 l 2
 242 381 207 341 138 341 c 0
EndSplineSet
EndChar

StartChar: uni2074
Encoding: 8308 8308 286
Width: 282
Flags: W
HStem: 351 21G<156 226> 431 63<86 156 226 259> 775 20G<141.561 226>
VStem: 157 69<351 431>
LayerCount: 2
Fore
SplineSet
156 351 m 1
 156 431 l 1
 23 431 l 1
 23 494 l 1
 150 795 l 1
 226 795 l 1
 226 494 l 1
 259 494 l 1
 259 431 l 1
 226 431 l 1
 226 351 l 1
 156 351 l 1
86 494 m 1
 157 494 l 1
 157 669 l 1
 155 669 l 1
 86 494 l 1
EndSplineSet
EndChar

StartChar: uni2075
Encoding: 8309 8309 287
Width: 282
Flags: W
HStem: 341 65<106.815 172.499> 593 64<117.09 172.092> 593 31<110.051 120.256> 732 63<112 235>
VStem: 38 66<408.164 478 540 590.919 624 677.308> 176 70<408.164 588.55>
LayerCount: 2
Fore
SplineSet
142 341 m 0xdc
 73 341 38 382 38 453 c 2
 38 478 l 1
 104 478 l 1
 104 449 l 2
 104 417 118 406 140 406 c 0
 162 406 176 417 176 449 c 2
 176 549 l 2
 176 581 162 593 140 593 c 0xdc
 118 593 104 581 104 549 c 2
 104 540 l 1
 38 540 l 1
 51 795 l 1
 235 795 l 1
 235 732 l 1
 112 732 l 1
 107 624 l 1
 109 624 l 1xbc
 121 645 141 657 169 657 c 0
 220 657 246 620 246 555 c 2
 246 453 l 2
 246 382 211 341 142 341 c 0xdc
EndSplineSet
EndChar

StartChar: uni2076
Encoding: 8310 8310 288
Width: 282
Flags: W
HStem: 341 63<110.067 175.933> 742 63<112.23 178.83>
VStem: 37 70<408.164 567.919 595 739.104> 179 70<408.164 565.458 687 740.453>
LayerCount: 2
Fore
SplineSet
143 341 m 0
 74 341 37 382 37 453 c 2
 37 690 l 2
 37 764 71 805 144 805 c 0
 212 805 248 764 248 693 c 2
 248 687 l 1
 182 687 l 1
 182 698 l 2
 182 730 168 742 146 742 c 0
 121 742 107 730 107 687 c 2
 107 595 l 1
 109 595 l 1
 121 620 140 633 172 633 c 0
 223 633 249 597 249 532 c 2
 249 453 l 2
 249 382 212 341 143 341 c 0
143 404 m 0
 165 404 179 415 179 447 c 2
 179 526 l 2
 179 558 165 570 143 570 c 0
 121 570 107 558 107 526 c 2
 107 447 l 2
 107 415 121 404 143 404 c 0
EndSplineSet
EndChar

StartChar: uni2077
Encoding: 8311 8311 289
Width: 282
Flags: W
HStem: 351 21G<64 139.796> 732 63<35 177>
VStem: 64 70<351 374.602>
LayerCount: 2
Fore
SplineSet
64 351 m 1
 177 732 l 1
 35 732 l 1
 35 795 l 1
 245 795 l 1
 245 734 l 1
 134 351 l 1
 64 351 l 1
EndSplineSet
EndChar

StartChar: uni2078
Encoding: 8312 8312 290
Width: 282
Flags: W
HStem: 341 63<107.151 174.849> 551 63<106.608 175.392> 742 63<106.947 175.053>
VStem: 32 70<408.164 546.618 617.256 737.836> 180 70<408.164 546.618 617.256 737.836>
LayerCount: 2
Fore
SplineSet
141 341 m 0
 71 341 32 382 32 453 c 2
 32 488 l 2
 32 531 45 563 75 580 c 1
 75 582 l 1
 46 598 32 627 32 670 c 2
 32 693 l 2
 32 764 71 805 141 805 c 0
 211 805 250 764 250 693 c 2
 250 670 l 2
 250 627 236 598 207 582 c 1
 207 580 l 1
 237 563 250 531 250 488 c 2
 250 453 l 2
 250 382 211 341 141 341 c 0
141 614 m 0
 167 614 180 630 180 661 c 2
 180 695 l 2
 180 726 167 742 141 742 c 0
 115 742 102 726 102 695 c 2
 102 661 l 2
 102 630 115 614 141 614 c 0
141 404 m 0
 167 404 180 420 180 454 c 2
 180 501 l 2
 180 535 167 551 141 551 c 0
 115 551 102 535 102 501 c 2
 102 454 l 2
 102 420 115 404 141 404 c 0
EndSplineSet
EndChar

